G04*
G04 #@! TF.GenerationSoftware,Altium Limited,Altium Designer,23.4.1 (23)*
G04*
G04 Layer_Physical_Order=4*
G04 Layer_Color=16711680*
%FSLAX44Y44*%
%MOMM*%
G71*
G04*
G04 #@! TF.SameCoordinates,AC87B314-1984-4FFE-BA22-F28876D7C55D*
G04*
G04*
G04 #@! TF.FilePolarity,Positive*
G04*
G01*
G75*
%ADD14C,0.2500*%
%ADD17C,0.4000*%
G04:AMPARAMS|DCode=29|XSize=0.9mm|YSize=1.4mm|CornerRadius=0.0675mm|HoleSize=0mm|Usage=FLASHONLY|Rotation=270.000|XOffset=0mm|YOffset=0mm|HoleType=Round|Shape=RoundedRectangle|*
%AMROUNDEDRECTD29*
21,1,0.9000,1.2650,0,0,270.0*
21,1,0.7650,1.4000,0,0,270.0*
1,1,0.1350,-0.6325,-0.3825*
1,1,0.1350,-0.6325,0.3825*
1,1,0.1350,0.6325,0.3825*
1,1,0.1350,0.6325,-0.3825*
%
%ADD29ROUNDEDRECTD29*%
G04:AMPARAMS|DCode=34|XSize=0.9mm|YSize=0.8mm|CornerRadius=0.06mm|HoleSize=0mm|Usage=FLASHONLY|Rotation=0.000|XOffset=0mm|YOffset=0mm|HoleType=Round|Shape=RoundedRectangle|*
%AMROUNDEDRECTD34*
21,1,0.9000,0.6800,0,0,0.0*
21,1,0.7800,0.8000,0,0,0.0*
1,1,0.1200,0.3900,-0.3400*
1,1,0.1200,-0.3900,-0.3400*
1,1,0.1200,-0.3900,0.3400*
1,1,0.1200,0.3900,0.3400*
%
%ADD34ROUNDEDRECTD34*%
%ADD64C,1.2000*%
%ADD67C,0.5000*%
%ADD69C,1.0000*%
%ADD71R,3.0000X3.0000*%
%ADD72C,3.0000*%
%ADD73C,1.5000*%
%ADD74R,1.5000X1.5000*%
%ADD75C,1.6000*%
%ADD76R,1.6000X1.6000*%
%ADD77C,2.0000*%
%ADD78C,7.0000*%
%ADD79C,0.5000*%
G04:AMPARAMS|DCode=81|XSize=0.9mm|YSize=0.8mm|CornerRadius=0.06mm|HoleSize=0mm|Usage=FLASHONLY|Rotation=90.000|XOffset=0mm|YOffset=0mm|HoleType=Round|Shape=RoundedRectangle|*
%AMROUNDEDRECTD81*
21,1,0.9000,0.6800,0,0,90.0*
21,1,0.7800,0.8000,0,0,90.0*
1,1,0.1200,0.3400,0.3900*
1,1,0.1200,0.3400,-0.3900*
1,1,0.1200,-0.3400,-0.3900*
1,1,0.1200,-0.3400,0.3900*
%
%ADD81ROUNDEDRECTD81*%
G36*
X600000Y450000D02*
X600000Y450000D01*
X603277D01*
X609775Y449144D01*
X616106Y447448D01*
X622162Y444940D01*
X627838Y441663D01*
X633038Y437673D01*
X637673Y433038D01*
X641663Y427838D01*
X644940Y422162D01*
X647448Y416106D01*
X649144Y409775D01*
X650000Y403277D01*
X650000Y400000D01*
X650000Y306443D01*
X580096D01*
X579139Y306047D01*
X578743Y305090D01*
Y145000D01*
X579139Y144043D01*
X580096Y143647D01*
X650000D01*
X650000Y50000D01*
X650000D01*
Y46723D01*
X649144Y40225D01*
X647448Y33893D01*
X644940Y27838D01*
X641663Y22162D01*
X637673Y16962D01*
X633038Y12327D01*
X627838Y8337D01*
X622162Y5060D01*
X616106Y2552D01*
X609775Y856D01*
X603277Y0D01*
X600000D01*
X250000Y0D01*
Y0D01*
X246723D01*
X240225Y856D01*
X233894Y2552D01*
X227838Y5060D01*
X222162Y8337D01*
X216962Y12327D01*
X212327Y16962D01*
X208337Y22162D01*
X205060Y27838D01*
X202552Y33893D01*
X200856Y40225D01*
X200000Y46723D01*
Y50000D01*
Y71900D01*
X208890Y80790D01*
Y139210D01*
X200000Y148100D01*
X200000Y311900D01*
X208890Y320790D01*
Y379210D01*
X200000Y388100D01*
Y398804D01*
X200000Y400000D01*
X200000Y400000D01*
X200000Y400000D01*
X200000Y403277D01*
X200856Y409775D01*
X202552Y416106D01*
X205060Y422162D01*
X208337Y427838D01*
X212327Y433038D01*
X216962Y437673D01*
X222162Y441663D01*
X227838Y444940D01*
X233894Y447448D01*
X240224Y449145D01*
X246723Y450000D01*
X250000D01*
X600000Y450000D01*
X600000Y450000D01*
D02*
G37*
%LPC*%
G36*
X524250Y419250D02*
X505750D01*
Y400750D01*
X524250D01*
Y419250D01*
D02*
G37*
G36*
X491218D02*
X488782D01*
X486430Y418620D01*
X484320Y417402D01*
X482598Y415680D01*
X481380Y413570D01*
X480750Y411218D01*
Y408782D01*
X481380Y406430D01*
X482598Y404320D01*
X484320Y402598D01*
X486430Y401380D01*
X488782Y400750D01*
X491218D01*
X493570Y401380D01*
X495680Y402598D01*
X497402Y404320D01*
X498620Y406430D01*
X499250Y408782D01*
Y411218D01*
X498620Y413570D01*
X497402Y415680D01*
X495680Y417402D01*
X493570Y418620D01*
X491218Y419250D01*
D02*
G37*
G36*
X384250D02*
X365750D01*
Y400750D01*
X384250D01*
Y419250D01*
D02*
G37*
G36*
X351218D02*
X348782D01*
X346430Y418620D01*
X344320Y417402D01*
X342598Y415680D01*
X341380Y413570D01*
X340750Y411218D01*
Y408782D01*
X341380Y406430D01*
X342598Y404320D01*
X344320Y402598D01*
X346430Y401380D01*
X348782Y400750D01*
X351218D01*
X353570Y401380D01*
X355680Y402598D01*
X357402Y404320D01*
X358620Y406430D01*
X359250Y408782D01*
Y411218D01*
X358620Y413570D01*
X357402Y415680D01*
X355680Y417402D01*
X353570Y418620D01*
X351218Y419250D01*
D02*
G37*
G36*
X500746Y369750D02*
X499254D01*
X497876Y369179D01*
X496821Y368124D01*
X496250Y366746D01*
Y365254D01*
X496480Y364699D01*
X495631Y363429D01*
X402773D01*
X402772Y363429D01*
X400334Y362944D01*
X398266Y361563D01*
X309536Y272832D01*
X308459Y273552D01*
X308750Y274254D01*
Y275746D01*
X308179Y277124D01*
X307124Y278179D01*
X305746Y278750D01*
X304254D01*
X302876Y278179D01*
X301821Y277124D01*
X301250Y275746D01*
Y274254D01*
X301821Y272876D01*
X302876Y271821D01*
X304254Y271250D01*
X305746D01*
X306448Y271541D01*
X307168Y270464D01*
X257065Y220361D01*
X255684Y218294D01*
X255198Y215855D01*
Y215358D01*
X255138Y213731D01*
X255044Y212866D01*
X254915Y212110D01*
X254758Y211481D01*
X254581Y210986D01*
X254400Y210627D01*
X254235Y210400D01*
X254104Y210281D01*
X253853Y210143D01*
X253774Y210044D01*
X253653Y210009D01*
X253619Y209946D01*
X252303Y209401D01*
X249641Y207622D01*
X247378Y205359D01*
X245599Y202697D01*
X244374Y199740D01*
X243750Y196600D01*
Y193400D01*
X244374Y190260D01*
X245599Y187303D01*
X247378Y184641D01*
X249641Y182378D01*
X252303Y180599D01*
X255260Y179374D01*
X258400Y178750D01*
X259888D01*
X260119Y178648D01*
X261584Y178614D01*
X262946Y178487D01*
X264248Y178267D01*
X265492Y177955D01*
X266682Y177551D01*
X267818Y177056D01*
X268903Y176469D01*
X269939Y175789D01*
X270928Y175014D01*
X271529Y174459D01*
X301855Y144133D01*
Y92943D01*
X302340Y90504D01*
X303722Y88437D01*
X305789Y87056D01*
X308228Y86571D01*
X310666Y87056D01*
X312733Y88437D01*
X314115Y90504D01*
X314600Y92943D01*
Y146772D01*
X314600Y146772D01*
X314115Y149211D01*
X312733Y151278D01*
X312733Y151279D01*
X280541Y183471D01*
X279986Y184072D01*
X279211Y185061D01*
X278531Y186098D01*
X277944Y187183D01*
X277449Y188318D01*
X277045Y189508D01*
X276733Y190752D01*
X276513Y192055D01*
X276386Y193416D01*
X276352Y194881D01*
X276250Y195112D01*
Y196600D01*
X275625Y199740D01*
X274401Y202697D01*
X272622Y205359D01*
X270359Y207622D01*
X269353Y208294D01*
X269335Y208357D01*
X269231Y208413D01*
X269179Y208519D01*
X268970Y208704D01*
X268835Y208894D01*
X268664Y209248D01*
X268487Y209765D01*
X268324Y210435D01*
X268189Y211222D01*
X268033Y213305D01*
X405412Y350685D01*
X541772D01*
X544211Y351170D01*
X546278Y352551D01*
X547660Y354618D01*
X548145Y357057D01*
X547660Y359496D01*
X546278Y361563D01*
X544211Y362944D01*
X541772Y363429D01*
X504369D01*
X503520Y364699D01*
X503750Y365254D01*
Y366746D01*
X503179Y368124D01*
X502124Y369179D01*
X500746Y369750D01*
D02*
G37*
G36*
X361246Y367750D02*
X359754D01*
X358376Y367179D01*
X357321Y366124D01*
X356750Y364746D01*
Y363254D01*
X357321Y361876D01*
X358376Y360821D01*
X359754Y360250D01*
X361246D01*
X362624Y360821D01*
X363679Y361876D01*
X364250Y363254D01*
Y364746D01*
X363679Y366124D01*
X362624Y367179D01*
X361246Y367750D01*
D02*
G37*
G36*
X292746Y334750D02*
X291254D01*
X289876Y334179D01*
X288821Y333124D01*
X288250Y331746D01*
Y330254D01*
X288821Y328876D01*
X289876Y327821D01*
X291254Y327250D01*
X292746D01*
X294124Y327821D01*
X295179Y328876D01*
X295750Y330254D01*
Y331746D01*
X295179Y333124D01*
X294124Y334179D01*
X292746Y334750D01*
D02*
G37*
G36*
X590955Y352250D02*
X589045D01*
X587202Y351756D01*
X585548Y350801D01*
X584199Y349452D01*
X583244Y347798D01*
X582750Y345955D01*
Y344045D01*
X583244Y342202D01*
X584199Y340548D01*
X585548Y339199D01*
X587202Y338244D01*
X589045Y337750D01*
X590955D01*
X592798Y338244D01*
X593726Y338780D01*
X593981Y338819D01*
X594499Y339132D01*
X595002Y339392D01*
X595532Y339623D01*
X596088Y339825D01*
X596674Y339997D01*
X597287Y340140D01*
X597915Y340248D01*
X597998Y340256D01*
X598345Y340200D01*
X598877Y340063D01*
X599270Y339908D01*
X599529Y339756D01*
X599671Y339629D01*
X599723Y339553D01*
X599857Y338878D01*
X600133Y338465D01*
X600199Y338306D01*
X600255Y338282D01*
X600266Y338266D01*
X600283Y338255D01*
X600309Y338207D01*
X600390Y338184D01*
X600878Y337857D01*
X601600Y337714D01*
X602026D01*
X603000Y337000D01*
X603000Y336444D01*
Y333000D01*
X607000D01*
X607000Y337000D01*
X607974Y337714D01*
X608400D01*
X609122Y337857D01*
X609148Y337875D01*
X609222Y337867D01*
X609483Y338079D01*
X609793Y338207D01*
X609870Y338394D01*
X610026Y338520D01*
X610149Y338748D01*
X610242Y338859D01*
X610397Y338987D01*
X610635Y339126D01*
X610967Y339265D01*
X611395Y339393D01*
X611897Y339495D01*
X612589Y339564D01*
X613082Y339500D01*
X613605Y339393D01*
X614033Y339265D01*
X614365Y339126D01*
X614603Y338987D01*
X614758Y338859D01*
X614851Y338748D01*
X614974Y338520D01*
X615130Y338393D01*
X615207Y338207D01*
X615517Y338079D01*
X615778Y337867D01*
X616646Y336971D01*
Y333000D01*
X615878Y332143D01*
X615266Y331734D01*
X614857Y331122D01*
X614714Y330400D01*
Y322600D01*
X614857Y321878D01*
X615266Y321266D01*
X615878Y320857D01*
X616218Y320790D01*
X616250Y320631D01*
Y320254D01*
X616394Y319906D01*
X616468Y319537D01*
X616677Y319224D01*
X616821Y318876D01*
X617087Y318610D01*
X617296Y318296D01*
X617610Y318087D01*
X617876Y317821D01*
X618224Y317677D01*
X618537Y317467D01*
X618906Y317394D01*
X619254Y317250D01*
X619631D01*
X620000Y317176D01*
X620369Y317250D01*
X620746D01*
X621094Y317394D01*
X621463Y317467D01*
X621776Y317677D01*
X622124Y317821D01*
X622390Y318087D01*
X622704Y318296D01*
X622913Y318610D01*
X623179Y318876D01*
X623323Y319224D01*
X623532Y319537D01*
X623606Y319906D01*
X623750Y320254D01*
Y320631D01*
X623782Y320790D01*
X624122Y320857D01*
X624734Y321266D01*
X625143Y321878D01*
X625286Y322600D01*
Y330400D01*
X625143Y331122D01*
X624734Y331734D01*
X624122Y332143D01*
X623352Y333000D01*
Y337000D01*
X624122Y337857D01*
X624734Y338266D01*
X625143Y338878D01*
X625286Y339600D01*
Y347400D01*
X625143Y348122D01*
X624734Y348734D01*
X624122Y349143D01*
X623400Y349286D01*
X616600D01*
X615878Y349143D01*
X615852Y349125D01*
X615778Y349132D01*
X615517Y348921D01*
X615207Y348793D01*
X615130Y348606D01*
X614974Y348479D01*
X614851Y348252D01*
X614758Y348141D01*
X614603Y348013D01*
X614365Y347874D01*
X614033Y347735D01*
X613605Y347607D01*
X613103Y347505D01*
X612411Y347436D01*
X611918Y347500D01*
X611395Y347607D01*
X610967Y347735D01*
X610635Y347874D01*
X610397Y348013D01*
X610242Y348141D01*
X610149Y348252D01*
X610026Y348480D01*
X609870Y348606D01*
X609793Y348793D01*
X609483Y348921D01*
X609222Y349133D01*
X609148Y349125D01*
X609122Y349143D01*
X608400Y349286D01*
X601600D01*
X601008Y349169D01*
X600463Y349532D01*
X599000Y349823D01*
X597537Y349532D01*
X596898Y349106D01*
X596575Y349281D01*
X595989Y349650D01*
X595406Y350074D01*
X594792Y350576D01*
X594627Y350626D01*
X594452Y350801D01*
X592798Y351756D01*
X590955Y352250D01*
D02*
G37*
G36*
X292746Y322750D02*
X291254D01*
X289876Y322179D01*
X288821Y321124D01*
X288250Y319746D01*
Y318254D01*
X288821Y316876D01*
X289876Y315821D01*
X291254Y315250D01*
X292746D01*
X294124Y315821D01*
X295179Y316876D01*
X295750Y318254D01*
Y319746D01*
X295179Y321124D01*
X294124Y322179D01*
X292746Y322750D01*
D02*
G37*
G36*
X452000Y322353D02*
X398000D01*
X397043Y321957D01*
X395043Y319957D01*
X394647Y319000D01*
Y300000D01*
X395043Y299043D01*
X397043Y297043D01*
X397043Y297043D01*
X398000Y296647D01*
X452000D01*
X452957Y297043D01*
X454957Y299043D01*
X455353Y300000D01*
Y319000D01*
X454957Y319957D01*
X452957Y321957D01*
X452000Y322353D01*
D02*
G37*
G36*
X305746Y291750D02*
X304254D01*
X302876Y291179D01*
X301821Y290124D01*
X301250Y288746D01*
Y287254D01*
X301821Y285876D01*
X302876Y284821D01*
X304254Y284250D01*
X305746D01*
X307124Y284821D01*
X308179Y285876D01*
X308750Y287254D01*
Y288746D01*
X308179Y290124D01*
X307124Y291179D01*
X305746Y291750D01*
D02*
G37*
G36*
X290746D02*
X289254D01*
X287876Y291179D01*
X286821Y290124D01*
X286250Y288746D01*
Y287254D01*
X286821Y285876D01*
X287876Y284821D01*
X289254Y284250D01*
X290746D01*
X292124Y284821D01*
X293179Y285876D01*
X293750Y287254D01*
Y288746D01*
X293179Y290124D01*
X292124Y291179D01*
X290746Y291750D01*
D02*
G37*
G36*
X275746D02*
X274254D01*
X272876Y291179D01*
X271821Y290124D01*
X271250Y288746D01*
Y287254D01*
X271821Y285876D01*
X272876Y284821D01*
X274254Y284250D01*
X275746D01*
X277124Y284821D01*
X278179Y285876D01*
X278750Y287254D01*
Y288746D01*
X278179Y290124D01*
X277124Y291179D01*
X275746Y291750D01*
D02*
G37*
G36*
X290746Y278750D02*
X289254D01*
X287876Y278179D01*
X286821Y277124D01*
X286250Y275746D01*
Y274254D01*
X286821Y272876D01*
X287876Y271821D01*
X289254Y271250D01*
X290746D01*
X292124Y271821D01*
X293179Y272876D01*
X293750Y274254D01*
Y275746D01*
X293179Y277124D01*
X292124Y278179D01*
X290746Y278750D01*
D02*
G37*
G36*
X275746D02*
X274254D01*
X272876Y278179D01*
X271821Y277124D01*
X271250Y275746D01*
Y274254D01*
X271821Y272876D01*
X272876Y271821D01*
X274254Y271250D01*
X275746D01*
X277124Y271821D01*
X278179Y272876D01*
X278750Y274254D01*
Y275746D01*
X278179Y277124D01*
X277124Y278179D01*
X275746Y278750D01*
D02*
G37*
G36*
X529746Y275750D02*
X528254D01*
X526876Y275179D01*
X525821Y274124D01*
X525250Y272746D01*
Y271254D01*
X525821Y269876D01*
X526163Y269534D01*
X526224Y269358D01*
X526226Y269347D01*
X526229Y269342D01*
X526238Y269316D01*
X526271Y269279D01*
X526276Y269271D01*
X526294Y269226D01*
X526317Y269150D01*
X526342Y269043D01*
X526361Y268923D01*
X526393Y268535D01*
X526397Y268310D01*
X526451Y268186D01*
Y266672D01*
X526398Y266552D01*
X526386Y266112D01*
X526357Y265774D01*
X526313Y265510D01*
X526264Y265326D01*
X526248Y265286D01*
X524600D01*
X523878Y265143D01*
X523266Y264734D01*
X522857Y264122D01*
X522000Y263353D01*
X518000D01*
X517143Y264122D01*
X516734Y264734D01*
X516122Y265143D01*
X515400Y265286D01*
X507600D01*
X506878Y265143D01*
X506266Y264734D01*
X505857Y264122D01*
X505714Y263400D01*
Y256600D01*
X505857Y255878D01*
X506266Y255266D01*
X506878Y254857D01*
X507228Y254788D01*
X507250Y254746D01*
Y254369D01*
X507177Y254000D01*
X507250Y253631D01*
Y253254D01*
X507394Y252906D01*
X507468Y252537D01*
X507677Y252224D01*
X507821Y251876D01*
X508087Y251610D01*
X508296Y251296D01*
X508610Y251087D01*
X508876Y250821D01*
X509224Y250677D01*
X509537Y250468D01*
X509906Y250394D01*
X510254Y250250D01*
X510631D01*
X511000Y250177D01*
X511369Y250250D01*
X511746D01*
X512094Y250394D01*
X512463Y250468D01*
X512776Y250677D01*
X513124Y250821D01*
X513390Y251087D01*
X513704Y251296D01*
X514204Y251796D01*
X515032Y253037D01*
X515323Y254500D01*
Y254714D01*
X515400D01*
X516122Y254857D01*
X516734Y255266D01*
X517143Y255878D01*
X518000Y256647D01*
X522000D01*
X522857Y255878D01*
X523266Y255266D01*
X523878Y254857D01*
X524600Y254714D01*
X532400D01*
X533122Y254857D01*
X533734Y255266D01*
X534143Y255878D01*
X534286Y256600D01*
Y257248D01*
X534326Y257264D01*
X534510Y257313D01*
X534774Y257357D01*
X535112Y257386D01*
X535552Y257397D01*
X535672Y257451D01*
X536474D01*
X536594Y257397D01*
X537002Y257386D01*
X537326Y257357D01*
X537600Y257312D01*
X537823Y257255D01*
X537994Y257193D01*
X538117Y257131D01*
X538198Y257076D01*
X538249Y257028D01*
X538284Y256985D01*
X538364Y256842D01*
X538515Y256722D01*
X538589Y256543D01*
X538635Y256524D01*
X539199Y255548D01*
X540548Y254199D01*
X542202Y253244D01*
X544045Y252750D01*
X545955D01*
X547798Y253244D01*
X549452Y254199D01*
X550801Y255548D01*
X551756Y257202D01*
X552250Y259046D01*
Y260954D01*
X551756Y262798D01*
X550801Y264452D01*
X549452Y265801D01*
X547798Y266756D01*
X545955Y267250D01*
X544045D01*
X542202Y266756D01*
X540548Y265801D01*
X539199Y264452D01*
X538635Y263476D01*
X538589Y263457D01*
X538515Y263278D01*
X538364Y263158D01*
X538284Y263015D01*
X538249Y262972D01*
X538198Y262924D01*
X538117Y262869D01*
X537994Y262807D01*
X537823Y262745D01*
X537600Y262688D01*
X537326Y262643D01*
X537002Y262614D01*
X536594Y262602D01*
X536474Y262549D01*
X535672D01*
X535552Y262603D01*
X535112Y262614D01*
X534774Y262643D01*
X534510Y262687D01*
X534326Y262736D01*
X534286Y262752D01*
Y263400D01*
X534143Y264122D01*
X533734Y264734D01*
X533122Y265143D01*
X532400Y265286D01*
X531752D01*
X531736Y265326D01*
X531687Y265510D01*
X531643Y265774D01*
X531614Y266112D01*
X531603Y266552D01*
X531549Y266672D01*
Y268168D01*
X531602Y268283D01*
X531620Y268757D01*
X531636Y268906D01*
X531659Y269043D01*
X531683Y269150D01*
X531706Y269226D01*
X531724Y269271D01*
X531729Y269279D01*
X531762Y269316D01*
X531771Y269342D01*
X531774Y269347D01*
X531776Y269358D01*
X531837Y269534D01*
X532179Y269876D01*
X532750Y271254D01*
Y272746D01*
X532179Y274124D01*
X531124Y275179D01*
X529746Y275750D01*
D02*
G37*
G36*
X485955Y207250D02*
X484045D01*
X482202Y206756D01*
X480548Y205801D01*
X479199Y204452D01*
X478635Y203476D01*
X478589Y203457D01*
X478515Y203278D01*
X478364Y203158D01*
X478284Y203015D01*
X478249Y202972D01*
X478198Y202924D01*
X478117Y202869D01*
X477994Y202807D01*
X477823Y202745D01*
X477600Y202688D01*
X477326Y202643D01*
X477002Y202614D01*
X476594Y202603D01*
X476474Y202549D01*
X475672D01*
X475552Y202603D01*
X475112Y202614D01*
X474774Y202643D01*
X474510Y202687D01*
X474326Y202736D01*
X474286Y202752D01*
Y203400D01*
X474143Y204122D01*
X473734Y204734D01*
X473122Y205143D01*
X472400Y205286D01*
X464600D01*
X463878Y205143D01*
X463266Y204734D01*
X462857Y204122D01*
X462000Y203353D01*
X458000D01*
X457043Y202957D01*
X456647Y202000D01*
Y198000D01*
X457043Y197043D01*
X458000Y196647D01*
X462000D01*
X462857Y195878D01*
X463266Y195266D01*
X463878Y194857D01*
X464459Y194742D01*
X464709Y194482D01*
X464710Y194481D01*
X465139Y193521D01*
X465140Y193444D01*
X464821Y193124D01*
X464250Y191746D01*
Y190254D01*
X464821Y188876D01*
X465876Y187821D01*
X467254Y187250D01*
X468746D01*
X470124Y187821D01*
X471179Y188876D01*
X471750Y190254D01*
Y191746D01*
X471179Y193124D01*
X471009Y193295D01*
X471360Y194506D01*
X471511Y194625D01*
X471653Y194714D01*
X472400D01*
X473122Y194857D01*
X473734Y195266D01*
X474143Y195878D01*
X474286Y196600D01*
Y197248D01*
X474326Y197264D01*
X474510Y197313D01*
X474774Y197357D01*
X475112Y197386D01*
X475552Y197397D01*
X475672Y197451D01*
X476474D01*
X476594Y197397D01*
X477002Y197386D01*
X477326Y197357D01*
X477600Y197312D01*
X477823Y197255D01*
X477994Y197193D01*
X478117Y197131D01*
X478198Y197076D01*
X478249Y197029D01*
X478284Y196985D01*
X478364Y196842D01*
X478515Y196722D01*
X478589Y196543D01*
X478635Y196524D01*
X479199Y195548D01*
X480548Y194199D01*
X482202Y193244D01*
X484045Y192750D01*
X485955D01*
X487798Y193244D01*
X489452Y194199D01*
X490801Y195548D01*
X491756Y197202D01*
X492250Y199046D01*
Y200954D01*
X491756Y202798D01*
X490801Y204452D01*
X489452Y205801D01*
X487798Y206756D01*
X485955Y207250D01*
D02*
G37*
G36*
Y187250D02*
X484045D01*
X482202Y186756D01*
X480548Y185801D01*
X479199Y184452D01*
X478635Y183476D01*
X478589Y183457D01*
X478515Y183278D01*
X478364Y183158D01*
X478284Y183015D01*
X478249Y182972D01*
X478198Y182924D01*
X478117Y182869D01*
X477994Y182807D01*
X477823Y182745D01*
X477600Y182688D01*
X477326Y182643D01*
X477002Y182614D01*
X476594Y182603D01*
X476474Y182549D01*
X475672D01*
X475552Y182603D01*
X475112Y182614D01*
X474774Y182643D01*
X474510Y182687D01*
X474326Y182736D01*
X474286Y182752D01*
Y183400D01*
X474143Y184122D01*
X473734Y184734D01*
X473122Y185143D01*
X472400Y185286D01*
X464600D01*
X463878Y185143D01*
X463266Y184734D01*
X462857Y184122D01*
X462000Y183353D01*
X458000D01*
X457143Y184122D01*
X456734Y184734D01*
X456122Y185143D01*
X455400Y185286D01*
X447600D01*
X446878Y185143D01*
X446266Y184734D01*
X445857Y184122D01*
X445714Y183400D01*
Y182086D01*
X444916D01*
X443537Y181515D01*
X442482Y180460D01*
X441912Y179082D01*
Y177590D01*
X442482Y176211D01*
X443537Y175156D01*
X444916Y174586D01*
X446408D01*
X447003Y174832D01*
X447600Y174714D01*
X455400D01*
X456122Y174857D01*
X456734Y175266D01*
X457143Y175878D01*
X458000Y176647D01*
X462000D01*
X462857Y175878D01*
X463266Y175266D01*
X463878Y174857D01*
X464459Y174742D01*
X464709Y174482D01*
X464710Y174481D01*
X465139Y173521D01*
X465140Y173444D01*
X464821Y173124D01*
X464250Y171746D01*
Y170254D01*
X464821Y168876D01*
X465876Y167821D01*
X467254Y167250D01*
X468746D01*
X470124Y167821D01*
X471179Y168876D01*
X471750Y170254D01*
Y171746D01*
X471179Y173124D01*
X471009Y173295D01*
X471360Y174506D01*
X471511Y174625D01*
X471653Y174714D01*
X472400D01*
X473122Y174857D01*
X473734Y175266D01*
X474143Y175878D01*
X474286Y176600D01*
Y177248D01*
X474326Y177264D01*
X474510Y177313D01*
X474774Y177357D01*
X475112Y177386D01*
X475552Y177397D01*
X475672Y177451D01*
X476474D01*
X476594Y177397D01*
X477002Y177386D01*
X477326Y177357D01*
X477600Y177312D01*
X477823Y177255D01*
X477994Y177193D01*
X478117Y177131D01*
X478198Y177076D01*
X478249Y177028D01*
X478284Y176985D01*
X478364Y176842D01*
X478515Y176722D01*
X478589Y176543D01*
X478635Y176524D01*
X479199Y175548D01*
X480548Y174199D01*
X482202Y173244D01*
X484045Y172750D01*
X485955D01*
X487798Y173244D01*
X489452Y174199D01*
X490801Y175548D01*
X491756Y177202D01*
X492250Y179046D01*
Y180954D01*
X491756Y182798D01*
X490801Y184452D01*
X489452Y185801D01*
X487798Y186756D01*
X485955Y187250D01*
D02*
G37*
G36*
X355000Y159824D02*
X354631Y159750D01*
X354254D01*
X353906Y159606D01*
X353537Y159532D01*
X353224Y159323D01*
X352876Y159179D01*
X352610Y158913D01*
X352296Y158704D01*
X352087Y158390D01*
X351821Y158124D01*
X351677Y157776D01*
X351468Y157463D01*
X351394Y157094D01*
X351250Y156746D01*
Y156369D01*
X351210Y156168D01*
X351147Y156024D01*
X351129Y154973D01*
X351076Y154205D01*
X351073Y154181D01*
X350878Y154143D01*
X350266Y153734D01*
X349857Y153122D01*
X349714Y152400D01*
Y144600D01*
X349857Y143878D01*
X350266Y143266D01*
X350878Y142857D01*
X351647Y142001D01*
Y138001D01*
X350878Y137143D01*
X350266Y136734D01*
X349857Y136122D01*
X349714Y135400D01*
Y127600D01*
X349857Y126878D01*
X350266Y126266D01*
X350878Y125857D01*
X351600Y125714D01*
X358400D01*
X359122Y125857D01*
X359734Y126266D01*
X360143Y126878D01*
X360286Y127600D01*
Y128248D01*
X360326Y128264D01*
X360510Y128313D01*
X360774Y128357D01*
X361112Y128386D01*
X361552Y128398D01*
X361672Y128451D01*
X362168D01*
X362283Y128398D01*
X362757Y128380D01*
X362907Y128364D01*
X363043Y128342D01*
X363150Y128317D01*
X363226Y128294D01*
X363271Y128276D01*
X363279Y128271D01*
X363316Y128238D01*
X363342Y128229D01*
X363347Y128226D01*
X363358Y128224D01*
X363534Y128163D01*
X363876Y127821D01*
X365254Y127250D01*
X366746D01*
X368124Y127821D01*
X369179Y128876D01*
X369750Y130254D01*
Y131746D01*
X369179Y133124D01*
X368124Y134179D01*
X366746Y134750D01*
X365254D01*
X363876Y134179D01*
X363534Y133837D01*
X363358Y133776D01*
X363347Y133774D01*
X363342Y133771D01*
X363316Y133762D01*
X363279Y133729D01*
X363271Y133724D01*
X363226Y133706D01*
X363150Y133683D01*
X363043Y133659D01*
X362923Y133639D01*
X362536Y133607D01*
X362310Y133603D01*
X362186Y133549D01*
X361672D01*
X361552Y133603D01*
X361112Y133614D01*
X360774Y133643D01*
X360510Y133687D01*
X360326Y133736D01*
X360286Y133752D01*
Y135400D01*
X360143Y136122D01*
X359734Y136734D01*
X359122Y137143D01*
X358353Y138001D01*
Y142001D01*
X359122Y142857D01*
X359734Y143266D01*
X360143Y143878D01*
X360286Y144600D01*
Y152400D01*
X360143Y153122D01*
X359734Y153734D01*
X359122Y154143D01*
X358947Y154177D01*
X358857Y155480D01*
X358853Y156011D01*
X358793Y156152D01*
X358750Y156369D01*
Y156746D01*
X358606Y157094D01*
X358532Y157463D01*
X358323Y157776D01*
X358179Y158124D01*
X357913Y158390D01*
X357704Y158704D01*
X357390Y158913D01*
X357124Y159179D01*
X356776Y159323D01*
X356463Y159532D01*
X356094Y159606D01*
X355746Y159750D01*
X355369D01*
X355000Y159824D01*
D02*
G37*
G36*
X330000D02*
X329631Y159750D01*
X329254D01*
X328906Y159606D01*
X328537Y159532D01*
X328224Y159323D01*
X327876Y159179D01*
X327610Y158913D01*
X327296Y158704D01*
X327087Y158390D01*
X326821Y158124D01*
X326677Y157776D01*
X326468Y157463D01*
X326394Y157094D01*
X326250Y156746D01*
Y156369D01*
X326210Y156168D01*
X326147Y156024D01*
X326129Y154973D01*
X326076Y154206D01*
X326073Y154181D01*
X325878Y154143D01*
X325266Y153734D01*
X324857Y153122D01*
X324714Y152400D01*
Y144600D01*
X324857Y143878D01*
X325266Y143266D01*
X325878Y142857D01*
X326647Y142000D01*
Y138000D01*
X325878Y137143D01*
X325266Y136734D01*
X324857Y136122D01*
X324714Y135400D01*
Y127600D01*
X324857Y126878D01*
X325266Y126266D01*
X325878Y125857D01*
X326600Y125714D01*
X330828D01*
X330945Y125661D01*
X331056Y125704D01*
X331172Y125675D01*
X331238Y125714D01*
X331862D01*
X331879Y125704D01*
X332194Y125481D01*
X333068Y124734D01*
X333576Y124243D01*
X333702Y124194D01*
X343698Y114198D01*
X344524Y113645D01*
X345500Y113451D01*
X384168D01*
X384283Y113398D01*
X384757Y113380D01*
X384907Y113364D01*
X385043Y113342D01*
X385150Y113317D01*
X385226Y113294D01*
X385271Y113276D01*
X385279Y113271D01*
X385316Y113238D01*
X385342Y113229D01*
X385347Y113226D01*
X385358Y113224D01*
X385534Y113163D01*
X385876Y112821D01*
X387254Y112250D01*
X388746D01*
X390124Y112821D01*
X391179Y113876D01*
X391750Y115254D01*
Y116746D01*
X391179Y118124D01*
X390124Y119179D01*
X388746Y119750D01*
X387254D01*
X385876Y119179D01*
X385534Y118837D01*
X385358Y118776D01*
X385347Y118774D01*
X385342Y118771D01*
X385316Y118762D01*
X385279Y118729D01*
X385271Y118724D01*
X385226Y118706D01*
X385150Y118683D01*
X385043Y118659D01*
X384923Y118639D01*
X384536Y118607D01*
X384310Y118603D01*
X384187Y118549D01*
X346556D01*
X337768Y127337D01*
X337758Y127387D01*
X337651Y127458D01*
X337603Y127577D01*
X336990Y128208D01*
X336018Y129311D01*
X335685Y129748D01*
X335438Y130122D01*
X335286Y130403D01*
Y131058D01*
X335325Y131210D01*
X335286Y131276D01*
Y135400D01*
X335143Y136122D01*
X334734Y136734D01*
X334122Y137143D01*
X333353Y138000D01*
Y142000D01*
X334122Y142857D01*
X334734Y143266D01*
X335143Y143878D01*
X335286Y144600D01*
Y152400D01*
X335143Y153122D01*
X334734Y153734D01*
X334122Y154143D01*
X333947Y154177D01*
X333857Y155479D01*
X333853Y156011D01*
X333793Y156152D01*
X333750Y156369D01*
Y156746D01*
X333606Y157094D01*
X333532Y157463D01*
X333323Y157776D01*
X333179Y158124D01*
X332913Y158390D01*
X332704Y158704D01*
X332390Y158913D01*
X332124Y159179D01*
X331776Y159323D01*
X331463Y159532D01*
X331094Y159606D01*
X330746Y159750D01*
X330369D01*
X330000Y159824D01*
D02*
G37*
G36*
X525746Y167750D02*
X524254D01*
X522876Y167179D01*
X521821Y166124D01*
X521250Y164746D01*
Y164262D01*
X521168Y164094D01*
X521162Y164085D01*
X521161Y164080D01*
X521149Y164056D01*
X521147Y164006D01*
X521144Y163997D01*
X521125Y163952D01*
X521087Y163882D01*
X521029Y163789D01*
X520958Y163690D01*
X520707Y163394D01*
X520550Y163231D01*
X520501Y163106D01*
X513198Y155802D01*
X512645Y154976D01*
X512451Y154000D01*
Y102322D01*
X511181Y102154D01*
X510853Y103378D01*
X509701Y105373D01*
X508072Y107002D01*
X506077Y108154D01*
X503852Y108750D01*
X501548D01*
X499322Y108154D01*
X497327Y107002D01*
X495698Y105373D01*
X494546Y103378D01*
X493950Y101152D01*
Y98848D01*
X494546Y96623D01*
X495698Y94628D01*
X497327Y92998D01*
X499322Y91847D01*
X501548Y91250D01*
X503852D01*
X506077Y91847D01*
X508072Y92998D01*
X509701Y94628D01*
X510853Y96623D01*
X511181Y97846D01*
X512451Y97679D01*
Y69527D01*
X512280Y69084D01*
X511327Y68354D01*
X507999D01*
X507143Y69122D01*
X506734Y69734D01*
X506122Y70143D01*
X505400Y70286D01*
X497600D01*
X496878Y70143D01*
X496266Y69734D01*
X495857Y69122D01*
X495714Y68400D01*
Y64172D01*
X495662Y64055D01*
X495704Y63944D01*
X495675Y63828D01*
X495714Y63762D01*
Y63138D01*
X495704Y63121D01*
X495481Y62806D01*
X494735Y61932D01*
X494244Y61424D01*
X494194Y61298D01*
X488198Y55302D01*
X487645Y54475D01*
X487451Y53500D01*
Y52905D01*
X487401Y52806D01*
X487365Y52341D01*
X487272Y51921D01*
X487104Y51439D01*
X486852Y50899D01*
X486512Y50306D01*
X486082Y49664D01*
X485570Y48990D01*
X484236Y47473D01*
X483437Y46664D01*
X483338Y46419D01*
X482598Y45680D01*
X481380Y43570D01*
X480750Y41218D01*
Y38782D01*
X481380Y36430D01*
X482598Y34320D01*
X484320Y32598D01*
X486430Y31380D01*
X488782Y30750D01*
X491218D01*
X493570Y31380D01*
X495680Y32598D01*
X497402Y34320D01*
X498620Y36430D01*
X499250Y38782D01*
Y41218D01*
X498620Y43570D01*
X497402Y45680D01*
X496662Y46419D01*
X496563Y46664D01*
X495764Y47473D01*
X494430Y48990D01*
X493918Y49664D01*
X493488Y50306D01*
X493148Y50899D01*
X492896Y51439D01*
X492728Y51921D01*
X492635Y52340D01*
X492621Y52517D01*
X497337Y57232D01*
X497387Y57242D01*
X497458Y57349D01*
X497578Y57396D01*
X498208Y58010D01*
X499311Y58982D01*
X499748Y59315D01*
X500122Y59562D01*
X500403Y59714D01*
X501058D01*
X501210Y59675D01*
X501276Y59714D01*
X505400D01*
X506122Y59857D01*
X506734Y60266D01*
X507143Y60878D01*
X507999Y61648D01*
X511999D01*
X512857Y60878D01*
X513266Y60266D01*
X513878Y59857D01*
X514600Y59714D01*
X522400D01*
X523122Y59857D01*
X523734Y60266D01*
X524143Y60878D01*
X524286Y61600D01*
Y68400D01*
X524143Y69122D01*
X523734Y69734D01*
X523122Y70143D01*
X522400Y70286D01*
X517549D01*
Y152944D01*
X524092Y159488D01*
X524212Y159532D01*
X524559Y159854D01*
X524677Y159949D01*
X524789Y160029D01*
X524882Y160088D01*
X524952Y160125D01*
X524996Y160144D01*
X525006Y160147D01*
X525055Y160149D01*
X525080Y160161D01*
X525085Y160163D01*
X525094Y160168D01*
X525262Y160250D01*
X525746D01*
X527124Y160821D01*
X528179Y161876D01*
X528750Y163254D01*
Y164746D01*
X528179Y166124D01*
X527124Y167179D01*
X525746Y167750D01*
D02*
G37*
G36*
X590955Y132250D02*
X589045D01*
X587202Y131756D01*
X585548Y130801D01*
X584199Y129452D01*
X583244Y127798D01*
X582750Y125955D01*
Y124045D01*
X583244Y122202D01*
X584199Y120548D01*
X585548Y119199D01*
X587202Y118244D01*
X589045Y117750D01*
X590955D01*
X592798Y118244D01*
X593726Y118780D01*
X593981Y118819D01*
X594499Y119132D01*
X595002Y119392D01*
X595532Y119623D01*
X596088Y119825D01*
X596674Y119997D01*
X597287Y120140D01*
X597915Y120248D01*
X597998Y120256D01*
X598345Y120200D01*
X598877Y120063D01*
X599270Y119908D01*
X599529Y119756D01*
X599671Y119629D01*
X599723Y119553D01*
X599857Y118878D01*
X600133Y118465D01*
X600199Y118306D01*
X600255Y118282D01*
X600266Y118266D01*
X600283Y118255D01*
X600309Y118207D01*
X600390Y118184D01*
X600878Y117857D01*
X601600Y117714D01*
X602026D01*
X603000Y117000D01*
X603000Y116444D01*
Y113000D01*
X607000D01*
X607000Y117000D01*
X607974Y117714D01*
X608400D01*
X609122Y117857D01*
X609148Y117875D01*
X609222Y117867D01*
X609483Y118079D01*
X609793Y118207D01*
X609870Y118393D01*
X610026Y118520D01*
X610149Y118748D01*
X610242Y118859D01*
X610397Y118987D01*
X610635Y119126D01*
X610967Y119265D01*
X611395Y119393D01*
X611897Y119495D01*
X612589Y119564D01*
X613082Y119500D01*
X613605Y119393D01*
X614033Y119265D01*
X614365Y119126D01*
X614603Y118987D01*
X614758Y118859D01*
X614851Y118748D01*
X614974Y118520D01*
X615130Y118393D01*
X615207Y118207D01*
X615517Y118079D01*
X615778Y117867D01*
X616647Y116971D01*
Y113002D01*
X615878Y112143D01*
X615266Y111734D01*
X614857Y111122D01*
X614714Y110400D01*
Y102600D01*
X614857Y101878D01*
X615266Y101266D01*
X615878Y100857D01*
X616218Y100790D01*
X616250Y100631D01*
Y100254D01*
X616394Y99906D01*
X616468Y99537D01*
X616677Y99224D01*
X616821Y98876D01*
X617087Y98610D01*
X617296Y98296D01*
X617610Y98087D01*
X617876Y97821D01*
X618224Y97677D01*
X618537Y97468D01*
X618906Y97394D01*
X619254Y97250D01*
X619631D01*
X620000Y97177D01*
X620369Y97250D01*
X620746D01*
X621094Y97394D01*
X621463Y97468D01*
X621776Y97677D01*
X622124Y97821D01*
X622390Y98087D01*
X622704Y98296D01*
X622913Y98610D01*
X623179Y98876D01*
X623323Y99224D01*
X623532Y99537D01*
X623606Y99906D01*
X623750Y100254D01*
Y100631D01*
X623782Y100790D01*
X624122Y100857D01*
X624734Y101266D01*
X625143Y101878D01*
X625286Y102600D01*
Y110400D01*
X625143Y111122D01*
X624734Y111734D01*
X624122Y112143D01*
X623353Y113002D01*
Y117002D01*
X624122Y117857D01*
X624734Y118266D01*
X625143Y118878D01*
X625286Y119600D01*
Y127400D01*
X625143Y128122D01*
X624734Y128734D01*
X624122Y129143D01*
X623400Y129286D01*
X616600D01*
X615878Y129143D01*
X615852Y129125D01*
X615778Y129132D01*
X615517Y128921D01*
X615207Y128793D01*
X615130Y128607D01*
X614974Y128479D01*
X614851Y128252D01*
X614758Y128141D01*
X614603Y128013D01*
X614365Y127874D01*
X614033Y127735D01*
X613605Y127607D01*
X613103Y127505D01*
X612411Y127436D01*
X611918Y127500D01*
X611395Y127607D01*
X610967Y127735D01*
X610636Y127874D01*
X610397Y128013D01*
X610242Y128141D01*
X610149Y128252D01*
X610026Y128480D01*
X609870Y128607D01*
X609793Y128793D01*
X609483Y128921D01*
X609222Y129133D01*
X609148Y129125D01*
X609122Y129143D01*
X608400Y129286D01*
X601600D01*
X601104Y129187D01*
X599746Y129750D01*
X598254D01*
X596876Y129179D01*
X596836Y129139D01*
X596575Y129281D01*
X595990Y129650D01*
X595405Y130074D01*
X594792Y130576D01*
X594627Y130626D01*
X594452Y130801D01*
X592798Y131756D01*
X590955Y132250D01*
D02*
G37*
G36*
X536850Y108750D02*
X519350D01*
Y91250D01*
X536850D01*
Y108750D01*
D02*
G37*
G36*
X505746Y167750D02*
X504254D01*
X502876Y167179D01*
X501821Y166124D01*
X501250Y164746D01*
Y164262D01*
X501168Y164094D01*
X501162Y164085D01*
X501161Y164080D01*
X501149Y164056D01*
X501147Y164006D01*
X501144Y163997D01*
X501125Y163952D01*
X501087Y163882D01*
X501029Y163789D01*
X500958Y163690D01*
X500707Y163394D01*
X500550Y163231D01*
X500501Y163106D01*
X464698Y127302D01*
X464145Y126475D01*
X463951Y125500D01*
Y71672D01*
X463898Y71552D01*
X463886Y71112D01*
X463857Y70774D01*
X463813Y70510D01*
X463764Y70326D01*
X463748Y70286D01*
X462600D01*
X461878Y70143D01*
X461266Y69734D01*
X460857Y69122D01*
X460714Y68400D01*
Y61600D01*
X460857Y60878D01*
X461266Y60266D01*
X461878Y59857D01*
X462600Y59714D01*
X463748D01*
X463764Y59674D01*
X463813Y59490D01*
X463857Y59226D01*
X463886Y58888D01*
X463898Y58448D01*
X463951Y58328D01*
Y50625D01*
X463898Y50505D01*
X463886Y50065D01*
X463857Y49727D01*
X463813Y49463D01*
X463764Y49279D01*
X463752Y49250D01*
X455750D01*
Y30750D01*
X474250D01*
Y49250D01*
X469248D01*
X469236Y49279D01*
X469187Y49464D01*
X469143Y49727D01*
X469114Y50065D01*
X469103Y50505D01*
X469049Y50625D01*
Y58328D01*
X469103Y58448D01*
X469114Y58888D01*
X469143Y59226D01*
X469187Y59490D01*
X469236Y59674D01*
X469252Y59714D01*
X470400D01*
X471122Y59857D01*
X471734Y60266D01*
X472143Y60878D01*
X473000Y61647D01*
X477000D01*
X477857Y60878D01*
X478266Y60266D01*
X478878Y59857D01*
X479600Y59714D01*
X487400D01*
X488122Y59857D01*
X488734Y60266D01*
X489143Y60878D01*
X489286Y61600D01*
Y68400D01*
X489143Y69122D01*
X488734Y69734D01*
X488122Y70143D01*
X487400Y70286D01*
X486252D01*
X486236Y70326D01*
X486187Y70510D01*
X486143Y70774D01*
X486114Y71112D01*
X486103Y71552D01*
X486049Y71672D01*
Y72668D01*
X486102Y72783D01*
X486120Y73257D01*
X486136Y73407D01*
X486158Y73543D01*
X486183Y73650D01*
X486206Y73726D01*
X486224Y73771D01*
X486229Y73779D01*
X486262Y73816D01*
X486271Y73842D01*
X486274Y73847D01*
X486276Y73858D01*
X486337Y74034D01*
X486679Y74376D01*
X487250Y75754D01*
Y77246D01*
X486679Y78624D01*
X485624Y79679D01*
X484246Y80250D01*
X482754D01*
X481376Y79679D01*
X480321Y78624D01*
X479750Y77246D01*
Y75754D01*
X480321Y74376D01*
X480663Y74034D01*
X480724Y73858D01*
X480726Y73847D01*
X480729Y73842D01*
X480738Y73816D01*
X480771Y73779D01*
X480776Y73771D01*
X480794Y73726D01*
X480817Y73650D01*
X480841Y73543D01*
X480861Y73423D01*
X480893Y73035D01*
X480897Y72810D01*
X480951Y72687D01*
Y71672D01*
X480897Y71552D01*
X480886Y71112D01*
X480857Y70774D01*
X480813Y70510D01*
X480764Y70326D01*
X480748Y70286D01*
X479600D01*
X478878Y70143D01*
X478266Y69734D01*
X477857Y69122D01*
X477000Y68353D01*
X473000D01*
X472143Y69122D01*
X471734Y69734D01*
X471122Y70143D01*
X470400Y70286D01*
X469252D01*
X469236Y70326D01*
X469187Y70510D01*
X469143Y70774D01*
X469114Y71112D01*
X469103Y71552D01*
X469049Y71672D01*
Y94252D01*
X470224Y94605D01*
X470319Y94607D01*
X471928Y92998D01*
X473923Y91846D01*
X476148Y91250D01*
X478452D01*
X480678Y91846D01*
X482673Y92998D01*
X484302Y94627D01*
X485454Y96622D01*
X486050Y98848D01*
Y101152D01*
X485454Y103377D01*
X484302Y105372D01*
X482673Y107002D01*
X480678Y108153D01*
X478452Y108750D01*
X476148D01*
X473923Y108153D01*
X471928Y107002D01*
X470319Y105393D01*
X470224Y105395D01*
X469049Y105748D01*
Y124444D01*
X504092Y159488D01*
X504212Y159532D01*
X504559Y159854D01*
X504677Y159949D01*
X504789Y160029D01*
X504882Y160088D01*
X504952Y160125D01*
X504996Y160144D01*
X505006Y160147D01*
X505056Y160149D01*
X505080Y160161D01*
X505085Y160163D01*
X505094Y160168D01*
X505262Y160250D01*
X505746D01*
X507124Y160821D01*
X508179Y161876D01*
X508750Y163254D01*
Y164746D01*
X508179Y166124D01*
X507124Y167179D01*
X505746Y167750D01*
D02*
G37*
G36*
X351246Y89750D02*
X349754D01*
X348376Y89179D01*
X347321Y88124D01*
X346750Y86746D01*
Y85254D01*
X347321Y83876D01*
X348376Y82821D01*
X349754Y82250D01*
X351246D01*
X352624Y82821D01*
X353679Y83876D01*
X354250Y85254D01*
Y86746D01*
X353679Y88124D01*
X352624Y89179D01*
X351246Y89750D01*
D02*
G37*
G36*
X361218Y49250D02*
X358782D01*
X356430Y48620D01*
X354320Y47402D01*
X352598Y45680D01*
X351380Y43570D01*
X350750Y41218D01*
Y38782D01*
X351380Y36430D01*
X352598Y34320D01*
X354320Y32598D01*
X356430Y31380D01*
X358782Y30750D01*
X361218D01*
X363570Y31380D01*
X365680Y32598D01*
X367402Y34320D01*
X368620Y36430D01*
X369250Y38782D01*
Y41218D01*
X368620Y43570D01*
X367402Y45680D01*
X365680Y47402D01*
X363570Y48620D01*
X361218Y49250D01*
D02*
G37*
G36*
X344250D02*
X325750D01*
Y30750D01*
X344250D01*
Y49250D01*
D02*
G37*
%LPD*%
G36*
X266588Y214473D02*
X266845Y211056D01*
X266999Y210160D01*
X267187Y209386D01*
X267410Y208733D01*
X267666Y208203D01*
X267958Y207793D01*
X268283Y207506D01*
X254504Y208957D01*
X254897Y209172D01*
X255248Y209493D01*
X255558Y209920D01*
X255827Y210451D01*
X256054Y211089D01*
X256240Y211831D01*
X256385Y212679D01*
X256488Y213632D01*
X256571Y215855D01*
X266571D01*
X266588Y214473D01*
D02*
G37*
G36*
X275034Y193337D02*
X275171Y191879D01*
X275408Y190474D01*
X275746Y189125D01*
X276186Y187830D01*
X276726Y186589D01*
X277368Y185403D01*
X278111Y184271D01*
X278955Y183194D01*
X279900Y182172D01*
X272828Y175100D01*
X271806Y176045D01*
X270728Y176889D01*
X269597Y177632D01*
X268411Y178274D01*
X267170Y178814D01*
X265875Y179254D01*
X264526Y179592D01*
X263121Y179829D01*
X261663Y179966D01*
X260150Y180001D01*
X274999Y194850D01*
X275034Y193337D01*
D02*
G37*
G36*
X594579Y349002D02*
X595231Y348529D01*
X595891Y348112D01*
X596559Y347751D01*
X597236Y347445D01*
X597920Y347195D01*
X598613Y347000D01*
X599021Y346919D01*
X599083Y346924D01*
X599644Y347021D01*
X600119Y347141D01*
X600509Y347282D01*
X600813Y347445D01*
X601031Y347630D01*
X601164Y347836D01*
X601157Y339262D01*
X601105Y339734D01*
X600951Y340158D01*
X600692Y340531D01*
X600330Y340854D01*
X599865Y341128D01*
X599295Y341352D01*
X598623Y341526D01*
X598042Y341619D01*
X597735Y341590D01*
X597019Y341466D01*
X596330Y341306D01*
X595667Y341111D01*
X595030Y340881D01*
X594420Y340615D01*
X593837Y340313D01*
X593280Y339976D01*
X593934Y349530D01*
X594579Y349002D01*
D02*
G37*
G36*
X609025Y347487D02*
X609286Y347175D01*
X609622Y346900D01*
X610030Y346661D01*
X610511Y346459D01*
X611066Y346294D01*
X611694Y346165D01*
X612390Y346074D01*
X613306Y346165D01*
X613934Y346294D01*
X614489Y346459D01*
X614970Y346661D01*
X615378Y346900D01*
X615714Y347175D01*
X615975Y347487D01*
X616164Y347836D01*
Y339164D01*
X615975Y339513D01*
X615714Y339825D01*
X615378Y340100D01*
X614970Y340339D01*
X614489Y340541D01*
X613934Y340706D01*
X613306Y340835D01*
X612610Y340926D01*
X611694Y340835D01*
X611066Y340706D01*
X610511Y340541D01*
X610030Y340339D01*
X609622Y340100D01*
X609286Y339825D01*
X609025Y339513D01*
X608836Y339164D01*
Y347836D01*
X609025Y347487D01*
D02*
G37*
G36*
X454000Y319000D02*
Y300000D01*
X452000Y298000D01*
X398000D01*
Y298000D01*
X396000Y300000D01*
Y319000D01*
X398000Y321000D01*
X452000D01*
X454000Y319000D01*
D02*
G37*
G36*
X530655Y270108D02*
X530570Y269983D01*
X530495Y269840D01*
X530430Y269679D01*
X530375Y269500D01*
X530330Y269303D01*
X530295Y269088D01*
X530270Y268855D01*
X530250Y268335D01*
X527750D01*
X527745Y268604D01*
X527705Y269088D01*
X527670Y269303D01*
X527625Y269500D01*
X527570Y269679D01*
X527505Y269840D01*
X527430Y269983D01*
X527345Y270108D01*
X527250Y270215D01*
X530750D01*
X530655Y270108D01*
D02*
G37*
G36*
X530262Y266036D02*
X530300Y265605D01*
X530363Y265226D01*
X530450Y264897D01*
X530563Y264618D01*
X530700Y264391D01*
X530863Y264214D01*
X531050Y264087D01*
X531263Y264011D01*
X531500Y263986D01*
X526500D01*
X526738Y264011D01*
X526950Y264087D01*
X527137Y264214D01*
X527300Y264391D01*
X527438Y264618D01*
X527550Y264897D01*
X527637Y265226D01*
X527700Y265605D01*
X527738Y266036D01*
X527750Y266516D01*
X530250D01*
X530262Y266036D01*
D02*
G37*
G36*
X539546Y257500D02*
X539413Y257738D01*
X539246Y257950D01*
X539043Y258137D01*
X538804Y258300D01*
X538531Y258438D01*
X538222Y258550D01*
X537877Y258638D01*
X537497Y258700D01*
X537082Y258738D01*
X536632Y258750D01*
Y261250D01*
X537082Y261262D01*
X537497Y261300D01*
X537877Y261362D01*
X538222Y261450D01*
X538531Y261562D01*
X538804Y261700D01*
X539043Y261863D01*
X539246Y262050D01*
X539413Y262262D01*
X539546Y262500D01*
Y257500D01*
D02*
G37*
G36*
X533011Y262262D02*
X533087Y262050D01*
X533214Y261863D01*
X533391Y261700D01*
X533619Y261562D01*
X533897Y261450D01*
X534226Y261362D01*
X534605Y261300D01*
X535036Y261262D01*
X535516Y261250D01*
Y258750D01*
X535036Y258738D01*
X534605Y258700D01*
X534226Y258638D01*
X533897Y258550D01*
X533619Y258438D01*
X533391Y258300D01*
X533214Y258137D01*
X533087Y257950D01*
X533011Y257738D01*
X532986Y257500D01*
Y262500D01*
X533011Y262262D01*
D02*
G37*
G36*
X479546Y197500D02*
X479413Y197738D01*
X479246Y197950D01*
X479043Y198137D01*
X478804Y198300D01*
X478531Y198438D01*
X478222Y198550D01*
X477877Y198638D01*
X477497Y198700D01*
X477082Y198738D01*
X476632Y198750D01*
Y201250D01*
X477082Y201262D01*
X477497Y201300D01*
X477877Y201362D01*
X478222Y201450D01*
X478531Y201562D01*
X478804Y201700D01*
X479043Y201863D01*
X479246Y202050D01*
X479413Y202262D01*
X479546Y202500D01*
Y197500D01*
D02*
G37*
G36*
X473011Y202262D02*
X473087Y202050D01*
X473214Y201863D01*
X473391Y201700D01*
X473619Y201562D01*
X473897Y201450D01*
X474226Y201362D01*
X474605Y201300D01*
X475036Y201262D01*
X475516Y201250D01*
Y198750D01*
X475036Y198738D01*
X474605Y198700D01*
X474226Y198638D01*
X473897Y198550D01*
X473619Y198438D01*
X473391Y198300D01*
X473214Y198137D01*
X473087Y197950D01*
X473011Y197738D01*
X472986Y197500D01*
Y202500D01*
X473011Y202262D01*
D02*
G37*
G36*
X470262Y195989D02*
X470050Y195913D01*
X469863Y195786D01*
X469700Y195609D01*
X469562Y195381D01*
X469450Y195103D01*
X469362Y194774D01*
X469300Y194395D01*
X469277Y194130D01*
X469295Y193912D01*
X469330Y193697D01*
X469375Y193500D01*
X469430Y193321D01*
X469495Y193160D01*
X469570Y193017D01*
X469655Y192892D01*
X469750Y192785D01*
X466250D01*
X466345Y192892D01*
X466430Y193017D01*
X466505Y193160D01*
X466570Y193321D01*
X466625Y193500D01*
X466670Y193697D01*
X466705Y193912D01*
X466725Y194103D01*
X466700Y194395D01*
X466637Y194774D01*
X466550Y195103D01*
X466437Y195381D01*
X466300Y195609D01*
X466138Y195786D01*
X465950Y195913D01*
X465737Y195989D01*
X465500Y196014D01*
X470500D01*
X470262Y195989D01*
D02*
G37*
G36*
X479546Y177500D02*
X479413Y177738D01*
X479246Y177950D01*
X479043Y178137D01*
X478804Y178300D01*
X478531Y178438D01*
X478222Y178550D01*
X477877Y178638D01*
X477497Y178700D01*
X477082Y178738D01*
X476632Y178750D01*
Y181250D01*
X477082Y181262D01*
X477497Y181300D01*
X477877Y181362D01*
X478222Y181450D01*
X478531Y181562D01*
X478804Y181700D01*
X479043Y181863D01*
X479246Y182050D01*
X479413Y182262D01*
X479546Y182500D01*
Y177500D01*
D02*
G37*
G36*
X473011Y182262D02*
X473087Y182050D01*
X473214Y181863D01*
X473391Y181700D01*
X473619Y181562D01*
X473897Y181450D01*
X474226Y181362D01*
X474605Y181300D01*
X475036Y181262D01*
X475516Y181250D01*
Y178750D01*
X475036Y178738D01*
X474605Y178700D01*
X474226Y178638D01*
X473897Y178550D01*
X473619Y178438D01*
X473391Y178300D01*
X473214Y178137D01*
X473087Y177950D01*
X473011Y177738D01*
X472986Y177500D01*
Y182500D01*
X473011Y182262D01*
D02*
G37*
G36*
X447185Y180332D02*
X447309Y180276D01*
X447451Y180226D01*
X447612Y180183D01*
X447792Y180147D01*
X448206Y180094D01*
X448442Y180077D01*
X448968Y180064D01*
X449539Y177564D01*
X449271Y177558D01*
X448794Y177510D01*
X448585Y177467D01*
X448396Y177413D01*
X448227Y177346D01*
X448077Y177268D01*
X447948Y177177D01*
X447838Y177074D01*
X447749Y176960D01*
X447079Y180395D01*
X447185Y180332D01*
D02*
G37*
G36*
X470262Y175989D02*
X470050Y175913D01*
X469863Y175786D01*
X469700Y175609D01*
X469562Y175381D01*
X469450Y175103D01*
X469362Y174774D01*
X469300Y174394D01*
X469277Y174130D01*
X469295Y173912D01*
X469330Y173697D01*
X469375Y173500D01*
X469430Y173321D01*
X469495Y173160D01*
X469570Y173017D01*
X469655Y172892D01*
X469750Y172785D01*
X466250D01*
X466345Y172892D01*
X466430Y173017D01*
X466505Y173160D01*
X466570Y173321D01*
X466625Y173500D01*
X466670Y173697D01*
X466705Y173912D01*
X466725Y174103D01*
X466700Y174394D01*
X466637Y174774D01*
X466550Y175103D01*
X466437Y175381D01*
X466300Y175609D01*
X466138Y175786D01*
X465950Y175913D01*
X465737Y175989D01*
X465500Y176014D01*
X470500D01*
X470262Y175989D01*
D02*
G37*
G36*
X357505Y155427D02*
X357621Y153740D01*
X357674Y153468D01*
X357737Y153257D01*
X357809Y153106D01*
X357892Y153016D01*
X357984Y152986D01*
X352016D01*
X352108Y153016D01*
X352191Y153106D01*
X352263Y153257D01*
X352326Y153468D01*
X352379Y153740D01*
X352423Y154071D01*
X352481Y154915D01*
X352500Y156000D01*
X357500D01*
X357505Y155427D01*
D02*
G37*
G36*
X364215Y129250D02*
X364108Y129345D01*
X363983Y129430D01*
X363840Y129505D01*
X363679Y129570D01*
X363500Y129625D01*
X363303Y129670D01*
X363088Y129705D01*
X362855Y129730D01*
X362335Y129750D01*
Y132250D01*
X362604Y132255D01*
X363088Y132295D01*
X363303Y132330D01*
X363500Y132375D01*
X363679Y132430D01*
X363840Y132495D01*
X363983Y132570D01*
X364108Y132655D01*
X364215Y132750D01*
Y129250D01*
D02*
G37*
G36*
X359011Y133263D02*
X359087Y133050D01*
X359214Y132863D01*
X359391Y132700D01*
X359619Y132563D01*
X359897Y132450D01*
X360226Y132362D01*
X360606Y132300D01*
X361036Y132262D01*
X361516Y132250D01*
Y129750D01*
X361036Y129738D01*
X360606Y129700D01*
X360226Y129637D01*
X359897Y129550D01*
X359619Y129438D01*
X359391Y129300D01*
X359214Y129137D01*
X359087Y128950D01*
X359011Y128737D01*
X358986Y128500D01*
Y133500D01*
X359011Y133263D01*
D02*
G37*
G36*
X332505Y155427D02*
X332621Y153739D01*
X332674Y153468D01*
X332737Y153257D01*
X332809Y153106D01*
X332892Y153016D01*
X332984Y152986D01*
X327016D01*
X327108Y153016D01*
X327191Y153106D01*
X327263Y153257D01*
X327326Y153468D01*
X327379Y153739D01*
X327423Y154071D01*
X327481Y154915D01*
X327500Y156000D01*
X332500D01*
X332505Y155427D01*
D02*
G37*
G36*
X333878Y130796D02*
X333854Y130526D01*
X333912Y130208D01*
X334052Y129841D01*
X334276Y129426D01*
X334582Y128964D01*
X334971Y128453D01*
X335997Y127288D01*
X336634Y126634D01*
X334516Y125216D01*
X333979Y125736D01*
X333026Y126550D01*
X332611Y126843D01*
X332237Y127061D01*
X331904Y127203D01*
X331612Y127269D01*
X331361Y127260D01*
X331150Y127175D01*
X330981Y127014D01*
X333986Y131019D01*
X333878Y130796D01*
D02*
G37*
G36*
X386215Y114250D02*
X386108Y114345D01*
X385983Y114430D01*
X385840Y114505D01*
X385679Y114570D01*
X385500Y114625D01*
X385303Y114670D01*
X385088Y114705D01*
X384855Y114730D01*
X384335Y114750D01*
Y117250D01*
X384604Y117255D01*
X385088Y117295D01*
X385303Y117330D01*
X385500Y117375D01*
X385679Y117430D01*
X385840Y117495D01*
X385983Y117570D01*
X386108Y117655D01*
X386215Y117750D01*
Y114250D01*
D02*
G37*
G36*
X524975Y161500D02*
X524832Y161492D01*
X524684Y161463D01*
X524529Y161415D01*
X524370Y161347D01*
X524204Y161260D01*
X524033Y161152D01*
X523856Y161025D01*
X523674Y160878D01*
X523292Y160525D01*
X521525Y162292D01*
X521711Y162486D01*
X522025Y162856D01*
X522152Y163033D01*
X522260Y163204D01*
X522347Y163370D01*
X522415Y163529D01*
X522463Y163684D01*
X522492Y163832D01*
X522500Y163975D01*
X524975Y161500D01*
D02*
G37*
G36*
X501019Y61014D02*
X500797Y61122D01*
X500526Y61146D01*
X500208Y61089D01*
X499841Y60948D01*
X499426Y60724D01*
X498964Y60418D01*
X498453Y60029D01*
X497288Y59003D01*
X496634Y58366D01*
X495216Y60484D01*
X495736Y61021D01*
X496550Y61974D01*
X496843Y62389D01*
X497061Y62763D01*
X497203Y63096D01*
X497269Y63388D01*
X497260Y63639D01*
X497175Y63850D01*
X497014Y64019D01*
X501019Y61014D01*
D02*
G37*
G36*
X491293Y52141D02*
X491424Y51550D01*
X491642Y50928D01*
X491946Y50276D01*
X492337Y49592D01*
X492816Y48878D01*
X493382Y48133D01*
X494773Y46550D01*
X495600Y45713D01*
X484400D01*
X485227Y46550D01*
X486618Y48133D01*
X487184Y48878D01*
X487663Y49592D01*
X488054Y50276D01*
X488358Y50928D01*
X488576Y51550D01*
X488707Y52141D01*
X488750Y52702D01*
X491250D01*
X491293Y52141D01*
D02*
G37*
G36*
X594579Y129002D02*
X595231Y128529D01*
X595891Y128112D01*
X596559Y127751D01*
X597236Y127445D01*
X597920Y127195D01*
X598613Y127000D01*
X599021Y126919D01*
X599083Y126924D01*
X599644Y127022D01*
X600119Y127141D01*
X600509Y127282D01*
X600813Y127445D01*
X601031Y127630D01*
X601164Y127836D01*
X601157Y119262D01*
X601105Y119734D01*
X600951Y120157D01*
X600692Y120531D01*
X600330Y120854D01*
X599865Y121128D01*
X599295Y121352D01*
X598623Y121526D01*
X598042Y121619D01*
X597735Y121590D01*
X597019Y121466D01*
X596330Y121306D01*
X595667Y121111D01*
X595030Y120881D01*
X594420Y120615D01*
X593837Y120313D01*
X593280Y119976D01*
X593934Y129530D01*
X594579Y129002D01*
D02*
G37*
G36*
X609025Y127487D02*
X609286Y127175D01*
X609622Y126900D01*
X610030Y126661D01*
X610511Y126459D01*
X611066Y126294D01*
X611694Y126165D01*
X612390Y126074D01*
X613306Y126165D01*
X613934Y126294D01*
X614489Y126459D01*
X614970Y126661D01*
X615378Y126900D01*
X615714Y127175D01*
X615975Y127487D01*
X616164Y127836D01*
Y119164D01*
X615975Y119513D01*
X615714Y119825D01*
X615378Y120100D01*
X614970Y120339D01*
X614489Y120541D01*
X613934Y120706D01*
X613306Y120835D01*
X612610Y120926D01*
X611694Y120835D01*
X611066Y120706D01*
X610511Y120541D01*
X610030Y120339D01*
X609622Y120100D01*
X609286Y119825D01*
X609025Y119513D01*
X608836Y119164D01*
Y127836D01*
X609025Y127487D01*
D02*
G37*
G36*
X504975Y161500D02*
X504832Y161492D01*
X504684Y161463D01*
X504529Y161415D01*
X504370Y161347D01*
X504204Y161260D01*
X504033Y161152D01*
X503856Y161025D01*
X503674Y160878D01*
X503292Y160525D01*
X501525Y162292D01*
X501711Y162486D01*
X502025Y162856D01*
X502152Y163033D01*
X502260Y163204D01*
X502347Y163370D01*
X502415Y163529D01*
X502463Y163684D01*
X502492Y163832D01*
X502500Y163975D01*
X504975Y161500D01*
D02*
G37*
G36*
X485155Y74608D02*
X485070Y74483D01*
X484995Y74340D01*
X484930Y74179D01*
X484875Y74000D01*
X484830Y73803D01*
X484795Y73588D01*
X484770Y73355D01*
X484750Y72835D01*
X482250D01*
X482245Y73104D01*
X482205Y73588D01*
X482170Y73803D01*
X482125Y74000D01*
X482070Y74179D01*
X482005Y74340D01*
X481930Y74483D01*
X481845Y74608D01*
X481750Y74715D01*
X485250D01*
X485155Y74608D01*
D02*
G37*
G36*
X484762Y71036D02*
X484800Y70605D01*
X484863Y70226D01*
X484950Y69897D01*
X485062Y69619D01*
X485200Y69391D01*
X485363Y69214D01*
X485550Y69087D01*
X485762Y69011D01*
X486000Y68986D01*
X481000D01*
X481237Y69011D01*
X481450Y69087D01*
X481637Y69214D01*
X481800Y69391D01*
X481937Y69619D01*
X482050Y69897D01*
X482137Y70226D01*
X482200Y70605D01*
X482238Y71036D01*
X482250Y71516D01*
X484750D01*
X484762Y71036D01*
D02*
G37*
G36*
X467762D02*
X467800Y70605D01*
X467863Y70226D01*
X467950Y69897D01*
X468063Y69619D01*
X468200Y69391D01*
X468363Y69214D01*
X468550Y69087D01*
X468763Y69011D01*
X469000Y68986D01*
X464000D01*
X464238Y69011D01*
X464450Y69087D01*
X464637Y69214D01*
X464800Y69391D01*
X464938Y69619D01*
X465050Y69897D01*
X465137Y70226D01*
X465200Y70605D01*
X465238Y71036D01*
X465250Y71516D01*
X467750D01*
X467762Y71036D01*
D02*
G37*
G36*
X468763Y60989D02*
X468550Y60913D01*
X468363Y60786D01*
X468200Y60609D01*
X468063Y60381D01*
X467950Y60103D01*
X467863Y59774D01*
X467800Y59394D01*
X467762Y58964D01*
X467750Y58484D01*
X465250D01*
X465238Y58964D01*
X465200Y59394D01*
X465137Y59774D01*
X465050Y60103D01*
X464938Y60381D01*
X464800Y60609D01*
X464637Y60786D01*
X464450Y60913D01*
X464238Y60989D01*
X464000Y61014D01*
X469000D01*
X468763Y60989D01*
D02*
G37*
G36*
X467762Y49989D02*
X467800Y49559D01*
X467863Y49179D01*
X467950Y48850D01*
X468063Y48572D01*
X468200Y48344D01*
X468363Y48167D01*
X468550Y48040D01*
X468763Y47964D01*
X469000Y47939D01*
X467754D01*
X467755Y47733D01*
X468004Y43971D01*
X468082Y43649D01*
X468170Y43414D01*
X468269Y43267D01*
X464731D01*
X464830Y43414D01*
X464918Y43649D01*
X464996Y43971D01*
X465063Y44380D01*
X465167Y45459D01*
X465245Y47733D01*
X465246Y47939D01*
X464000D01*
X464238Y47964D01*
X464450Y48040D01*
X464637Y48167D01*
X464800Y48344D01*
X464938Y48572D01*
X465050Y48850D01*
X465137Y49179D01*
X465200Y49559D01*
X465238Y49989D01*
X465250Y50469D01*
X467750D01*
X467762Y49989D01*
D02*
G37*
D14*
X450314Y178814D02*
X451500Y180000D01*
X446140Y178814D02*
X450314D01*
X445662Y178336D02*
X446140Y178814D01*
X330000Y131000D02*
Y131500D01*
Y131000D02*
X332750Y128250D01*
X333250D01*
X345500Y116000D01*
X388000D01*
X355000Y131500D02*
X355500Y131000D01*
X366000D01*
X528500Y260000D02*
X545000D01*
X528500D02*
X529000Y260500D01*
Y272000D01*
X483500Y65000D02*
Y76500D01*
X518000Y65000D02*
X518500D01*
X515250Y67750D02*
X518000Y65000D01*
X515000Y69215D02*
Y154000D01*
X515250Y67750D02*
Y68965D01*
X515000Y69215D02*
X515250Y68965D01*
X515000Y154000D02*
X525000Y164000D01*
X466500Y125500D02*
X505000Y164000D01*
X466500Y65000D02*
Y125500D01*
X468000Y179500D02*
X468500Y180000D01*
X468000Y171000D02*
Y179500D01*
Y199500D02*
X468500Y200000D01*
X468000Y191000D02*
Y199500D01*
X468500Y200000D02*
X485000D01*
X468500Y180000D02*
X485000D01*
X501000Y65000D02*
X501500D01*
X498250Y62250D02*
X501000Y65000D01*
X498250Y61750D02*
Y62250D01*
X490000Y53500D02*
X498250Y61750D01*
X490000Y40000D02*
Y53500D01*
X466500Y41500D02*
Y65000D01*
D17*
X700496Y358364D02*
Y383355D01*
X688000Y370860D01*
X704661D01*
X712992D02*
X729653D01*
X737984Y383355D02*
Y358364D01*
X750480D01*
X754645Y362529D01*
Y366694D01*
X750480Y370860D01*
X737984D01*
X750480D01*
X754645Y375025D01*
Y379190D01*
X750480Y383355D01*
X737984D01*
X775472D02*
X767141D01*
X762976Y379190D01*
Y362529D01*
X767141Y358364D01*
X775472D01*
X779637Y362529D01*
Y379190D01*
X775472Y383355D01*
X787968D02*
X804629D01*
X796298D01*
Y358364D01*
X812960Y383355D02*
X829621D01*
X821290D01*
Y358364D01*
X850447Y383355D02*
X842117D01*
X837952Y379190D01*
Y362529D01*
X842117Y358364D01*
X850447D01*
X854613Y362529D01*
Y379190D01*
X850447Y383355D01*
X862943Y358364D02*
Y383355D01*
X871274Y375025D01*
X879605Y383355D01*
Y358364D01*
D29*
X405000Y284500D02*
D03*
Y305500D02*
D03*
X425000Y284500D02*
D03*
Y305500D02*
D03*
X445000Y284500D02*
D03*
Y305500D02*
D03*
D34*
X468500Y200000D02*
D03*
X451500D02*
D03*
X451500Y180000D02*
D03*
X468500D02*
D03*
X511500Y260000D02*
D03*
X528500D02*
D03*
X518500Y65000D02*
D03*
X501500D02*
D03*
X483500D02*
D03*
X466500D02*
D03*
D64*
X590000Y345000D02*
D03*
Y125000D02*
D03*
X545000Y260000D02*
D03*
X485000Y180000D02*
D03*
Y200000D02*
D03*
D67*
X511000Y254000D02*
X511500Y254500D01*
Y260000D01*
X590750Y124250D02*
X604250D01*
X590750Y344250D02*
X604250D01*
X620000Y321000D02*
Y326500D01*
X605000Y321000D02*
Y326500D01*
X598750Y345750D02*
X599000Y346000D01*
X604250Y344250D02*
X605000Y343500D01*
X590000Y345000D02*
X590750Y344250D01*
X605000Y343500D02*
X620000D01*
X605000Y343500D02*
X605000Y343500D01*
X355000Y148500D02*
Y156000D01*
X330000Y148500D02*
Y156000D01*
X465000Y40000D02*
X466500Y41500D01*
X620000Y101000D02*
Y106500D01*
X605000Y101000D02*
Y106500D01*
X604250Y124250D02*
X605000Y123500D01*
X590000Y125000D02*
X590750Y124250D01*
X620000Y123500D02*
X620000Y123500D01*
X605000Y123500D02*
X620000D01*
D69*
X260000Y195000D02*
X261571Y196571D01*
Y215855D02*
X402772Y357057D01*
X261571Y196571D02*
Y215855D01*
X402772Y357057D02*
X541772D01*
X260000Y195000D02*
X308228Y146772D01*
Y92943D02*
Y146772D01*
D71*
X260000Y145000D02*
D03*
X41604Y277000D02*
D03*
D72*
X260000Y195000D02*
D03*
X41604Y177000D02*
D03*
Y227000D02*
D03*
D73*
X502700Y100000D02*
D03*
X477300Y100000D02*
D03*
X451900D02*
D03*
D74*
X528100Y100000D02*
D03*
D75*
X490000Y410000D02*
D03*
X465000D02*
D03*
X350000D02*
D03*
X325000D02*
D03*
X490000Y40000D02*
D03*
X515000D02*
D03*
X360000D02*
D03*
X385000D02*
D03*
D76*
X515000Y410000D02*
D03*
X375000D02*
D03*
X465000Y40000D02*
D03*
X335000D02*
D03*
D77*
X16104Y332000D02*
D03*
X67104D02*
D03*
D78*
X600000Y400000D02*
D03*
X250000Y400000D02*
D03*
X600000Y50000D02*
D03*
X250000D02*
D03*
D79*
X511000Y254000D02*
D03*
X500000Y366000D02*
D03*
X308228Y92943D02*
D03*
X541772Y357057D02*
D03*
X402772D02*
D03*
X360500Y364000D02*
D03*
X292000Y319000D02*
D03*
Y331000D02*
D03*
X275000Y288000D02*
D03*
X290000D02*
D03*
X305000D02*
D03*
Y275000D02*
D03*
X290000D02*
D03*
X275000D02*
D03*
X445662Y178336D02*
D03*
X350500Y86000D02*
D03*
X388000Y116000D02*
D03*
X366000Y131000D02*
D03*
X529000Y272000D02*
D03*
X483500Y76500D02*
D03*
X505000Y164000D02*
D03*
X525000D02*
D03*
X468000Y171000D02*
D03*
Y191000D02*
D03*
X430000Y315000D02*
D03*
X419667D02*
D03*
X409333D02*
D03*
X399000D02*
D03*
X620000Y321000D02*
D03*
X605000Y321000D02*
D03*
X598750Y345750D02*
D03*
X355000Y156000D02*
D03*
X330000D02*
D03*
X620000Y101000D02*
D03*
X605000D02*
D03*
X599000Y126000D02*
D03*
D81*
X605000Y106500D02*
D03*
Y123500D02*
D03*
X620000Y326500D02*
D03*
Y343500D02*
D03*
X355000Y148500D02*
D03*
Y131500D02*
D03*
X330000Y148500D02*
D03*
Y131500D02*
D03*
X620000Y106500D02*
D03*
Y123500D02*
D03*
X605000Y326500D02*
D03*
Y343500D02*
D03*
M02*
