G04*
G04 #@! TF.GenerationSoftware,Altium Limited,Altium Designer,23.4.1 (23)*
G04*
G04 Layer_Physical_Order=1*
G04 Layer_Color=255*
%FSLAX44Y44*%
%MOMM*%
G71*
G04*
G04 #@! TF.SameCoordinates,AC87B314-1984-4FFE-BA22-F28876D7C55D*
G04*
G04*
G04 #@! TF.FilePolarity,Positive*
G04*
G01*
G75*
%ADD14C,0.2500*%
%ADD17C,0.4000*%
%ADD28R,0.9906X0.7112*%
G04:AMPARAMS|DCode=29|XSize=0.9mm|YSize=1.4mm|CornerRadius=0.0675mm|HoleSize=0mm|Usage=FLASHONLY|Rotation=270.000|XOffset=0mm|YOffset=0mm|HoleType=Round|Shape=RoundedRectangle|*
%AMROUNDEDRECTD29*
21,1,0.9000,1.2650,0,0,270.0*
21,1,0.7650,1.4000,0,0,270.0*
1,1,0.1350,-0.6325,-0.3825*
1,1,0.1350,-0.6325,0.3825*
1,1,0.1350,0.6325,0.3825*
1,1,0.1350,0.6325,-0.3825*
%
%ADD29ROUNDEDRECTD29*%
G04:AMPARAMS|DCode=30|XSize=1.5mm|YSize=2mm|CornerRadius=0.1875mm|HoleSize=0mm|Usage=FLASHONLY|Rotation=270.000|XOffset=0mm|YOffset=0mm|HoleType=Round|Shape=RoundedRectangle|*
%AMROUNDEDRECTD30*
21,1,1.5000,1.6250,0,0,270.0*
21,1,1.1250,2.0000,0,0,270.0*
1,1,0.3750,-0.8125,-0.5625*
1,1,0.3750,-0.8125,0.5625*
1,1,0.3750,0.8125,0.5625*
1,1,0.3750,0.8125,-0.5625*
%
%ADD30ROUNDEDRECTD30*%
G04:AMPARAMS|DCode=31|XSize=3.8mm|YSize=2mm|CornerRadius=0.05mm|HoleSize=0mm|Usage=FLASHONLY|Rotation=270.000|XOffset=0mm|YOffset=0mm|HoleType=Round|Shape=RoundedRectangle|*
%AMROUNDEDRECTD31*
21,1,3.8000,1.9000,0,0,270.0*
21,1,3.7000,2.0000,0,0,270.0*
1,1,0.1000,-0.9500,-1.8500*
1,1,0.1000,-0.9500,1.8500*
1,1,0.1000,0.9500,1.8500*
1,1,0.1000,0.9500,-1.8500*
%
%ADD31ROUNDEDRECTD31*%
G04:AMPARAMS|DCode=32|XSize=0.9mm|YSize=1.4mm|CornerRadius=0.0675mm|HoleSize=0mm|Usage=FLASHONLY|Rotation=0.000|XOffset=0mm|YOffset=0mm|HoleType=Round|Shape=RoundedRectangle|*
%AMROUNDEDRECTD32*
21,1,0.9000,1.2650,0,0,0.0*
21,1,0.7650,1.4000,0,0,0.0*
1,1,0.1350,0.3825,-0.6325*
1,1,0.1350,-0.3825,-0.6325*
1,1,0.1350,-0.3825,0.6325*
1,1,0.1350,0.3825,0.6325*
%
%ADD32ROUNDEDRECTD32*%
G04:AMPARAMS|DCode=33|XSize=0.8mm|YSize=0.9mm|CornerRadius=0.06mm|HoleSize=0mm|Usage=FLASHONLY|Rotation=90.000|XOffset=0mm|YOffset=0mm|HoleType=Round|Shape=RoundedRectangle|*
%AMROUNDEDRECTD33*
21,1,0.8000,0.7800,0,0,90.0*
21,1,0.6800,0.9000,0,0,90.0*
1,1,0.1200,0.3900,0.3400*
1,1,0.1200,0.3900,-0.3400*
1,1,0.1200,-0.3900,-0.3400*
1,1,0.1200,-0.3900,0.3400*
%
%ADD33ROUNDEDRECTD33*%
G04:AMPARAMS|DCode=34|XSize=0.9mm|YSize=0.8mm|CornerRadius=0.06mm|HoleSize=0mm|Usage=FLASHONLY|Rotation=0.000|XOffset=0mm|YOffset=0mm|HoleType=Round|Shape=RoundedRectangle|*
%AMROUNDEDRECTD34*
21,1,0.9000,0.6800,0,0,0.0*
21,1,0.7800,0.8000,0,0,0.0*
1,1,0.1200,0.3900,-0.3400*
1,1,0.1200,-0.3900,-0.3400*
1,1,0.1200,-0.3900,0.3400*
1,1,0.1200,0.3900,0.3400*
%
%ADD34ROUNDEDRECTD34*%
%ADD35R,1.2000X2.0000*%
%ADD36R,1.7000X1.1000*%
G04:AMPARAMS|DCode=37|XSize=2mm|YSize=4mm|CornerRadius=0.2mm|HoleSize=0mm|Usage=FLASHONLY|Rotation=90.000|XOffset=0mm|YOffset=0mm|HoleType=Round|Shape=RoundedRectangle|*
%AMROUNDEDRECTD37*
21,1,2.0000,3.6000,0,0,90.0*
21,1,1.6000,4.0000,0,0,90.0*
1,1,0.4000,1.8000,0.8000*
1,1,0.4000,1.8000,-0.8000*
1,1,0.4000,-1.8000,-0.8000*
1,1,0.4000,-1.8000,0.8000*
%
%ADD37ROUNDEDRECTD37*%
G04:AMPARAMS|DCode=38|XSize=3mm|YSize=4mm|CornerRadius=0.3mm|HoleSize=0mm|Usage=FLASHONLY|Rotation=90.000|XOffset=0mm|YOffset=0mm|HoleType=Round|Shape=RoundedRectangle|*
%AMROUNDEDRECTD38*
21,1,3.0000,3.4000,0,0,90.0*
21,1,2.4000,4.0000,0,0,90.0*
1,1,0.6000,1.7000,1.2000*
1,1,0.6000,1.7000,-1.2000*
1,1,0.6000,-1.7000,-1.2000*
1,1,0.6000,-1.7000,1.2000*
%
%ADD38ROUNDEDRECTD38*%
%ADD63R,1.0000X0.9000*%
%ADD64C,1.2000*%
%ADD65R,0.5000X1.0000*%
%ADD66R,0.9000X1.0000*%
%ADD67C,0.5000*%
%ADD68C,1.5000*%
%ADD69C,1.0000*%
%ADD70C,0.3810*%
%ADD71R,3.0000X3.0000*%
%ADD72C,3.0000*%
%ADD73C,1.5000*%
%ADD74R,1.5000X1.5000*%
%ADD75C,1.6000*%
%ADD76R,1.6000X1.6000*%
%ADD77C,2.0000*%
%ADD78C,7.0000*%
%ADD79C,0.5000*%
G36*
X119139Y310891D02*
X119048Y311197D01*
X118774Y311470D01*
X118317Y311712D01*
X117677Y311921D01*
X116854Y312098D01*
X115849Y312243D01*
X113290Y312436D01*
X110000Y312500D01*
Y327500D01*
X111736Y327516D01*
X116854Y327902D01*
X117677Y328079D01*
X118317Y328288D01*
X118774Y328530D01*
X119048Y328803D01*
X119139Y329109D01*
Y310891D01*
D02*
G37*
G36*
X29698Y299617D02*
X35187Y294962D01*
X37612Y293267D01*
X39824Y291992D01*
X41824Y291139D01*
X43611Y290707D01*
X45185Y290697D01*
X46547Y291107D01*
X47695Y291939D01*
X26665Y270909D01*
X27497Y272057D01*
X27907Y273419D01*
X27897Y274993D01*
X27465Y276780D01*
X26612Y278780D01*
X25337Y280992D01*
X23642Y283417D01*
X21525Y286055D01*
X16028Y291970D01*
X26635Y302576D01*
X29698Y299617D01*
D02*
G37*
G36*
X145822Y260035D02*
X144358Y260581D01*
X142630Y260651D01*
X140638Y260245D01*
X138382Y259364D01*
X135862Y258008D01*
X133079Y256176D01*
X130031Y253869D01*
X123145Y247828D01*
X119306Y244095D01*
X108502Y254505D01*
X111722Y257831D01*
X116725Y263679D01*
X118507Y266202D01*
X119811Y268457D01*
X120635Y270445D01*
X120980Y272165D01*
X120845Y273617D01*
X120232Y274801D01*
X119139Y275718D01*
X145822Y260035D01*
D02*
G37*
G36*
X305000Y335000D02*
X307000Y333000D01*
Y311000D01*
X309000Y309000D01*
X362000D01*
X364000Y307000D01*
Y208000D01*
X362000Y206000D01*
X299000D01*
X297000Y208000D01*
Y268000D01*
X295000Y270000D01*
X248000D01*
X246000Y272000D01*
X246000Y290000D01*
X248000Y292000D01*
X277000D01*
X279000Y294000D01*
Y333000D01*
X281000Y335000D01*
X305000Y335000D01*
D02*
G37*
G36*
X360000Y200000D02*
X358000Y201250D01*
X355000Y203250D01*
X352000Y201250D01*
X350000Y200000D01*
Y205000D01*
X360000D01*
Y200000D01*
D02*
G37*
G36*
X335000Y200000D02*
X333000Y201250D01*
X330000Y203250D01*
X327000Y201250D01*
X325000Y200000D01*
Y205000D01*
X335000D01*
Y200000D01*
D02*
G37*
G36*
X358000Y198500D02*
X360000Y197250D01*
Y195000D01*
X350000D01*
Y197250D01*
X352000Y198500D01*
X355000Y200500D01*
X358000Y198500D01*
D02*
G37*
G36*
X333000Y198500D02*
X335000Y197250D01*
Y195000D01*
X325000D01*
Y197250D01*
X327000Y198500D01*
X330000Y200500D01*
X333000Y198500D01*
D02*
G37*
G36*
X359501Y186980D02*
X359081Y186830D01*
X358711Y186580D01*
X358390Y186230D01*
X358118Y185780D01*
X357896Y185230D01*
X357723Y184580D01*
X357663Y184218D01*
X357666Y184194D01*
X357794Y183566D01*
X357959Y183011D01*
X358161Y182530D01*
X358400Y182121D01*
X358675Y181786D01*
X358987Y181525D01*
X359336Y181336D01*
X350664D01*
X351013Y181525D01*
X351325Y181786D01*
X351601Y182122D01*
X351839Y182530D01*
X352041Y183011D01*
X352207Y183566D01*
X352335Y184194D01*
X352338Y184216D01*
X352278Y184580D01*
X352105Y185230D01*
X351883Y185780D01*
X351612Y186230D01*
X351291Y186580D01*
X350920Y186830D01*
X350500Y186980D01*
X350031Y187030D01*
X359970D01*
X359501Y186980D01*
D02*
G37*
G36*
X334501D02*
X334081Y186830D01*
X333711Y186580D01*
X333390Y186230D01*
X333118Y185780D01*
X332896Y185230D01*
X332723Y184580D01*
X332663Y184218D01*
X332666Y184194D01*
X332794Y183566D01*
X332959Y183011D01*
X333161Y182530D01*
X333400Y182121D01*
X333675Y181786D01*
X333987Y181525D01*
X334336Y181336D01*
X325664D01*
X326013Y181525D01*
X326325Y181786D01*
X326601Y182122D01*
X326839Y182530D01*
X327041Y183011D01*
X327207Y183566D01*
X327335Y184194D01*
X327338Y184216D01*
X327278Y184580D01*
X327105Y185230D01*
X326883Y185780D01*
X326612Y186230D01*
X326291Y186580D01*
X325920Y186830D01*
X325500Y186980D01*
X325031Y187030D01*
X334970D01*
X334501Y186980D01*
D02*
G37*
G36*
X62457Y187246D02*
X61337Y186084D01*
X59454Y183862D01*
X58690Y182801D01*
X58046Y181774D01*
X57520Y180782D01*
X57112Y179823D01*
X56824Y178898D01*
X56654Y178007D01*
X56603Y177150D01*
X41754Y191999D01*
X42611Y192050D01*
X43502Y192220D01*
X44427Y192509D01*
X45386Y192916D01*
X46378Y193442D01*
X47405Y194086D01*
X48465Y194850D01*
X49560Y195732D01*
X51850Y197853D01*
X62457Y187246D01*
D02*
G37*
G36*
X247000Y268000D02*
X280000Y268000D01*
X282000Y266000D01*
Y180000D01*
X280000Y178000D01*
X251083D01*
X250403Y177632D01*
X249271Y176889D01*
X248194Y176045D01*
X247172Y175100D01*
X244272Y178000D01*
X219000D01*
X217000Y180000D01*
Y274000D01*
X219000Y276000D01*
X239000D01*
X247000Y268000D01*
D02*
G37*
G36*
X486263Y161989D02*
X486300Y161559D01*
X486362Y161179D01*
X486450Y160850D01*
X486562Y160572D01*
X486700Y160344D01*
X486862Y160167D01*
X487050Y160040D01*
X487262Y159964D01*
X487500Y159939D01*
X482500D01*
X482738Y159964D01*
X482950Y160040D01*
X483138Y160167D01*
X483300Y160344D01*
X483438Y160572D01*
X483550Y160850D01*
X483638Y161179D01*
X483700Y161559D01*
X483737Y161989D01*
X483750Y162470D01*
X486250D01*
X486263Y161989D01*
D02*
G37*
G36*
X600000Y450000D02*
X600000Y450000D01*
X603277D01*
X609775Y449144D01*
X616106Y447448D01*
X622162Y444940D01*
X627838Y441663D01*
X633038Y437673D01*
X637673Y433038D01*
X641663Y427838D01*
X644940Y422162D01*
X647448Y416106D01*
X649144Y409775D01*
X650000Y403277D01*
X650000Y400000D01*
X650000Y306443D01*
X580096D01*
X579139Y306047D01*
X578743Y305090D01*
Y173690D01*
X576743Y172862D01*
X571802Y177802D01*
X570975Y178355D01*
X570000Y178549D01*
X490000D01*
X489025Y178355D01*
X488198Y177802D01*
X483198Y172802D01*
X482645Y171975D01*
X482451Y171000D01*
Y162625D01*
X482397Y162505D01*
X482386Y162065D01*
X482357Y161727D01*
X482313Y161463D01*
X482264Y161279D01*
X482252Y161250D01*
X477750D01*
Y138750D01*
X492250D01*
Y161250D01*
X487748D01*
X487736Y161279D01*
X487687Y161464D01*
X487643Y161727D01*
X487614Y162065D01*
X487603Y162505D01*
X487549Y162625D01*
Y169944D01*
X491056Y173451D01*
X568944D01*
X573451Y168944D01*
Y162753D01*
X572250Y161250D01*
X571451Y161250D01*
X557750D01*
Y138750D01*
X562252D01*
X562264Y138721D01*
X562313Y138537D01*
X562357Y138273D01*
X562386Y137935D01*
X562397Y137495D01*
X562451Y137375D01*
Y130056D01*
X554944Y122549D01*
X509000D01*
X508025Y122355D01*
X507198Y121802D01*
X500897Y115502D01*
X500345Y114675D01*
X500151Y113700D01*
Y112096D01*
X500100Y111996D01*
X500067Y111551D01*
X499983Y111156D01*
X499830Y110707D01*
X499602Y110205D01*
X499294Y109656D01*
X498903Y109064D01*
X498438Y108444D01*
X497218Y107049D01*
X496486Y106306D01*
X496387Y106062D01*
X495698Y105373D01*
X494546Y103378D01*
X493950Y101152D01*
Y98848D01*
X494546Y96623D01*
X495698Y94628D01*
X497327Y92998D01*
X499322Y91847D01*
X501548Y91250D01*
X503852D01*
X506077Y91847D01*
X508072Y92998D01*
X509701Y94628D01*
X510853Y96623D01*
X511450Y98848D01*
Y101152D01*
X510853Y103378D01*
X509701Y105373D01*
X509012Y106062D01*
X508913Y106306D01*
X508182Y107048D01*
X506962Y108444D01*
X506496Y109064D01*
X506105Y109656D01*
X505797Y110205D01*
X505569Y110706D01*
X505416Y111156D01*
X505332Y111551D01*
X505299Y111996D01*
X505249Y112096D01*
Y112644D01*
X510056Y117451D01*
X556000D01*
X556975Y117645D01*
X557802Y118198D01*
X566802Y127198D01*
X567355Y128025D01*
X567549Y129000D01*
Y136832D01*
X568979Y138750D01*
X572250Y138750D01*
X573451Y137247D01*
Y135000D01*
X573645Y134024D01*
X574198Y133198D01*
X583448Y123948D01*
X584274Y123395D01*
X584971Y123257D01*
X585218Y123147D01*
X585628Y123138D01*
X585943Y123112D01*
X586188Y123075D01*
X586297Y123048D01*
Y120944D01*
X598703D01*
Y122177D01*
X599000D01*
X599369Y122250D01*
X599746D01*
X600094Y122394D01*
X600463Y122468D01*
X600776Y122677D01*
X601124Y122821D01*
X601390Y123087D01*
X601704Y123296D01*
X601913Y123610D01*
X602179Y123876D01*
X602323Y124224D01*
X602532Y124537D01*
X602606Y124906D01*
X602750Y125254D01*
Y125631D01*
X602823Y126000D01*
X602750Y126369D01*
Y126746D01*
X602606Y127094D01*
X602532Y127463D01*
X602323Y127776D01*
X602179Y128124D01*
X601913Y128390D01*
X601704Y128704D01*
X601390Y128913D01*
X601124Y129179D01*
X600776Y129323D01*
X600463Y129532D01*
X600094Y129606D01*
X599746Y129750D01*
X599369D01*
X599000Y129824D01*
X598703D01*
Y130556D01*
X586297D01*
Y130556D01*
X584297Y130308D01*
X578549Y136056D01*
Y142123D01*
X580096Y143647D01*
X580549Y143647D01*
X650000D01*
X650000Y50000D01*
X650000D01*
Y46723D01*
X649144Y40225D01*
X647448Y33893D01*
X644940Y27838D01*
X641663Y22162D01*
X637673Y16962D01*
X633038Y12327D01*
X627838Y8337D01*
X622162Y5060D01*
X616106Y2552D01*
X609775Y856D01*
X603277Y0D01*
X600000D01*
X250000Y0D01*
Y0D01*
X246723D01*
X240225Y856D01*
X233894Y2552D01*
X227838Y5060D01*
X222162Y8337D01*
X216962Y12327D01*
X212327Y16962D01*
X208337Y22162D01*
X205060Y27838D01*
X202552Y33893D01*
X200856Y40225D01*
X200000Y46723D01*
Y50000D01*
Y71900D01*
X208890Y80790D01*
Y115650D01*
X219094D01*
X221532Y116135D01*
X223600Y117517D01*
X236859Y130776D01*
X238240Y132843D01*
X238725Y135282D01*
Y164713D01*
X248471Y174459D01*
X249072Y175014D01*
X250061Y175789D01*
X251098Y176469D01*
X251426Y176647D01*
X280000D01*
X280957Y177043D01*
X282957Y179043D01*
X283353Y180000D01*
Y266000D01*
X283085Y266647D01*
X283880Y268647D01*
X294440D01*
X295647Y267440D01*
Y208000D01*
X296043Y207043D01*
X298043Y205043D01*
X299000Y204647D01*
X323647D01*
Y200205D01*
X323647Y200000D01*
X323647Y200000D01*
X323791Y199653D01*
X323853Y199283D01*
X323682Y197554D01*
X323682Y197554D01*
X323708Y197397D01*
X323647Y197250D01*
X323647Y197250D01*
X323647Y197027D01*
Y195000D01*
X323751Y194749D01*
Y187292D01*
X323686Y187173D01*
X323691Y187060D01*
X323678Y187030D01*
X323751Y185749D01*
X324150D01*
X325413Y184016D01*
X325020Y182526D01*
X324893Y182370D01*
X324707Y182293D01*
X324579Y181983D01*
X324367Y181722D01*
X324375Y181648D01*
X324357Y181622D01*
X324214Y180900D01*
Y174100D01*
X324357Y173378D01*
X324766Y172766D01*
X325378Y172357D01*
X325500Y172333D01*
Y167667D01*
X325378Y167643D01*
X324766Y167234D01*
X324357Y166622D01*
X324214Y165900D01*
Y159100D01*
X324357Y158378D01*
X324766Y157766D01*
X325378Y157357D01*
X326100Y157214D01*
X326176D01*
Y156000D01*
X326250Y155631D01*
Y155254D01*
X326394Y154906D01*
X326468Y154537D01*
X326677Y154224D01*
X326821Y153876D01*
X327087Y153610D01*
X327296Y153296D01*
X327610Y153087D01*
X327876Y152821D01*
X328224Y152677D01*
X328537Y152468D01*
X328906Y152394D01*
X329254Y152250D01*
X329631D01*
X330000Y152177D01*
X330369Y152250D01*
X330746D01*
X331094Y152394D01*
X331463Y152468D01*
X331776Y152677D01*
X332124Y152821D01*
X332390Y153087D01*
X332704Y153296D01*
X332913Y153610D01*
X333179Y153876D01*
X333323Y154224D01*
X333532Y154537D01*
X333606Y154906D01*
X333750Y155254D01*
Y155631D01*
X333824Y156000D01*
Y157214D01*
X333900D01*
X334622Y157357D01*
X335234Y157766D01*
X335643Y158378D01*
X335786Y159100D01*
Y165900D01*
X335643Y166622D01*
X335234Y167234D01*
X334622Y167643D01*
X334500Y167667D01*
Y172333D01*
X334622Y172357D01*
X335234Y172766D01*
X335643Y173378D01*
X335786Y174100D01*
Y180900D01*
X335643Y181622D01*
X335625Y181648D01*
X335633Y181722D01*
X335421Y181983D01*
X335293Y182293D01*
X335107Y182370D01*
X334980Y182526D01*
X334588Y184016D01*
X335851Y185749D01*
X336251D01*
X336323Y187030D01*
X336311Y187060D01*
X336316Y187173D01*
X336251Y187292D01*
Y194753D01*
X336353Y195000D01*
Y197027D01*
X336353Y197250D01*
X336353Y197250D01*
X336304Y197470D01*
X336318Y197554D01*
X336147Y199283D01*
X336209Y199653D01*
X336353Y200000D01*
X336353Y200000D01*
X336353Y200205D01*
Y204647D01*
X348647D01*
Y200205D01*
X348647Y200000D01*
X348647Y200000D01*
X348791Y199653D01*
X348853Y199283D01*
X348682Y197554D01*
X348682Y197554D01*
X348708Y197397D01*
X348647Y197250D01*
X348647Y197250D01*
X348647Y197027D01*
Y195000D01*
X348751Y194749D01*
Y187749D01*
X348751Y187292D01*
X348686Y187173D01*
X348691Y187060D01*
X348678Y187030D01*
X348751Y185749D01*
X349150D01*
X350413Y184016D01*
X350020Y182526D01*
X349893Y182370D01*
X349707Y182293D01*
X349579Y181983D01*
X349367Y181722D01*
X349375Y181648D01*
X349357Y181622D01*
X349214Y180900D01*
Y174100D01*
X349357Y173378D01*
X349766Y172766D01*
X350378Y172357D01*
X350500Y172333D01*
Y167667D01*
X350378Y167643D01*
X349766Y167234D01*
X349357Y166622D01*
X349214Y165900D01*
Y159100D01*
X349357Y158378D01*
X349766Y157766D01*
X350378Y157357D01*
X351100Y157214D01*
X351176D01*
Y156000D01*
X351250Y155631D01*
Y155254D01*
X351394Y154906D01*
X351468Y154537D01*
X351677Y154224D01*
X351821Y153876D01*
X352087Y153610D01*
X352296Y153296D01*
X352610Y153087D01*
X352876Y152821D01*
X353224Y152677D01*
X353537Y152468D01*
X353906Y152394D01*
X354254Y152250D01*
X354631D01*
X355000Y152177D01*
X355369Y152250D01*
X355746D01*
X356094Y152394D01*
X356463Y152468D01*
X356776Y152677D01*
X357124Y152821D01*
X357390Y153087D01*
X357704Y153296D01*
X357913Y153610D01*
X358179Y153876D01*
X358323Y154224D01*
X358532Y154537D01*
X358606Y154906D01*
X358750Y155254D01*
Y155631D01*
X358824Y156000D01*
Y157214D01*
X358900D01*
X359622Y157357D01*
X360234Y157766D01*
X360643Y158378D01*
X360786Y159100D01*
Y165900D01*
X360643Y166622D01*
X360234Y167234D01*
X359622Y167643D01*
X359500Y167667D01*
Y172333D01*
X359622Y172357D01*
X360234Y172766D01*
X360643Y173378D01*
X360786Y174100D01*
Y180900D01*
X360643Y181622D01*
X360625Y181648D01*
X360633Y181722D01*
X360421Y181983D01*
X360293Y182293D01*
X360107Y182370D01*
X359980Y182526D01*
X359588Y184016D01*
X360851Y185749D01*
X361251D01*
X361323Y187030D01*
X361311Y187060D01*
X361316Y187173D01*
X361251Y187292D01*
Y194753D01*
X361353Y195000D01*
Y197027D01*
X361353Y197250D01*
X361353Y197250D01*
X361304Y197470D01*
X361318Y197554D01*
X361147Y199283D01*
X361209Y199653D01*
X361353Y200000D01*
X361353Y200000D01*
X361353Y200205D01*
Y204647D01*
X362000D01*
X362957Y205043D01*
X364957Y207043D01*
X365353Y208000D01*
Y307000D01*
X364957Y307957D01*
X362957Y309957D01*
X362000Y310353D01*
X309560D01*
X308353Y311560D01*
Y333000D01*
X307957Y333957D01*
X305957Y335957D01*
X305000Y336353D01*
X281000Y336353D01*
X280043Y335957D01*
X278043Y333957D01*
X277647Y333000D01*
Y294560D01*
X276440Y293353D01*
X248000D01*
X247043Y292957D01*
X245043Y290957D01*
X244647Y290000D01*
X244647Y274880D01*
X242799Y274114D01*
X239957Y276957D01*
X239000Y277353D01*
X219000D01*
X218043Y276957D01*
X216043Y274957D01*
X215647Y274000D01*
Y180000D01*
X216043Y179043D01*
X218043Y177043D01*
X219000Y176647D01*
X230022D01*
X230787Y174799D01*
X227847Y171859D01*
X226466Y169792D01*
X225981Y167353D01*
Y137922D01*
X216454Y128395D01*
X208890D01*
Y139210D01*
X200000Y148100D01*
X200000Y311900D01*
X208890Y320790D01*
Y379210D01*
X200000Y388100D01*
Y398116D01*
X200000Y400000D01*
X200000Y400000D01*
X200000Y400000D01*
X200000Y403277D01*
X200856Y409775D01*
X202552Y416106D01*
X205060Y422162D01*
X208337Y427838D01*
X212327Y433038D01*
X216962Y437673D01*
X222162Y441663D01*
X227838Y444940D01*
X233894Y447448D01*
X240224Y449145D01*
X246723Y450000D01*
X250000D01*
X600000Y450000D01*
X600000Y450000D01*
D02*
G37*
G36*
X567262Y140036D02*
X567050Y139960D01*
X566862Y139833D01*
X566700Y139656D01*
X566562Y139428D01*
X566450Y139150D01*
X566362Y138821D01*
X566300Y138441D01*
X566263Y138011D01*
X566250Y137530D01*
X563750D01*
X563737Y138011D01*
X563700Y138441D01*
X563638Y138821D01*
X563550Y139150D01*
X563438Y139428D01*
X563300Y139656D01*
X563138Y139833D01*
X562950Y139960D01*
X562738Y140036D01*
X562500Y140061D01*
X567500D01*
X567262Y140036D01*
D02*
G37*
G36*
X158519Y149359D02*
X158239Y148442D01*
X158242Y147383D01*
X158528Y146182D01*
X159097Y144838D01*
X159948Y143353D01*
X161083Y141726D01*
X162500Y139957D01*
X166183Y135992D01*
X159112Y128921D01*
X157059Y130904D01*
X153378Y134021D01*
X151751Y135156D01*
X150266Y136007D01*
X148922Y136576D01*
X147721Y136862D01*
X146662Y136865D01*
X145745Y136585D01*
X144970Y136022D01*
X159082Y150134D01*
X158519Y149359D01*
D02*
G37*
G36*
X587608Y127099D02*
X590036Y127269D01*
X590365Y127351D01*
X590607Y127445D01*
X590764Y127549D01*
Y123951D01*
X590607Y124055D01*
X590365Y124149D01*
X590036Y124231D01*
X589622Y124302D01*
X588536Y124412D01*
X587608Y124455D01*
Y123422D01*
X587584Y123627D01*
X587514Y123810D01*
X587396Y123972D01*
X587231Y124112D01*
X587019Y124231D01*
X586759Y124328D01*
X586452Y124403D01*
X586099Y124457D01*
X585698Y124489D01*
X585250Y124500D01*
Y127000D01*
X585698Y127011D01*
X586099Y127043D01*
X586452Y127097D01*
X586759Y127172D01*
X587019Y127269D01*
X587231Y127388D01*
X587396Y127528D01*
X587514Y127690D01*
X587584Y127873D01*
X587608Y128077D01*
Y127099D01*
D02*
G37*
G36*
X503990Y111359D02*
X504110Y110796D01*
X504310Y110207D01*
X504590Y109592D01*
X504950Y108951D01*
X505390Y108285D01*
X505910Y107591D01*
X507190Y106127D01*
X507950Y105356D01*
X497450D01*
X498210Y106127D01*
X499490Y107591D01*
X500010Y108285D01*
X500450Y108951D01*
X500810Y109592D01*
X501090Y110207D01*
X501290Y110796D01*
X501410Y111359D01*
X501450Y111895D01*
X503950D01*
X503990Y111359D01*
D02*
G37*
G36*
X158581Y119684D02*
X158350Y118718D01*
X158387Y117625D01*
X158694Y116403D01*
X159270Y115052D01*
X160114Y113574D01*
X161228Y111968D01*
X162611Y110233D01*
X164263Y108370D01*
X166183Y106379D01*
X160499Y97921D01*
X158384Y99966D01*
X154620Y103167D01*
X152972Y104322D01*
X151480Y105180D01*
X150143Y105742D01*
X148963Y106007D01*
X147938Y105976D01*
X147070Y105647D01*
X146357Y105022D01*
X159082Y120521D01*
X158581Y119684D01*
D02*
G37*
%LPC*%
G36*
X524250Y419250D02*
X505750D01*
Y400750D01*
X511739D01*
X511858Y400685D01*
X512175Y400652D01*
X512290Y400611D01*
X512392Y400543D01*
X512516Y400409D01*
X512664Y400168D01*
X512816Y399797D01*
X512951Y399293D01*
X513057Y398660D01*
X513124Y397903D01*
X513148Y396995D01*
X513176Y396930D01*
Y363353D01*
X509705D01*
X509500Y363353D01*
X509500Y363353D01*
X509153Y363209D01*
X508783Y363147D01*
X508783Y363147D01*
X507662Y362959D01*
X507632Y362959D01*
X506821Y362961D01*
X506552Y363020D01*
X506361Y363100D01*
X506055Y363317D01*
X505898Y363291D01*
X505751Y363352D01*
X505068Y364162D01*
X504734Y366266D01*
X505143Y366878D01*
X505286Y367600D01*
Y374400D01*
X505143Y375122D01*
X504734Y375734D01*
X504122Y376143D01*
X503400Y376286D01*
X495600D01*
X494878Y376143D01*
X494266Y375734D01*
X493857Y375122D01*
X493000Y374353D01*
X489000D01*
X488143Y375122D01*
X487734Y375734D01*
X487122Y376143D01*
X486400Y376286D01*
X485252D01*
X485236Y376326D01*
X485187Y376510D01*
X485144Y376774D01*
X485114Y377112D01*
X485103Y377552D01*
X485049Y377672D01*
Y381444D01*
X491802Y388198D01*
X492355Y389025D01*
X492549Y390000D01*
Y397095D01*
X492599Y397194D01*
X492635Y397659D01*
X492728Y398079D01*
X492896Y398561D01*
X493148Y399101D01*
X493488Y399694D01*
X493918Y400336D01*
X494430Y401010D01*
X495764Y402527D01*
X496563Y403336D01*
X496662Y403581D01*
X497402Y404320D01*
X498620Y406430D01*
X499250Y408782D01*
Y411218D01*
X498620Y413570D01*
X497402Y415680D01*
X495680Y417402D01*
X493570Y418620D01*
X491218Y419250D01*
X488782D01*
X486430Y418620D01*
X484320Y417402D01*
X482598Y415680D01*
X481380Y413570D01*
X480750Y411218D01*
Y408782D01*
X481380Y406430D01*
X482598Y404320D01*
X483338Y403581D01*
X483437Y403336D01*
X484236Y402527D01*
X485570Y401010D01*
X486082Y400336D01*
X486512Y399694D01*
X486852Y399101D01*
X487104Y398561D01*
X487272Y398079D01*
X487365Y397659D01*
X487401Y397194D01*
X487451Y397095D01*
Y391056D01*
X480698Y384302D01*
X480145Y383475D01*
X479951Y382500D01*
Y377672D01*
X479897Y377552D01*
X479886Y377112D01*
X479857Y376774D01*
X479813Y376510D01*
X479764Y376326D01*
X479748Y376286D01*
X478600D01*
X477878Y376143D01*
X477266Y375734D01*
X476857Y375122D01*
X476714Y374400D01*
Y367600D01*
X476857Y366878D01*
X477266Y366266D01*
X477878Y365857D01*
X478066Y365820D01*
X478300Y365497D01*
X478439Y365019D01*
X478446Y364911D01*
X478163Y363156D01*
X477548Y362801D01*
X476199Y361452D01*
X475244Y359798D01*
X474750Y357954D01*
Y356045D01*
X475042Y354957D01*
X475022Y354911D01*
X475096Y354733D01*
X475074Y354541D01*
X475119Y354383D01*
X475125Y354328D01*
X475123Y354258D01*
X475104Y354161D01*
X475061Y354031D01*
X474984Y353866D01*
X474867Y353668D01*
X474705Y353443D01*
X474497Y353193D01*
X474216Y352896D01*
X474169Y352774D01*
X463198Y341802D01*
X462645Y340975D01*
X462451Y340000D01*
Y312625D01*
X462397Y312505D01*
X462386Y312065D01*
X462357Y311727D01*
X462313Y311464D01*
X462264Y311279D01*
X462252Y311250D01*
X457750D01*
Y288750D01*
X472250D01*
Y311250D01*
X467748D01*
X467736Y311279D01*
X467687Y311464D01*
X467643Y311727D01*
X467614Y312065D01*
X467603Y312505D01*
X467549Y312625D01*
Y338944D01*
X477774Y349169D01*
X477896Y349216D01*
X478193Y349497D01*
X478443Y349705D01*
X478668Y349867D01*
X478866Y349984D01*
X479031Y350061D01*
X479161Y350104D01*
X479258Y350123D01*
X479328Y350125D01*
X479383Y350119D01*
X479541Y350074D01*
X479733Y350096D01*
X479911Y350022D01*
X479957Y350042D01*
X481045Y349750D01*
X482954D01*
X484798Y350244D01*
X486452Y351199D01*
X487801Y352548D01*
X488756Y354202D01*
X489250Y356045D01*
Y357954D01*
X488756Y359798D01*
X487801Y361452D01*
X486452Y362801D01*
X486085Y363013D01*
X485791Y363804D01*
X485772Y363933D01*
X486400Y365714D01*
X487122Y365857D01*
X487734Y366266D01*
X488143Y366878D01*
X489000Y367647D01*
X493000D01*
X493857Y366878D01*
X494266Y366266D01*
X494878Y365857D01*
X495204Y364964D01*
X494261Y363250D01*
X494250D01*
Y350750D01*
X503250D01*
X503501Y350646D01*
X505751D01*
X505898Y350707D01*
X506055Y350681D01*
X506361Y350899D01*
X506552Y350978D01*
X506820Y351038D01*
X507619Y351040D01*
X507870Y351040D01*
X508783Y350853D01*
X509153Y350791D01*
X509500Y350647D01*
X509500Y350647D01*
X509705Y350647D01*
X524295D01*
X524500Y350647D01*
X524500Y350647D01*
X524847Y350791D01*
X525217Y350853D01*
X525218Y350853D01*
X526339Y351040D01*
X526381Y351040D01*
X527180Y351038D01*
X527448Y350978D01*
X527639Y350899D01*
X527945Y350681D01*
X528102Y350707D01*
X528249Y350646D01*
X530499D01*
X530750Y350750D01*
X539750D01*
Y353025D01*
X539815Y353037D01*
X541159Y353140D01*
X541732Y353147D01*
X541874Y353208D01*
X542371Y353307D01*
X542518D01*
X542654Y353363D01*
X543179Y353468D01*
X543623Y353765D01*
X543897Y353878D01*
X544106Y354087D01*
X544419Y354296D01*
X544476Y354353D01*
X544685Y354666D01*
X544952Y354933D01*
X545096Y355281D01*
X545305Y355594D01*
X545378Y355963D01*
X545522Y356311D01*
Y356688D01*
X545596Y357057D01*
X545522Y357426D01*
Y357803D01*
X545378Y358151D01*
X545305Y358520D01*
X545096Y358833D01*
X544952Y359181D01*
X544685Y359447D01*
X544476Y359761D01*
X544163Y359970D01*
X543897Y360236D01*
X543549Y360380D01*
X543236Y360589D01*
X542866Y360663D01*
X542518Y360807D01*
X542142D01*
X541772Y360880D01*
X541640Y360854D01*
X541146Y360860D01*
X540182Y360915D01*
X539846Y360957D01*
X539750Y360975D01*
Y363250D01*
X530746D01*
X530499Y363352D01*
X528249D01*
X528102Y363291D01*
X527945Y363317D01*
X527639Y363100D01*
X527448Y363020D01*
X527179Y362961D01*
X526368Y362959D01*
X526125Y362960D01*
X525217Y363147D01*
X524847Y363209D01*
X524500Y363353D01*
X524500Y363353D01*
X524295Y363353D01*
X520824D01*
Y396930D01*
X520853Y396995D01*
X520877Y397903D01*
X520943Y398660D01*
X521049Y399293D01*
X521184Y399797D01*
X521336Y400168D01*
X521484Y400409D01*
X521608Y400543D01*
X521710Y400611D01*
X521825Y400652D01*
X522142Y400685D01*
X522261Y400750D01*
X524250D01*
Y419250D01*
D02*
G37*
G36*
X384250D02*
X365750D01*
Y400750D01*
X372739D01*
X372858Y400685D01*
X373175Y400652D01*
X373290Y400611D01*
X373392Y400543D01*
X373516Y400409D01*
X373664Y400168D01*
X373816Y399797D01*
X373951Y399293D01*
X374057Y398660D01*
X374124Y397903D01*
X374147Y396995D01*
X374176Y396930D01*
Y363353D01*
X370705D01*
X370500Y363353D01*
X370500Y363353D01*
X370153Y363209D01*
X369783Y363147D01*
X369782Y363147D01*
X368661Y362959D01*
X368632Y362959D01*
X367821Y362961D01*
X367552Y363020D01*
X367361Y363100D01*
X367055Y363317D01*
X366125Y364066D01*
X365512Y365139D01*
X365793Y366207D01*
X365921Y366517D01*
X366133Y366778D01*
X366125Y366852D01*
X366143Y366878D01*
X366286Y367600D01*
Y374400D01*
X366143Y375122D01*
X365734Y375734D01*
X365122Y376143D01*
X364400Y376286D01*
X356600D01*
X355878Y376143D01*
X355266Y375734D01*
X354857Y375122D01*
X354006Y374353D01*
X350006D01*
X349143Y375122D01*
X348734Y375734D01*
X348122Y376143D01*
X347400Y376286D01*
X346252D01*
X346236Y376326D01*
X346187Y376510D01*
X346143Y376774D01*
X346114Y377112D01*
X346103Y377552D01*
X346049Y377672D01*
Y385444D01*
X351802Y391198D01*
X352355Y392025D01*
X352549Y393000D01*
Y397095D01*
X352599Y397193D01*
X352635Y397659D01*
X352728Y398079D01*
X352896Y398561D01*
X353148Y399101D01*
X353488Y399694D01*
X353918Y400336D01*
X354430Y401010D01*
X355764Y402527D01*
X356563Y403336D01*
X356662Y403581D01*
X357402Y404320D01*
X358620Y406430D01*
X359250Y408782D01*
Y411218D01*
X358620Y413570D01*
X357402Y415680D01*
X355680Y417402D01*
X353570Y418620D01*
X351218Y419250D01*
X348782D01*
X346430Y418620D01*
X344320Y417402D01*
X342598Y415680D01*
X341380Y413570D01*
X340750Y411218D01*
Y408782D01*
X341380Y406430D01*
X342598Y404320D01*
X343338Y403581D01*
X343437Y403336D01*
X344236Y402527D01*
X345570Y401010D01*
X346082Y400336D01*
X346512Y399694D01*
X346852Y399101D01*
X347104Y398561D01*
X347272Y398079D01*
X347365Y397659D01*
X347401Y397193D01*
X347451Y397095D01*
Y394056D01*
X341698Y388302D01*
X341145Y387476D01*
X340951Y386500D01*
Y377672D01*
X340897Y377552D01*
X340886Y377112D01*
X340857Y376774D01*
X340813Y376510D01*
X340764Y376326D01*
X340748Y376286D01*
X339600D01*
X338878Y376143D01*
X338266Y375734D01*
X337857Y375122D01*
X337714Y374400D01*
Y367600D01*
X337857Y366878D01*
X338266Y366266D01*
X338878Y365857D01*
X339066Y365820D01*
X339300Y365497D01*
X339439Y365019D01*
X339446Y364911D01*
X339163Y363156D01*
X338548Y362801D01*
X337199Y361452D01*
X336244Y359798D01*
X335750Y357954D01*
Y356045D01*
X336244Y354202D01*
X337199Y352548D01*
X338548Y351199D01*
X339524Y350635D01*
X339543Y350589D01*
X339722Y350515D01*
X339842Y350364D01*
X339985Y350284D01*
X340028Y350249D01*
X340076Y350198D01*
X340131Y350117D01*
X340193Y349994D01*
X340255Y349823D01*
X340312Y349600D01*
X340357Y349326D01*
X340386Y349003D01*
X340397Y348594D01*
X340451Y348474D01*
Y341000D01*
X340645Y340024D01*
X341198Y339198D01*
X347198Y333198D01*
X348025Y332645D01*
X349000Y332451D01*
X436944D01*
X442451Y326944D01*
Y312625D01*
X442397Y312505D01*
X442386Y312065D01*
X442357Y311727D01*
X442313Y311464D01*
X442264Y311279D01*
X442252Y311250D01*
X437750D01*
Y288750D01*
X452250D01*
Y311250D01*
X447748D01*
X447736Y311279D01*
X447687Y311464D01*
X447643Y311727D01*
X447614Y312065D01*
X447603Y312505D01*
X447549Y312625D01*
Y328000D01*
X447355Y328975D01*
X446802Y329802D01*
X439802Y336802D01*
X438975Y337355D01*
X438000Y337549D01*
X350056D01*
X345549Y342056D01*
Y348474D01*
X345602Y348594D01*
X345614Y349003D01*
X345643Y349326D01*
X345688Y349600D01*
X345745Y349823D01*
X345807Y349994D01*
X345869Y350117D01*
X345924Y350198D01*
X345972Y350249D01*
X346016Y350284D01*
X346158Y350364D01*
X346278Y350515D01*
X346457Y350589D01*
X346476Y350635D01*
X347452Y351199D01*
X348801Y352548D01*
X349756Y354202D01*
X350250Y356045D01*
Y357954D01*
X349756Y359798D01*
X348801Y361452D01*
X347452Y362801D01*
X347085Y363013D01*
X346792Y363803D01*
X346772Y363933D01*
X347400Y365714D01*
X348122Y365857D01*
X348734Y366266D01*
X349143Y366878D01*
X350006Y367647D01*
X353204D01*
X354626Y366904D01*
X355207Y366207D01*
X355393Y366130D01*
X355520Y365974D01*
X355677Y364001D01*
X355250Y363250D01*
X355177Y361969D01*
X355205Y361904D01*
X355199Y361731D01*
X355250Y361651D01*
Y350750D01*
X364250D01*
X364501Y350646D01*
X366751D01*
X366898Y350707D01*
X367055Y350681D01*
X367361Y350899D01*
X367552Y350978D01*
X367820Y351038D01*
X368619Y351040D01*
X368870Y351040D01*
X369783Y350853D01*
X370153Y350791D01*
X370500Y350647D01*
X370500Y350647D01*
X370705Y350647D01*
X385295D01*
X385500Y350647D01*
X385500Y350647D01*
X385847Y350791D01*
X386217Y350853D01*
X386217Y350853D01*
X387339Y351040D01*
X387381Y351040D01*
X388180Y351038D01*
X388448Y350978D01*
X388639Y350899D01*
X388945Y350681D01*
X389102Y350707D01*
X389249Y350646D01*
X391499D01*
X391750Y350750D01*
X400750D01*
Y353025D01*
X400816Y353037D01*
X402159Y353140D01*
X402732Y353147D01*
X402874Y353208D01*
X403371Y353307D01*
X403518D01*
X403655Y353363D01*
X404179Y353468D01*
X404623Y353765D01*
X404897Y353878D01*
X405106Y354087D01*
X405419Y354296D01*
X405476Y354353D01*
X405685Y354666D01*
X405952Y354933D01*
X406096Y355281D01*
X406305Y355594D01*
X406378Y355963D01*
X406522Y356311D01*
Y356688D01*
X406596Y357057D01*
X406522Y357426D01*
Y357803D01*
X406378Y358151D01*
X406305Y358520D01*
X406096Y358833D01*
X405952Y359181D01*
X405685Y359447D01*
X405476Y359761D01*
X405163Y359970D01*
X404897Y360236D01*
X404549Y360380D01*
X404236Y360589D01*
X403866Y360663D01*
X403518Y360807D01*
X403142D01*
X402772Y360880D01*
X402640Y360854D01*
X402146Y360860D01*
X401182Y360915D01*
X400846Y360957D01*
X400750Y360975D01*
Y363250D01*
X391746D01*
X391499Y363352D01*
X389249D01*
X389102Y363291D01*
X388945Y363317D01*
X388639Y363100D01*
X388448Y363020D01*
X388179Y362961D01*
X387368Y362959D01*
X387125Y362960D01*
X386217Y363147D01*
X385847Y363209D01*
X385500Y363353D01*
X385500Y363353D01*
X385295Y363353D01*
X381824D01*
Y396930D01*
X381853Y396995D01*
X381876Y397904D01*
X381942Y398662D01*
X382047Y399296D01*
X382181Y399801D01*
X382331Y400174D01*
X382477Y400415D01*
X382599Y400548D01*
X382696Y400614D01*
X382804Y400652D01*
X383113Y400685D01*
X383113Y400685D01*
X383232Y400750D01*
X384250D01*
X384323Y402030D01*
X384310Y402061D01*
X384315Y402174D01*
X384250Y402293D01*
Y419250D01*
D02*
G37*
G36*
X643703Y350556D02*
X631297D01*
Y340944D01*
X643703D01*
Y350556D01*
D02*
G37*
G36*
X598703D02*
X586297D01*
Y348498D01*
X586268Y348486D01*
X586083Y348437D01*
X585820Y348393D01*
X585482Y348364D01*
X585042Y348353D01*
X584922Y348299D01*
X573750D01*
X572775Y348105D01*
X571948Y347552D01*
X563198Y338802D01*
X562645Y337976D01*
X562451Y337000D01*
Y312625D01*
X562397Y312505D01*
X562386Y312065D01*
X562357Y311727D01*
X562313Y311464D01*
X562264Y311279D01*
X562252Y311250D01*
X557750D01*
Y288750D01*
X572250D01*
Y311250D01*
X567748D01*
X567736Y311279D01*
X567687Y311464D01*
X567643Y311727D01*
X567614Y312065D01*
X567603Y312505D01*
X567549Y312625D01*
Y335944D01*
X574806Y343201D01*
X584922D01*
X585042Y343147D01*
X585482Y343136D01*
X585820Y343107D01*
X586084Y343063D01*
X586268Y343014D01*
X586297Y343002D01*
Y340944D01*
X598703D01*
Y341926D01*
X598750D01*
X599119Y342000D01*
X599496D01*
X599844Y342144D01*
X600213Y342218D01*
X600526Y342427D01*
X600874Y342571D01*
X601140Y342837D01*
X601454Y343046D01*
X601663Y343359D01*
X601929Y343626D01*
X602073Y343974D01*
X602282Y344287D01*
X602356Y344656D01*
X602500Y345004D01*
Y345381D01*
X602573Y345750D01*
X602500Y346119D01*
Y346496D01*
X602356Y346844D01*
X602282Y347213D01*
X602073Y347526D01*
X601929Y347874D01*
X601663Y348140D01*
X601454Y348454D01*
X601140Y348663D01*
X600874Y348929D01*
X600526Y349073D01*
X600213Y349282D01*
X599844Y349356D01*
X599496Y349500D01*
X599119D01*
X598750Y349573D01*
X598703D01*
Y350556D01*
D02*
G37*
G36*
X643703Y329056D02*
X631297D01*
Y319444D01*
X643703D01*
Y329056D01*
D02*
G37*
G36*
X620746Y324750D02*
X619254D01*
X617876Y324179D01*
X616821Y323124D01*
X616250Y321746D01*
Y320254D01*
X616821Y318876D01*
X617876Y317821D01*
X619254Y317250D01*
X620746D01*
X622124Y317821D01*
X623179Y318876D01*
X623750Y320254D01*
Y321746D01*
X623179Y323124D01*
X622124Y324179D01*
X620746Y324750D01*
D02*
G37*
G36*
X545955Y327250D02*
X544045D01*
X542202Y326756D01*
X540548Y325801D01*
X539199Y324452D01*
X538244Y322798D01*
X537750Y320955D01*
Y319046D01*
X538244Y317202D01*
X539199Y315548D01*
X540159Y314588D01*
X540233Y314408D01*
X540843Y312861D01*
X539651Y311250D01*
X537750D01*
Y288750D01*
X552250D01*
Y311250D01*
X550349D01*
X549157Y312861D01*
X549767Y314408D01*
X549841Y314588D01*
X550801Y315548D01*
X551756Y317202D01*
X552250Y319046D01*
Y320955D01*
X551756Y322798D01*
X550801Y324452D01*
X549452Y325801D01*
X547798Y326756D01*
X545955Y327250D01*
D02*
G37*
G36*
X431000Y322353D02*
X398000D01*
X397043Y321957D01*
X395043Y319957D01*
X394647Y319000D01*
Y289000D01*
X395043Y288043D01*
X397043Y286043D01*
X398000Y285647D01*
X431000D01*
X431957Y286043D01*
X433957Y288043D01*
X434353Y289000D01*
Y319000D01*
X433957Y319957D01*
X431957Y321957D01*
X431000Y322353D01*
D02*
G37*
G36*
X419750Y281750D02*
X400250D01*
Y268250D01*
X419750D01*
Y281750D01*
D02*
G37*
G36*
X532250Y311250D02*
X517750D01*
Y288750D01*
X522252D01*
X522264Y288721D01*
X522313Y288536D01*
X522357Y288273D01*
X522386Y287935D01*
X522397Y287495D01*
X522451Y287375D01*
Y276000D01*
X522645Y275025D01*
X523198Y274198D01*
X524488Y272908D01*
X524532Y272789D01*
X524854Y272441D01*
X524949Y272323D01*
X525029Y272211D01*
X525088Y272118D01*
X525125Y272048D01*
X525144Y272003D01*
X525147Y271994D01*
X525149Y271945D01*
X525162Y271920D01*
X525163Y271915D01*
X525168Y271906D01*
X525250Y271738D01*
Y271254D01*
X525821Y269876D01*
X526876Y268821D01*
X528254Y268250D01*
X529746D01*
X531124Y268821D01*
X532179Y269876D01*
X532750Y271254D01*
Y272746D01*
X532179Y274124D01*
X531124Y275179D01*
X529746Y275750D01*
X529262D01*
X529094Y275832D01*
X529085Y275837D01*
X529080Y275839D01*
X529055Y275851D01*
X529006Y275853D01*
X528997Y275856D01*
X528952Y275875D01*
X528882Y275912D01*
X528789Y275971D01*
X528690Y276042D01*
X528394Y276293D01*
X528231Y276450D01*
X528106Y276499D01*
X527549Y277056D01*
Y287375D01*
X527603Y287495D01*
X527614Y287935D01*
X527643Y288273D01*
X527687Y288536D01*
X527736Y288721D01*
X527748Y288750D01*
X532250D01*
Y311250D01*
D02*
G37*
G36*
X419750Y261750D02*
X400250D01*
Y248250D01*
X419750D01*
Y261750D01*
D02*
G37*
G36*
Y241750D02*
X400250D01*
Y237761D01*
X400246Y237755D01*
X400197Y237734D01*
X400018Y237686D01*
X399760Y237643D01*
X399428Y237614D01*
X398995Y237603D01*
X398875Y237549D01*
X386000D01*
X385025Y237355D01*
X384198Y236802D01*
X375198Y227802D01*
X374645Y226975D01*
X374451Y226000D01*
Y143056D01*
X366908Y135512D01*
X366788Y135468D01*
X366441Y135146D01*
X366323Y135051D01*
X366211Y134971D01*
X366118Y134913D01*
X366048Y134875D01*
X366003Y134856D01*
X365994Y134853D01*
X365945Y134851D01*
X365920Y134838D01*
X365915Y134838D01*
X365906Y134832D01*
X365738Y134750D01*
X365254D01*
X363876Y134179D01*
X362821Y133124D01*
X362250Y131746D01*
Y130254D01*
X362821Y128876D01*
X363876Y127821D01*
X365254Y127250D01*
X366746D01*
X368124Y127821D01*
X369179Y128876D01*
X369750Y130254D01*
Y130738D01*
X369832Y130906D01*
X369837Y130915D01*
X369838Y130920D01*
X369851Y130944D01*
X369853Y130994D01*
X369856Y131003D01*
X369875Y131048D01*
X369912Y131118D01*
X369971Y131211D01*
X370042Y131310D01*
X370293Y131606D01*
X370450Y131769D01*
X370499Y131894D01*
X378802Y140198D01*
X379355Y141025D01*
X379549Y142000D01*
Y224944D01*
X387056Y232451D01*
X398875D01*
X398995Y232397D01*
X399428Y232386D01*
X399760Y232357D01*
X400018Y232314D01*
X400197Y232266D01*
X400246Y232245D01*
X400250Y232239D01*
Y228250D01*
X419750D01*
Y241750D01*
D02*
G37*
G36*
X390955Y222250D02*
X389045D01*
X387202Y221756D01*
X385548Y220801D01*
X384199Y219452D01*
X383244Y217798D01*
X382750Y215954D01*
Y214046D01*
X383244Y212202D01*
X384199Y210548D01*
X385548Y209199D01*
X387202Y208244D01*
X389045Y207750D01*
X390955D01*
X392798Y208244D01*
X394452Y209199D01*
X395412Y210159D01*
X395592Y210233D01*
X395604Y210264D01*
X395634Y210278D01*
X395917Y210587D01*
X396175Y210816D01*
X396461Y211021D01*
X396777Y211201D01*
X397129Y211358D01*
X397519Y211491D01*
X397951Y211597D01*
X398359Y211665D01*
X398835Y211512D01*
X400250Y210580D01*
Y208250D01*
X419750D01*
Y221750D01*
X400250D01*
Y219420D01*
X398835Y218488D01*
X398359Y218335D01*
X397950Y218403D01*
X397519Y218509D01*
X397129Y218642D01*
X396777Y218799D01*
X396461Y218980D01*
X396175Y219184D01*
X395917Y219413D01*
X395634Y219722D01*
X395604Y219736D01*
X395592Y219767D01*
X395412Y219841D01*
X394452Y220801D01*
X392798Y221756D01*
X390955Y222250D01*
D02*
G37*
G36*
X446408Y182086D02*
X444916D01*
X443537Y181515D01*
X442482Y180460D01*
X441912Y179082D01*
Y177590D01*
X442482Y176211D01*
X443537Y175156D01*
X444916Y174586D01*
X446408D01*
X447786Y175156D01*
X448841Y176211D01*
X449412Y177590D01*
Y179082D01*
X448841Y180460D01*
X447786Y181515D01*
X446408Y182086D01*
D02*
G37*
G36*
X512250Y311250D02*
X497750D01*
Y288750D01*
X502252D01*
X502264Y288721D01*
X502313Y288536D01*
X502357Y288273D01*
X502386Y287935D01*
X502397Y287495D01*
X502451Y287375D01*
Y251056D01*
X421598Y170203D01*
X419750Y170968D01*
X419750Y181750D01*
X421460Y182451D01*
X428000D01*
X428975Y182645D01*
X429802Y183198D01*
X486802Y240198D01*
X487355Y241024D01*
X487549Y242000D01*
Y287375D01*
X487603Y287495D01*
X487614Y287935D01*
X487643Y288273D01*
X487687Y288537D01*
X487736Y288721D01*
X487748Y288750D01*
X492250D01*
Y311250D01*
X477750D01*
Y288750D01*
X482252D01*
X482264Y288721D01*
X482313Y288536D01*
X482357Y288273D01*
X482386Y287935D01*
X482397Y287495D01*
X482451Y287375D01*
Y243056D01*
X426944Y187549D01*
X421460D01*
X419750Y188250D01*
X419750Y189549D01*
Y201750D01*
X400250D01*
X400250Y189004D01*
X399165Y187741D01*
X398575Y187465D01*
X398025Y187355D01*
X397198Y186802D01*
X387198Y176802D01*
X386645Y175975D01*
X386451Y175000D01*
Y134056D01*
X366198Y113802D01*
X365645Y112976D01*
X365451Y112000D01*
Y101526D01*
X365397Y101406D01*
X365386Y100997D01*
X365357Y100674D01*
X365312Y100400D01*
X365255Y100177D01*
X365193Y100006D01*
X365131Y99883D01*
X365076Y99802D01*
X365028Y99751D01*
X364985Y99716D01*
X364842Y99636D01*
X364722Y99485D01*
X364543Y99411D01*
X364524Y99365D01*
X363548Y98801D01*
X362199Y97452D01*
X361244Y95798D01*
X360750Y93954D01*
Y92045D01*
X361244Y90202D01*
X362199Y88548D01*
X363548Y87199D01*
X363915Y86987D01*
X364209Y86196D01*
X364228Y86067D01*
X363600Y84286D01*
X362878Y84143D01*
X362266Y83734D01*
X361857Y83122D01*
X361001Y82353D01*
X357795D01*
X356133Y83222D01*
X355921Y83483D01*
X355793Y83793D01*
X355606Y83870D01*
X355480Y84026D01*
X355323Y85999D01*
X355750Y86750D01*
X355822Y88031D01*
X355796Y88096D01*
X355801Y88269D01*
X355750Y88349D01*
Y99250D01*
X346750D01*
X346499Y99354D01*
X344249D01*
X344102Y99293D01*
X343945Y99319D01*
X343639Y99101D01*
X343448Y99022D01*
X342051Y98976D01*
X341217Y99147D01*
X340847Y99209D01*
X340500Y99353D01*
X340500Y99353D01*
X340295Y99353D01*
X325705D01*
X325500Y99353D01*
X325500Y99353D01*
X325153Y99209D01*
X324783Y99147D01*
X324782Y99147D01*
X323661Y98960D01*
X323619Y98960D01*
X322820Y98962D01*
X322552Y99022D01*
X322361Y99101D01*
X322055Y99319D01*
X321898Y99293D01*
X321751Y99354D01*
X319501D01*
X319250Y99250D01*
X310250D01*
Y96975D01*
X310184Y96963D01*
X308841Y96860D01*
X308268Y96853D01*
X308126Y96792D01*
X307629Y96693D01*
X307482D01*
X307346Y96637D01*
X306821Y96532D01*
X306377Y96235D01*
X306103Y96122D01*
X305894Y95913D01*
X305581Y95704D01*
X305524Y95647D01*
X305315Y95333D01*
X305048Y95067D01*
X304904Y94719D01*
X304695Y94406D01*
X304622Y94037D01*
X304478Y93689D01*
Y93312D01*
X304404Y92943D01*
X304478Y92574D01*
Y92197D01*
X304622Y91849D01*
X304695Y91480D01*
X304904Y91167D01*
X305048Y90819D01*
X305315Y90553D01*
X305524Y90239D01*
X305837Y90030D01*
X306103Y89764D01*
X306451Y89620D01*
X306764Y89411D01*
X307134Y89337D01*
X307482Y89193D01*
X307858D01*
X308228Y89120D01*
X308360Y89146D01*
X308854Y89140D01*
X309818Y89085D01*
X310154Y89043D01*
X310250Y89025D01*
Y86750D01*
X319254D01*
X319501Y86648D01*
X321751D01*
X321898Y86709D01*
X322055Y86683D01*
X322361Y86900D01*
X322552Y86980D01*
X323953Y87024D01*
X324783Y86853D01*
X325153Y86791D01*
X325500Y86647D01*
X325500Y86647D01*
X325705Y86647D01*
X329176D01*
Y53070D01*
X329147Y53005D01*
X329123Y52090D01*
X329057Y51329D01*
X328951Y50690D01*
X328815Y50181D01*
X328662Y49806D01*
X328514Y49562D01*
X328389Y49427D01*
X328287Y49358D01*
X328173Y49318D01*
X327858Y49285D01*
X327794Y49250D01*
X325750D01*
Y30750D01*
X344250D01*
Y49250D01*
X338206D01*
X338143Y49285D01*
X337827Y49318D01*
X337713Y49359D01*
X337611Y49427D01*
X337486Y49562D01*
X337338Y49807D01*
X337185Y50181D01*
X337049Y50690D01*
X336943Y51329D01*
X336876Y52090D01*
X336852Y53005D01*
X336824Y53070D01*
Y86647D01*
X340295D01*
X340500Y86647D01*
X340500Y86647D01*
X340847Y86791D01*
X341217Y86853D01*
X341217Y86853D01*
X342338Y87041D01*
X342368Y87041D01*
X343179Y87039D01*
X343448Y86980D01*
X343639Y86900D01*
X343945Y86683D01*
X344875Y85934D01*
X345488Y84860D01*
X345207Y83793D01*
X345079Y83483D01*
X344867Y83222D01*
X344875Y83148D01*
X344857Y83122D01*
X344714Y82400D01*
Y75600D01*
X344857Y74878D01*
X345266Y74266D01*
X345878Y73857D01*
X346600Y73714D01*
X354400D01*
X355122Y73857D01*
X355734Y74266D01*
X356143Y74878D01*
X357001Y75647D01*
X361001D01*
X361857Y74878D01*
X362266Y74266D01*
X362878Y73857D01*
X363600Y73714D01*
X364748D01*
X364764Y73674D01*
X364813Y73490D01*
X364856Y73226D01*
X364886Y72888D01*
X364897Y72448D01*
X364951Y72328D01*
Y67556D01*
X358198Y60802D01*
X357645Y59975D01*
X357451Y59000D01*
Y52905D01*
X357401Y52807D01*
X357365Y52341D01*
X357272Y51921D01*
X357104Y51439D01*
X356852Y50899D01*
X356512Y50306D01*
X356082Y49664D01*
X355570Y48990D01*
X354236Y47473D01*
X353437Y46664D01*
X353338Y46419D01*
X352598Y45680D01*
X351380Y43570D01*
X350750Y41218D01*
Y38782D01*
X351380Y36430D01*
X352598Y34320D01*
X354320Y32598D01*
X356430Y31380D01*
X358782Y30750D01*
X361218D01*
X363570Y31380D01*
X365680Y32598D01*
X367402Y34320D01*
X368620Y36430D01*
X369250Y38782D01*
Y41218D01*
X368620Y43570D01*
X367402Y45680D01*
X366662Y46419D01*
X366563Y46664D01*
X365764Y47473D01*
X364430Y48990D01*
X363918Y49664D01*
X363488Y50306D01*
X363148Y50899D01*
X362896Y51439D01*
X362728Y51921D01*
X362635Y52340D01*
X362599Y52807D01*
X362549Y52905D01*
Y57944D01*
X369302Y64698D01*
X369855Y65525D01*
X370049Y66500D01*
Y72328D01*
X370103Y72448D01*
X370114Y72888D01*
X370143Y73226D01*
X370187Y73490D01*
X370236Y73674D01*
X370252Y73714D01*
X371400D01*
X372122Y73857D01*
X372734Y74266D01*
X373143Y74878D01*
X373286Y75600D01*
Y82400D01*
X373143Y83122D01*
X372734Y83734D01*
X372122Y84143D01*
X371934Y84180D01*
X371700Y84503D01*
X371561Y84981D01*
X371554Y85089D01*
X371837Y86844D01*
X372452Y87199D01*
X373801Y88548D01*
X374756Y90202D01*
X375250Y92045D01*
Y93954D01*
X374756Y95798D01*
X373801Y97452D01*
X372452Y98801D01*
X371476Y99365D01*
X371457Y99411D01*
X371278Y99485D01*
X371158Y99636D01*
X371016Y99716D01*
X370972Y99751D01*
X370924Y99802D01*
X370869Y99883D01*
X370807Y100006D01*
X370745Y100177D01*
X370688Y100400D01*
X370643Y100674D01*
X370614Y100997D01*
X370602Y101406D01*
X370549Y101526D01*
Y110944D01*
X390802Y131198D01*
X391355Y132025D01*
X391549Y133000D01*
Y173944D01*
X398250Y180645D01*
X400250Y179817D01*
Y168250D01*
X407005D01*
X407460Y167418D01*
X407611Y166250D01*
X407416Y166119D01*
X401198Y159901D01*
X400645Y159074D01*
X400451Y158099D01*
Y132056D01*
X388908Y120512D01*
X388788Y120468D01*
X388441Y120146D01*
X388323Y120051D01*
X388211Y119971D01*
X388118Y119913D01*
X388048Y119875D01*
X388004Y119856D01*
X387994Y119853D01*
X387945Y119851D01*
X387920Y119838D01*
X387915Y119838D01*
X387906Y119832D01*
X387738Y119750D01*
X387254D01*
X385876Y119179D01*
X384821Y118124D01*
X384250Y116746D01*
Y115254D01*
X384821Y113876D01*
X385876Y112821D01*
X387254Y112250D01*
X388746D01*
X390124Y112821D01*
X391179Y113876D01*
X391750Y115254D01*
Y115738D01*
X391832Y115906D01*
X391838Y115915D01*
X391838Y115920D01*
X391851Y115944D01*
X391853Y115994D01*
X391856Y116004D01*
X391875Y116048D01*
X391912Y116118D01*
X391971Y116211D01*
X392042Y116310D01*
X392293Y116606D01*
X392450Y116769D01*
X392499Y116894D01*
X404802Y129198D01*
X405355Y130024D01*
X405549Y131000D01*
Y157043D01*
X410274Y161768D01*
X419317D01*
X420293Y161962D01*
X421119Y162515D01*
X506802Y248198D01*
X507355Y249025D01*
X507436Y249432D01*
X507833Y249815D01*
X508731Y250320D01*
X509549Y250542D01*
X510254Y250250D01*
X511746D01*
X513124Y250821D01*
X514179Y251876D01*
X514750Y253254D01*
Y254746D01*
X514179Y256124D01*
X513124Y257179D01*
X511746Y257750D01*
X510254D01*
X509549Y257458D01*
X507827Y258325D01*
X507549Y258629D01*
Y287375D01*
X507603Y287495D01*
X507614Y287935D01*
X507643Y288273D01*
X507687Y288537D01*
X507736Y288721D01*
X507748Y288750D01*
X512250D01*
Y311250D01*
D02*
G37*
G36*
X525746Y167750D02*
X524254D01*
X522876Y167179D01*
X521821Y166124D01*
X521250Y164746D01*
Y163254D01*
X521252Y163250D01*
X519915Y161250D01*
X517750D01*
Y138750D01*
X532250D01*
Y161250D01*
X530085D01*
X528748Y163250D01*
X528750Y163254D01*
Y164746D01*
X528179Y166124D01*
X527124Y167179D01*
X525746Y167750D01*
D02*
G37*
G36*
X505746D02*
X504254D01*
X502876Y167179D01*
X501821Y166124D01*
X501250Y164746D01*
Y163254D01*
X501252Y163250D01*
X499915Y161250D01*
X497750D01*
Y138750D01*
X512250D01*
Y161250D01*
X510085D01*
X508748Y163250D01*
X508750Y163254D01*
Y164746D01*
X508179Y166124D01*
X507124Y167179D01*
X505746Y167750D01*
D02*
G37*
G36*
X468746Y174750D02*
X467254D01*
X465876Y174179D01*
X464821Y173124D01*
X464250Y171746D01*
Y170483D01*
X464242Y170453D01*
X464232Y170437D01*
X464229Y170424D01*
X464217Y170396D01*
X464215Y170357D01*
X464213Y170351D01*
X464199Y170318D01*
X464161Y170250D01*
X464111Y170173D01*
X463883Y169894D01*
X463734Y169739D01*
X463686Y169614D01*
X463664Y169592D01*
X463566Y169523D01*
X463561Y169489D01*
X463198Y169126D01*
X462645Y168299D01*
X462451Y167323D01*
Y162625D01*
X462397Y162505D01*
X462386Y162065D01*
X462357Y161727D01*
X462313Y161464D01*
X462264Y161279D01*
X462252Y161250D01*
X457750D01*
Y138750D01*
X472250D01*
Y161250D01*
X467748D01*
X467736Y161279D01*
X467687Y161464D01*
X467643Y161727D01*
X467614Y162065D01*
X467603Y162505D01*
X467549Y162625D01*
Y166268D01*
X467693Y166412D01*
X467817Y166460D01*
X468176Y166801D01*
X468302Y166910D01*
X468563Y167113D01*
X468640Y167164D01*
X468705Y167202D01*
X468740Y167218D01*
X468785Y167230D01*
X468800Y167241D01*
X468811Y167245D01*
X468830Y167263D01*
X468896Y167312D01*
X470124Y167821D01*
X471179Y168876D01*
X471750Y170254D01*
Y171746D01*
X471179Y173124D01*
X470124Y174179D01*
X468746Y174750D01*
D02*
G37*
G36*
Y194750D02*
X467254D01*
X465876Y194179D01*
X464821Y193124D01*
X464250Y191746D01*
Y190254D01*
X464821Y188876D01*
X465260Y188437D01*
X465277Y188196D01*
X443198Y166116D01*
X442645Y165289D01*
X442451Y164314D01*
Y162625D01*
X442397Y162505D01*
X442386Y162065D01*
X442357Y161727D01*
X442313Y161464D01*
X442264Y161279D01*
X442252Y161250D01*
X437750D01*
Y138750D01*
X452250D01*
Y161250D01*
X447748D01*
X447736Y161279D01*
X447687Y161464D01*
X447643Y161727D01*
X447614Y162065D01*
X447603Y162505D01*
X447549Y162625D01*
Y163258D01*
X469726Y185435D01*
X470279Y186262D01*
X470434Y187044D01*
X470526Y187245D01*
X470519Y187263D01*
X470527Y187281D01*
X470529Y187544D01*
X470546Y187969D01*
X470575Y188261D01*
X470577Y188274D01*
X471179Y188876D01*
X471750Y190254D01*
Y191746D01*
X471179Y193124D01*
X470124Y194179D01*
X468746Y194750D01*
D02*
G37*
G36*
X643703Y130556D02*
X631297D01*
Y120944D01*
X643703D01*
Y130556D01*
D02*
G37*
G36*
Y109056D02*
X631297D01*
Y99444D01*
X643703D01*
Y109056D01*
D02*
G37*
G36*
X620746Y104750D02*
X619254D01*
X617876Y104179D01*
X616821Y103124D01*
X616250Y101746D01*
Y100254D01*
X616821Y98876D01*
X617876Y97821D01*
X619254Y97250D01*
X620746D01*
X622124Y97821D01*
X623179Y98876D01*
X623750Y100254D01*
Y101746D01*
X623179Y103124D01*
X622124Y104179D01*
X620746Y104750D01*
D02*
G37*
G36*
X536850Y108750D02*
X519350D01*
Y91250D01*
X536850D01*
Y108750D01*
D02*
G37*
G36*
X552250Y161250D02*
X537750D01*
Y138750D01*
X542252D01*
X542264Y138721D01*
X542313Y138537D01*
X542357Y138273D01*
X542386Y137935D01*
X542397Y137495D01*
X542451Y137375D01*
Y135056D01*
X537944Y130549D01*
X488000D01*
X487024Y130355D01*
X486198Y129802D01*
X475498Y119103D01*
X474945Y118276D01*
X474751Y117300D01*
Y112095D01*
X474701Y111995D01*
X474668Y111550D01*
X474584Y111155D01*
X474431Y110706D01*
X474203Y110205D01*
X473894Y109656D01*
X473504Y109063D01*
X473039Y108444D01*
X471819Y107048D01*
X471087Y106306D01*
X470988Y106061D01*
X470299Y105372D01*
X469147Y103377D01*
X468550Y101152D01*
Y98848D01*
X469147Y96622D01*
X470299Y94627D01*
X471928Y92998D01*
X473923Y91846D01*
X476148Y91250D01*
X478452D01*
X480678Y91846D01*
X482673Y92998D01*
X484302Y94627D01*
X485454Y96622D01*
X486050Y98848D01*
Y101152D01*
X485454Y103377D01*
X484302Y105372D01*
X483613Y106061D01*
X483514Y106306D01*
X482782Y107048D01*
X481562Y108443D01*
X481097Y109063D01*
X480706Y109656D01*
X480398Y110205D01*
X480170Y110706D01*
X480017Y111155D01*
X479933Y111550D01*
X479900Y111995D01*
X479849Y112095D01*
Y116245D01*
X489056Y125451D01*
X539000D01*
X539976Y125645D01*
X540802Y126198D01*
X546802Y132198D01*
X547355Y133025D01*
X547549Y134000D01*
Y137375D01*
X547603Y137495D01*
X547614Y137935D01*
X547643Y138273D01*
X547687Y138537D01*
X547736Y138721D01*
X547748Y138750D01*
X552250D01*
Y161250D01*
D02*
G37*
G36*
X500955Y87250D02*
X499045D01*
X497202Y86756D01*
X495548Y85801D01*
X494199Y84452D01*
X493244Y82798D01*
X492750Y80955D01*
Y79046D01*
X493042Y77957D01*
X493022Y77911D01*
X493096Y77733D01*
X493074Y77541D01*
X493119Y77383D01*
X493125Y77328D01*
X493123Y77258D01*
X493104Y77161D01*
X493061Y77031D01*
X492984Y76866D01*
X492867Y76668D01*
X492705Y76443D01*
X492497Y76193D01*
X492216Y75896D01*
X492169Y75774D01*
X488198Y71802D01*
X487645Y70975D01*
X487451Y70000D01*
Y52905D01*
X487401Y52806D01*
X487365Y52341D01*
X487272Y51921D01*
X487104Y51439D01*
X486852Y50899D01*
X486512Y50306D01*
X486082Y49664D01*
X485570Y48990D01*
X484236Y47473D01*
X483437Y46664D01*
X483338Y46419D01*
X482598Y45680D01*
X481380Y43570D01*
X480750Y41218D01*
Y38782D01*
X481380Y36430D01*
X482598Y34320D01*
X484320Y32598D01*
X486430Y31380D01*
X488782Y30750D01*
X491218D01*
X493570Y31380D01*
X495680Y32598D01*
X497402Y34320D01*
X498620Y36430D01*
X499250Y38782D01*
Y41218D01*
X498620Y43570D01*
X497402Y45680D01*
X496662Y46419D01*
X496563Y46664D01*
X495764Y47473D01*
X494430Y48990D01*
X493918Y49664D01*
X493488Y50306D01*
X493148Y50899D01*
X492896Y51439D01*
X492728Y51921D01*
X492635Y52340D01*
X492599Y52806D01*
X492549Y52905D01*
Y68944D01*
X495774Y72169D01*
X495896Y72216D01*
X496193Y72497D01*
X496443Y72705D01*
X496668Y72867D01*
X496866Y72984D01*
X497031Y73061D01*
X497161Y73104D01*
X497258Y73123D01*
X497328Y73125D01*
X497383Y73119D01*
X497541Y73074D01*
X497733Y73096D01*
X497911Y73022D01*
X497957Y73042D01*
X499045Y72750D01*
X500955D01*
X502798Y73244D01*
X504452Y74199D01*
X505801Y75548D01*
X506756Y77202D01*
X507250Y79046D01*
Y80955D01*
X506756Y82798D01*
X505801Y84452D01*
X504452Y85801D01*
X502798Y86756D01*
X500955Y87250D01*
D02*
G37*
G36*
X484246Y80250D02*
X482754D01*
X481376Y79679D01*
X480321Y78624D01*
X479750Y77246D01*
Y75754D01*
X480321Y74376D01*
X481376Y73321D01*
X482754Y72750D01*
X484246D01*
X485624Y73321D01*
X486679Y74376D01*
X487250Y75754D01*
Y77246D01*
X486679Y78624D01*
X485624Y79679D01*
X484246Y80250D01*
D02*
G37*
G36*
X474250Y49250D02*
X455750D01*
Y30750D01*
X474250D01*
Y49250D01*
D02*
G37*
%LPD*%
G36*
X494773Y403450D02*
X493382Y401867D01*
X492816Y401122D01*
X492337Y400408D01*
X491946Y399724D01*
X491642Y399072D01*
X491424Y398450D01*
X491293Y397859D01*
X491250Y397298D01*
X488750D01*
X488707Y397859D01*
X488576Y398450D01*
X488358Y399072D01*
X488054Y399724D01*
X487663Y400408D01*
X487184Y401122D01*
X486618Y401867D01*
X485227Y403450D01*
X484400Y404287D01*
X495600D01*
X494773Y403450D01*
D02*
G37*
G36*
X521525Y401981D02*
X521100Y401830D01*
X520725Y401581D01*
X520400Y401231D01*
X520125Y400780D01*
X519900Y400230D01*
X519725Y399580D01*
X519600Y398830D01*
X519525Y397980D01*
X519500Y397030D01*
X514500D01*
X514475Y397980D01*
X514400Y398830D01*
X514275Y399580D01*
X514100Y400230D01*
X513875Y400780D01*
X513600Y401231D01*
X513275Y401581D01*
X512900Y401830D01*
X512475Y401981D01*
X512000Y402030D01*
X522000D01*
X521525Y401981D01*
D02*
G37*
G36*
X483763Y377036D02*
X483800Y376605D01*
X483862Y376226D01*
X483950Y375897D01*
X484062Y375619D01*
X484200Y375391D01*
X484362Y375214D01*
X484550Y375087D01*
X484762Y375011D01*
X485000Y374986D01*
X480000D01*
X480238Y375011D01*
X480450Y375087D01*
X480638Y375214D01*
X480800Y375391D01*
X480938Y375619D01*
X481050Y375897D01*
X481138Y376226D01*
X481200Y376605D01*
X481237Y377036D01*
X481250Y377516D01*
X483750D01*
X483763Y377036D01*
D02*
G37*
G36*
X484263Y366989D02*
X484050Y366913D01*
X483862Y366786D01*
X483700Y366609D01*
X483563Y366381D01*
X483450Y366103D01*
X483363Y365774D01*
X483300Y365395D01*
X483262Y364964D01*
X483262Y364940D01*
X483262Y364918D01*
X483300Y364503D01*
X483363Y364123D01*
X483450Y363778D01*
X483563Y363469D01*
X483700Y363196D01*
X483862Y362957D01*
X484050Y362754D01*
X484263Y362587D01*
X484500Y362454D01*
X479500D01*
X479738Y362587D01*
X479950Y362754D01*
X480137Y362957D01*
X480300Y363196D01*
X480438Y363469D01*
X480550Y363778D01*
X480638Y364123D01*
X480700Y364503D01*
X480737Y364918D01*
X480738Y364940D01*
X480737Y364964D01*
X480700Y365395D01*
X480638Y365774D01*
X480550Y366103D01*
X480438Y366381D01*
X480300Y366609D01*
X480137Y366786D01*
X479950Y366913D01*
X479738Y366989D01*
X479500Y367014D01*
X484500D01*
X484263Y366989D01*
D02*
G37*
G36*
X538502Y360104D02*
X538599Y359977D01*
X538762Y359866D01*
X538989Y359769D01*
X539281Y359687D01*
X539638Y359619D01*
X540060Y359567D01*
X541099Y359507D01*
X541716Y359500D01*
Y354500D01*
X541099Y354492D01*
X539638Y354381D01*
X539281Y354314D01*
X538989Y354231D01*
X538762Y354134D01*
X538599Y354022D01*
X538502Y353896D01*
X538470Y353754D01*
Y360246D01*
X538502Y360104D01*
D02*
G37*
G36*
X523250Y360000D02*
X521250Y357000D01*
X523250Y354000D01*
X524500Y352000D01*
X509500D01*
X510750Y354000D01*
X512750Y357000D01*
X510750Y360000D01*
X509500Y362000D01*
X524500D01*
X523250Y360000D01*
D02*
G37*
G36*
X530499Y351999D02*
X528249D01*
X526999Y353999D01*
X524999Y356999D01*
X526999Y359999D01*
X528249Y361999D01*
X530499D01*
Y351999D01*
D02*
G37*
G36*
X502515Y365228D02*
X502638Y363929D01*
X502745Y363401D01*
X502883Y362954D01*
X503051Y362589D01*
X503250Y362304D01*
X503479Y362102D01*
X503698Y361999D01*
X505751D01*
X507001Y359999D01*
X509001Y356999D01*
X507001Y353999D01*
X505751Y351999D01*
X503501D01*
Y361939D01*
X495970D01*
X496260Y361980D01*
X496521Y362102D01*
X496750Y362304D01*
X496949Y362589D01*
X497117Y362954D01*
X497255Y363401D01*
X497362Y363929D01*
X497439Y364538D01*
X497485Y365228D01*
X497500Y366000D01*
X502500D01*
X502515Y365228D01*
D02*
G37*
G36*
X479911Y351375D02*
X479650Y351450D01*
X479381Y351482D01*
X479105Y351471D01*
X478821Y351417D01*
X478530Y351321D01*
X478232Y351182D01*
X477927Y351000D01*
X477614Y350776D01*
X477294Y350508D01*
X476967Y350199D01*
X475199Y351967D01*
X475508Y352294D01*
X475776Y352614D01*
X476000Y352927D01*
X476182Y353232D01*
X476321Y353530D01*
X476417Y353821D01*
X476471Y354105D01*
X476482Y354381D01*
X476450Y354650D01*
X476375Y354911D01*
X479911Y351375D01*
D02*
G37*
G36*
X466263Y311989D02*
X466300Y311559D01*
X466362Y311179D01*
X466450Y310850D01*
X466562Y310572D01*
X466700Y310344D01*
X466862Y310167D01*
X467050Y310040D01*
X467262Y309964D01*
X467500Y309939D01*
X462500D01*
X462738Y309964D01*
X462950Y310040D01*
X463138Y310167D01*
X463300Y310344D01*
X463438Y310572D01*
X463550Y310850D01*
X463638Y311179D01*
X463700Y311559D01*
X463737Y311989D01*
X463750Y312470D01*
X466250D01*
X466263Y311989D01*
D02*
G37*
G36*
X354773Y403450D02*
X353382Y401867D01*
X352816Y401122D01*
X352337Y400408D01*
X351946Y399724D01*
X351642Y399072D01*
X351424Y398450D01*
X351293Y397859D01*
X351250Y397298D01*
X348750D01*
X348707Y397859D01*
X348576Y398450D01*
X348358Y399072D01*
X348054Y399724D01*
X347663Y400408D01*
X347184Y401122D01*
X346618Y401867D01*
X345227Y403450D01*
X344400Y404287D01*
X355600D01*
X354773Y403450D01*
D02*
G37*
G36*
X382500Y401981D02*
X382080Y401830D01*
X381710Y401581D01*
X381389Y401231D01*
X381117Y400780D01*
X380895Y400230D01*
X380722Y399580D01*
X380599Y398830D01*
X380525Y397980D01*
X380500Y397030D01*
X375500D01*
X375475Y397980D01*
X375400Y398830D01*
X375275Y399580D01*
X375100Y400230D01*
X374875Y400780D01*
X374600Y401231D01*
X374275Y401581D01*
X373900Y401830D01*
X373475Y401981D01*
X373000Y402030D01*
X382970D01*
X382500Y401981D01*
D02*
G37*
G36*
X344762Y377036D02*
X344800Y376605D01*
X344863Y376226D01*
X344950Y375897D01*
X345062Y375619D01*
X345200Y375391D01*
X345363Y375214D01*
X345550Y375087D01*
X345762Y375011D01*
X346000Y374986D01*
X341000D01*
X341237Y375011D01*
X341450Y375087D01*
X341637Y375214D01*
X341800Y375391D01*
X341937Y375619D01*
X342050Y375897D01*
X342137Y376226D01*
X342200Y376605D01*
X342238Y377036D01*
X342250Y377516D01*
X344750D01*
X344762Y377036D01*
D02*
G37*
G36*
X345262Y366989D02*
X345050Y366913D01*
X344863Y366786D01*
X344700Y366609D01*
X344562Y366381D01*
X344450Y366103D01*
X344362Y365774D01*
X344300Y365395D01*
X344263Y364964D01*
X344262Y364940D01*
X344263Y364918D01*
X344300Y364503D01*
X344362Y364123D01*
X344450Y363778D01*
X344562Y363469D01*
X344700Y363196D01*
X344863Y362957D01*
X345050Y362754D01*
X345262Y362587D01*
X345500Y362454D01*
X340500D01*
X340737Y362587D01*
X340950Y362754D01*
X341138Y362957D01*
X341300Y363196D01*
X341437Y363469D01*
X341550Y363778D01*
X341637Y364123D01*
X341700Y364503D01*
X341738Y364918D01*
X341738Y364940D01*
X341738Y364964D01*
X341700Y365395D01*
X341637Y365774D01*
X341550Y366103D01*
X341437Y366381D01*
X341300Y366609D01*
X341138Y366786D01*
X340950Y366913D01*
X340737Y366989D01*
X340500Y367014D01*
X345500D01*
X345262Y366989D01*
D02*
G37*
G36*
X399502Y360104D02*
X399599Y359977D01*
X399762Y359866D01*
X399989Y359769D01*
X400281Y359687D01*
X400638Y359619D01*
X401060Y359567D01*
X402099Y359507D01*
X402716Y359500D01*
Y354500D01*
X402099Y354492D01*
X400638Y354381D01*
X400281Y354314D01*
X399989Y354231D01*
X399762Y354134D01*
X399599Y354022D01*
X399502Y353896D01*
X399469Y353754D01*
Y360246D01*
X399502Y360104D01*
D02*
G37*
G36*
X384250Y360000D02*
X382250Y357000D01*
X384250Y354000D01*
X385500Y352000D01*
X370500D01*
X371750Y354000D01*
X373750Y357000D01*
X371750Y360000D01*
X370500Y362000D01*
X385500D01*
X384250Y360000D01*
D02*
G37*
G36*
X391499Y351999D02*
X389249D01*
X387999Y353999D01*
X385999Y356999D01*
X387999Y359999D01*
X389249Y361999D01*
X391499D01*
Y351999D01*
D02*
G37*
G36*
X364487Y366975D02*
X364175Y366714D01*
X363900Y366379D01*
X363661Y365970D01*
X363459Y365489D01*
X363294Y364934D01*
X363207Y364511D01*
X363222Y364420D01*
X363395Y363769D01*
X363617Y363219D01*
X363889Y362770D01*
X364210Y362420D01*
X364580Y362169D01*
X365000Y362020D01*
X365191Y361999D01*
X366751D01*
X368001Y359999D01*
X370001Y356999D01*
X368001Y353999D01*
X366751Y351999D01*
X364501D01*
Y361969D01*
X356530D01*
X356810Y362020D01*
X357060Y362169D01*
X357280Y362420D01*
X357471Y362770D01*
X357633Y363219D01*
X357765Y363769D01*
X357841Y364248D01*
X357835Y364306D01*
X357706Y364934D01*
X357541Y365489D01*
X357339Y365970D01*
X357100Y366379D01*
X356825Y366714D01*
X356513Y366975D01*
X356164Y367164D01*
X364836D01*
X364487Y366975D01*
D02*
G37*
G36*
X345262Y351413D02*
X345050Y351246D01*
X344863Y351043D01*
X344700Y350804D01*
X344562Y350531D01*
X344450Y350222D01*
X344362Y349877D01*
X344300Y349497D01*
X344263Y349082D01*
X344250Y348632D01*
X341750D01*
X341738Y349082D01*
X341700Y349497D01*
X341637Y349877D01*
X341550Y350222D01*
X341437Y350531D01*
X341300Y350804D01*
X341138Y351043D01*
X340950Y351246D01*
X340737Y351413D01*
X340500Y351546D01*
X345500D01*
X345262Y351413D01*
D02*
G37*
G36*
X446263Y311989D02*
X446300Y311559D01*
X446362Y311179D01*
X446450Y310850D01*
X446562Y310572D01*
X446700Y310344D01*
X446862Y310167D01*
X447050Y310040D01*
X447262Y309964D01*
X447500Y309939D01*
X442500D01*
X442738Y309964D01*
X442950Y310040D01*
X443138Y310167D01*
X443300Y310344D01*
X443438Y310572D01*
X443550Y310850D01*
X443638Y311179D01*
X443700Y311559D01*
X443737Y311989D01*
X443750Y312470D01*
X446250D01*
X446263Y311989D01*
D02*
G37*
G36*
X587608Y347094D02*
X590029Y347254D01*
X590351Y347332D01*
X590586Y347420D01*
X590733Y347519D01*
Y343981D01*
X590586Y344080D01*
X590351Y344168D01*
X590029Y344246D01*
X589620Y344313D01*
X588540Y344417D01*
X587608Y344449D01*
Y343250D01*
X587583Y343488D01*
X587507Y343700D01*
X587380Y343887D01*
X587203Y344050D01*
X586975Y344188D01*
X586697Y344300D01*
X586368Y344388D01*
X585988Y344450D01*
X585558Y344487D01*
X585078Y344500D01*
Y347000D01*
X585558Y347012D01*
X585988Y347050D01*
X586368Y347113D01*
X586697Y347200D01*
X586975Y347313D01*
X587203Y347450D01*
X587380Y347612D01*
X587507Y347800D01*
X587583Y348013D01*
X587608Y348250D01*
Y347094D01*
D02*
G37*
G36*
X566263Y311989D02*
X566300Y311559D01*
X566362Y311179D01*
X566450Y310850D01*
X566562Y310572D01*
X566700Y310344D01*
X566862Y310167D01*
X567050Y310040D01*
X567262Y309964D01*
X567500Y309939D01*
X562500D01*
X562738Y309964D01*
X562950Y310040D01*
X563138Y310167D01*
X563300Y310344D01*
X563438Y310572D01*
X563550Y310850D01*
X563638Y311179D01*
X563700Y311559D01*
X563737Y311989D01*
X563750Y312470D01*
X566250D01*
X566263Y311989D01*
D02*
G37*
G36*
X548448Y315034D02*
X548124Y314669D01*
X547839Y314270D01*
X547591Y313835D01*
X547381Y313366D01*
X547210Y312862D01*
X547076Y312324D01*
X547035Y312073D01*
X547076Y311821D01*
X547210Y311322D01*
X547381Y310899D01*
X547591Y310553D01*
X547839Y310285D01*
X548124Y310093D01*
X548448Y309977D01*
X548810Y309939D01*
X541190D01*
X541552Y309977D01*
X541876Y310093D01*
X542162Y310285D01*
X542409Y310553D01*
X542619Y310899D01*
X542790Y311322D01*
X542924Y311821D01*
X542965Y312073D01*
X542924Y312324D01*
X542790Y312862D01*
X542619Y313366D01*
X542409Y313835D01*
X542162Y314270D01*
X541876Y314669D01*
X541552Y315034D01*
X541190Y315365D01*
X548810D01*
X548448Y315034D01*
D02*
G37*
G36*
X433000Y319000D02*
Y289000D01*
X431000Y287000D01*
X398000D01*
X396000Y289000D01*
Y319000D01*
X398000Y321000D01*
X431000D01*
X433000Y319000D01*
D02*
G37*
G36*
X527262Y290036D02*
X527050Y289960D01*
X526862Y289833D01*
X526700Y289656D01*
X526562Y289428D01*
X526450Y289150D01*
X526362Y288821D01*
X526300Y288442D01*
X526263Y288011D01*
X526250Y287530D01*
X523750D01*
X523737Y288011D01*
X523700Y288442D01*
X523638Y288821D01*
X523550Y289150D01*
X523438Y289428D01*
X523300Y289656D01*
X523138Y289833D01*
X522950Y289960D01*
X522738Y290036D01*
X522500Y290061D01*
X527500D01*
X527262Y290036D01*
D02*
G37*
G36*
X527486Y275289D02*
X527856Y274975D01*
X528033Y274848D01*
X528204Y274740D01*
X528370Y274653D01*
X528530Y274585D01*
X528684Y274537D01*
X528832Y274508D01*
X528975Y274500D01*
X526500Y272025D01*
X526492Y272168D01*
X526463Y272316D01*
X526415Y272470D01*
X526347Y272630D01*
X526260Y272796D01*
X526152Y272967D01*
X526025Y273144D01*
X525878Y273326D01*
X525525Y273708D01*
X527292Y275475D01*
X527486Y275289D01*
D02*
G37*
G36*
X401530Y232500D02*
X401506Y232738D01*
X401431Y232950D01*
X401306Y233137D01*
X401130Y233300D01*
X400905Y233438D01*
X400630Y233550D01*
X400305Y233638D01*
X399930Y233700D01*
X399506Y233738D01*
X399030Y233750D01*
Y236250D01*
X399506Y236262D01*
X399930Y236300D01*
X400305Y236362D01*
X400630Y236450D01*
X400905Y236562D01*
X401130Y236700D01*
X401306Y236863D01*
X401431Y237050D01*
X401506Y237262D01*
X401530Y237500D01*
Y232500D01*
D02*
G37*
G36*
X369476Y132708D02*
X369289Y132514D01*
X368975Y132144D01*
X368848Y131967D01*
X368740Y131796D01*
X368653Y131630D01*
X368585Y131470D01*
X368537Y131316D01*
X368508Y131168D01*
X368500Y131025D01*
X366025Y133500D01*
X366168Y133508D01*
X366316Y133537D01*
X366470Y133585D01*
X366630Y133653D01*
X366796Y133740D01*
X366967Y133848D01*
X367144Y133975D01*
X367326Y134122D01*
X367708Y134475D01*
X369476Y132708D01*
D02*
G37*
G36*
X401530Y211190D02*
X401492Y211552D01*
X401378Y211876D01*
X401188Y212162D01*
X400921Y212409D01*
X400578Y212619D01*
X400159Y212790D01*
X399664Y212924D01*
X399092Y213019D01*
X398657Y213057D01*
X398249Y213019D01*
X397676Y212924D01*
X397138Y212790D01*
X396634Y212619D01*
X396165Y212409D01*
X395731Y212162D01*
X395331Y211876D01*
X394966Y211552D01*
X394635Y211190D01*
Y218810D01*
X394966Y218448D01*
X395331Y218124D01*
X395731Y217838D01*
X396165Y217591D01*
X396634Y217381D01*
X397138Y217210D01*
X397676Y217076D01*
X398249Y216981D01*
X398657Y216943D01*
X399092Y216981D01*
X399664Y217076D01*
X400159Y217210D01*
X400578Y217381D01*
X400921Y217591D01*
X401188Y217838D01*
X401378Y218124D01*
X401492Y218448D01*
X401530Y218810D01*
Y211190D01*
D02*
G37*
G36*
X507262Y290036D02*
X507050Y289960D01*
X506862Y289833D01*
X506700Y289656D01*
X506562Y289428D01*
X506450Y289150D01*
X506362Y288821D01*
X506300Y288442D01*
X506263Y288011D01*
X506250Y287530D01*
X503750D01*
X503737Y288011D01*
X503700Y288442D01*
X503638Y288821D01*
X503550Y289150D01*
X503438Y289428D01*
X503300Y289656D01*
X503138Y289833D01*
X502950Y289960D01*
X502738Y290036D01*
X502500Y290061D01*
X507500D01*
X507262Y290036D01*
D02*
G37*
G36*
X487262D02*
X487050Y289960D01*
X486862Y289833D01*
X486700Y289656D01*
X486562Y289428D01*
X486450Y289150D01*
X486362Y288821D01*
X486300Y288442D01*
X486263Y288011D01*
X486250Y287530D01*
X483750D01*
X483737Y288011D01*
X483700Y288442D01*
X483638Y288821D01*
X483550Y289150D01*
X483438Y289428D01*
X483300Y289656D01*
X483138Y289833D01*
X482950Y289960D01*
X482738Y290036D01*
X482500Y290061D01*
X487500D01*
X487262Y290036D01*
D02*
G37*
G36*
X391475Y117708D02*
X391289Y117514D01*
X390975Y117144D01*
X390848Y116967D01*
X390740Y116796D01*
X390653Y116630D01*
X390585Y116470D01*
X390537Y116316D01*
X390508Y116168D01*
X390500Y116025D01*
X388025Y118500D01*
X388168Y118508D01*
X388316Y118537D01*
X388470Y118585D01*
X388630Y118653D01*
X388796Y118740D01*
X388967Y118848D01*
X389144Y118975D01*
X389326Y119122D01*
X389708Y119475D01*
X391475Y117708D01*
D02*
G37*
G36*
X369263Y100918D02*
X369300Y100503D01*
X369362Y100123D01*
X369450Y99778D01*
X369562Y99469D01*
X369700Y99196D01*
X369863Y98957D01*
X370050Y98754D01*
X370262Y98587D01*
X370500Y98454D01*
X365500D01*
X365737Y98587D01*
X365950Y98754D01*
X366138Y98957D01*
X366300Y99196D01*
X366437Y99469D01*
X366550Y99778D01*
X366637Y100123D01*
X366700Y100503D01*
X366738Y100918D01*
X366750Y101368D01*
X369250D01*
X369263Y100918D01*
D02*
G37*
G36*
X311530Y89754D02*
X311498Y89896D01*
X311401Y90022D01*
X311238Y90134D01*
X311011Y90231D01*
X310719Y90314D01*
X310362Y90381D01*
X309940Y90433D01*
X308901Y90492D01*
X308284Y90500D01*
Y95500D01*
X308901Y95507D01*
X310362Y95619D01*
X310719Y95687D01*
X311011Y95769D01*
X311238Y95866D01*
X311401Y95977D01*
X311498Y96104D01*
X311530Y96246D01*
Y89754D01*
D02*
G37*
G36*
X323001Y96001D02*
X325001Y93001D01*
X323001Y90001D01*
X321751Y88001D01*
X319501D01*
Y98001D01*
X321751D01*
X323001Y96001D01*
D02*
G37*
G36*
X339250Y96000D02*
X337250Y93000D01*
X339250Y90000D01*
X340500Y88000D01*
X325500D01*
X326750Y90000D01*
X328750Y93000D01*
X326750Y96000D01*
X325500Y98000D01*
X340500D01*
X339250Y96000D01*
D02*
G37*
G36*
X370262Y87413D02*
X370050Y87246D01*
X369863Y87043D01*
X369700Y86804D01*
X369562Y86531D01*
X369450Y86222D01*
X369362Y85877D01*
X369300Y85497D01*
X369263Y85082D01*
X369262Y85060D01*
X369263Y85036D01*
X369300Y84605D01*
X369362Y84226D01*
X369450Y83897D01*
X369562Y83619D01*
X369700Y83391D01*
X369863Y83214D01*
X370050Y83087D01*
X370262Y83011D01*
X370500Y82986D01*
X365500D01*
X365737Y83011D01*
X365950Y83087D01*
X366138Y83214D01*
X366300Y83391D01*
X366437Y83619D01*
X366550Y83897D01*
X366637Y84226D01*
X366700Y84605D01*
X366738Y85036D01*
X366738Y85060D01*
X366738Y85082D01*
X366700Y85497D01*
X366637Y85877D01*
X366550Y86222D01*
X366437Y86531D01*
X366300Y86804D01*
X366138Y87043D01*
X365950Y87246D01*
X365737Y87413D01*
X365500Y87546D01*
X370500D01*
X370262Y87413D01*
D02*
G37*
G36*
X346499Y88031D02*
X354469D01*
X354190Y87980D01*
X353941Y87830D01*
X353720Y87580D01*
X353529Y87231D01*
X353367Y86781D01*
X353235Y86230D01*
X353159Y85752D01*
X353165Y85694D01*
X353294Y85066D01*
X353459Y84511D01*
X353661Y84030D01*
X353900Y83622D01*
X354175Y83286D01*
X354487Y83025D01*
X354836Y82836D01*
X346164D01*
X346513Y83025D01*
X346825Y83286D01*
X347100Y83622D01*
X347339Y84030D01*
X347541Y84511D01*
X347706Y85066D01*
X347793Y85489D01*
X347778Y85581D01*
X347605Y86230D01*
X347383Y86781D01*
X347111Y87231D01*
X346790Y87580D01*
X346419Y87830D01*
X346000Y87980D01*
X345809Y88001D01*
X344249D01*
X342999Y90001D01*
X340999Y93001D01*
X342999Y96001D01*
X344249Y98001D01*
X346499D01*
Y88031D01*
D02*
G37*
G36*
X369762Y74989D02*
X369550Y74913D01*
X369362Y74786D01*
X369200Y74609D01*
X369062Y74381D01*
X368950Y74103D01*
X368862Y73774D01*
X368800Y73394D01*
X368763Y72964D01*
X368750Y72484D01*
X366250D01*
X366237Y72964D01*
X366200Y73394D01*
X366138Y73774D01*
X366050Y74103D01*
X365938Y74381D01*
X365800Y74609D01*
X365638Y74786D01*
X365450Y74913D01*
X365238Y74989D01*
X365000Y75014D01*
X370000D01*
X369762Y74989D01*
D02*
G37*
G36*
X335525Y52014D02*
X335600Y51158D01*
X335725Y50404D01*
X335900Y49750D01*
X336125Y49197D01*
X336400Y48744D01*
X336725Y48392D01*
X337100Y48140D01*
X337525Y47989D01*
X338000Y47939D01*
X328000D01*
X328475Y47989D01*
X328900Y48140D01*
X329275Y48392D01*
X329600Y48744D01*
X329875Y49197D01*
X330100Y49750D01*
X330275Y50404D01*
X330400Y51158D01*
X330475Y52014D01*
X330500Y52969D01*
X335500D01*
X335525Y52014D01*
D02*
G37*
G36*
X361293Y52141D02*
X361424Y51550D01*
X361642Y50928D01*
X361946Y50276D01*
X362337Y49592D01*
X362816Y48878D01*
X363382Y48133D01*
X364773Y46550D01*
X365600Y45713D01*
X354400D01*
X355227Y46550D01*
X356618Y48133D01*
X357184Y48878D01*
X357663Y49592D01*
X358054Y50276D01*
X358358Y50928D01*
X358576Y51550D01*
X358707Y52141D01*
X358750Y52702D01*
X361250D01*
X361293Y52141D01*
D02*
G37*
G36*
X526257Y162215D02*
X526750D01*
X526655Y162108D01*
X526570Y161983D01*
X526495Y161840D01*
X526430Y161679D01*
X526375Y161500D01*
X526337Y161334D01*
X526362Y161179D01*
X526450Y160850D01*
X526562Y160572D01*
X526700Y160344D01*
X526862Y160167D01*
X527050Y160040D01*
X527262Y159964D01*
X527500Y159939D01*
X522500D01*
X522738Y159964D01*
X522950Y160040D01*
X523138Y160167D01*
X523300Y160344D01*
X523438Y160572D01*
X523550Y160850D01*
X523638Y161179D01*
X523663Y161334D01*
X523625Y161500D01*
X523570Y161679D01*
X523505Y161840D01*
X523430Y161983D01*
X523345Y162108D01*
X523250Y162215D01*
X523743D01*
X523750Y162470D01*
X526250D01*
X526257Y162215D01*
D02*
G37*
G36*
X506257D02*
X506750D01*
X506655Y162108D01*
X506570Y161983D01*
X506495Y161840D01*
X506430Y161679D01*
X506375Y161500D01*
X506337Y161334D01*
X506362Y161179D01*
X506450Y160850D01*
X506562Y160572D01*
X506700Y160344D01*
X506862Y160167D01*
X507050Y160040D01*
X507262Y159964D01*
X507500Y159939D01*
X502500D01*
X502738Y159964D01*
X502950Y160040D01*
X503138Y160167D01*
X503300Y160344D01*
X503438Y160572D01*
X503550Y160850D01*
X503638Y161179D01*
X503663Y161334D01*
X503625Y161500D01*
X503570Y161679D01*
X503505Y161840D01*
X503430Y161983D01*
X503345Y162108D01*
X503250Y162215D01*
X503743D01*
X503750Y162470D01*
X506250D01*
X506257Y162215D01*
D02*
G37*
G36*
X468454Y168542D02*
X468335Y168511D01*
X468207Y168464D01*
X468072Y168398D01*
X467927Y168314D01*
X467774Y168213D01*
X467444Y167957D01*
X467266Y167803D01*
X466884Y167440D01*
X464712Y168804D01*
X464898Y168998D01*
X465201Y169369D01*
X465319Y169547D01*
X465414Y169719D01*
X465487Y169886D01*
X465537Y170047D01*
X465564Y170203D01*
X465569Y170352D01*
X465551Y170497D01*
X468454Y168542D01*
D02*
G37*
G36*
X466263Y161989D02*
X466300Y161559D01*
X466362Y161179D01*
X466450Y160850D01*
X466562Y160572D01*
X466700Y160344D01*
X466862Y160167D01*
X467050Y160040D01*
X467262Y159964D01*
X467500Y159939D01*
X462500D01*
X462738Y159964D01*
X462950Y160040D01*
X463138Y160167D01*
X463300Y160344D01*
X463438Y160572D01*
X463550Y160850D01*
X463638Y161179D01*
X463700Y161559D01*
X463737Y161989D01*
X463750Y162470D01*
X466250D01*
X466263Y161989D01*
D02*
G37*
G36*
X469412Y188937D02*
X469367Y188891D01*
X469326Y188819D01*
X469291Y188720D01*
X469259Y188596D01*
X469233Y188444D01*
X469195Y188063D01*
X469176Y187576D01*
X469174Y187293D01*
X466674Y187381D01*
X466672Y187664D01*
X466599Y188685D01*
X466571Y188811D01*
X466540Y188909D01*
X466505Y188981D01*
X466465Y189027D01*
X469412Y188937D01*
D02*
G37*
G36*
X446263Y161989D02*
X446300Y161559D01*
X446362Y161179D01*
X446450Y160850D01*
X446562Y160572D01*
X446700Y160344D01*
X446862Y160167D01*
X447050Y160040D01*
X447262Y159964D01*
X447500Y159939D01*
X442500D01*
X442738Y159964D01*
X442950Y160040D01*
X443138Y160167D01*
X443300Y160344D01*
X443438Y160572D01*
X443550Y160850D01*
X443638Y161179D01*
X443700Y161559D01*
X443737Y161989D01*
X443750Y162470D01*
X446250D01*
X446263Y161989D01*
D02*
G37*
G36*
X547262Y140036D02*
X547050Y139960D01*
X546862Y139833D01*
X546700Y139656D01*
X546562Y139428D01*
X546450Y139150D01*
X546362Y138821D01*
X546300Y138441D01*
X546263Y138011D01*
X546250Y137530D01*
X543750D01*
X543737Y138011D01*
X543700Y138441D01*
X543638Y138821D01*
X543550Y139150D01*
X543438Y139428D01*
X543300Y139656D01*
X543138Y139833D01*
X542950Y139960D01*
X542738Y140036D01*
X542500Y140061D01*
X547500D01*
X547262Y140036D01*
D02*
G37*
G36*
X478590Y111358D02*
X478710Y110795D01*
X478910Y110207D01*
X479190Y109592D01*
X479550Y108951D01*
X479990Y108284D01*
X480510Y107591D01*
X481790Y106127D01*
X482550Y105356D01*
X472050D01*
X472810Y106127D01*
X474090Y107591D01*
X474610Y108284D01*
X475050Y108951D01*
X475410Y109592D01*
X475690Y110207D01*
X475890Y110795D01*
X476010Y111358D01*
X476050Y111895D01*
X478550D01*
X478590Y111358D01*
D02*
G37*
G36*
X497911Y74375D02*
X497649Y74450D01*
X497381Y74482D01*
X497105Y74471D01*
X496821Y74417D01*
X496530Y74321D01*
X496232Y74182D01*
X495927Y74000D01*
X495614Y73776D01*
X495294Y73509D01*
X494967Y73199D01*
X493199Y74967D01*
X493508Y75294D01*
X493776Y75614D01*
X494000Y75927D01*
X494182Y76232D01*
X494321Y76530D01*
X494417Y76821D01*
X494471Y77105D01*
X494482Y77381D01*
X494450Y77649D01*
X494375Y77911D01*
X497911Y74375D01*
D02*
G37*
G36*
X491293Y52141D02*
X491424Y51550D01*
X491642Y50928D01*
X491946Y50276D01*
X492337Y49592D01*
X492816Y48878D01*
X493382Y48133D01*
X494773Y46550D01*
X495600Y45713D01*
X484400D01*
X485227Y46550D01*
X486618Y48133D01*
X487184Y48878D01*
X487663Y49592D01*
X488054Y50276D01*
X488358Y50928D01*
X488576Y51550D01*
X488707Y52141D01*
X488750Y52702D01*
X491250D01*
X491293Y52141D01*
D02*
G37*
D14*
X445000Y150000D02*
Y164314D01*
X467924Y190924D02*
X468000Y191000D01*
X467924Y187237D02*
Y190924D01*
X445000Y164314D02*
X467924Y187237D01*
X419317Y164317D02*
X505000Y250000D01*
X409218Y164317D02*
X419317D01*
X505000Y250000D02*
Y300000D01*
X403000Y158099D02*
X409218Y164317D01*
X403000Y131000D02*
Y158099D01*
X388000Y116000D02*
X403000Y131000D01*
X399000Y185000D02*
X428000D01*
X485000Y242000D02*
Y300000D01*
X428000Y185000D02*
X485000Y242000D01*
X389000Y175000D02*
X399000Y185000D01*
X389000Y133000D02*
Y175000D01*
X368000Y112000D02*
X389000Y133000D01*
X368000Y93000D02*
Y112000D01*
X366000Y131000D02*
X377000Y142000D01*
Y226000D01*
X386000Y235000D01*
X410000D01*
X525000Y276000D02*
X529000Y272000D01*
X525000Y276000D02*
Y300000D01*
X445000D02*
Y328000D01*
X438000Y335000D02*
X445000Y328000D01*
X349000Y335000D02*
X438000D01*
X343000Y341000D02*
X349000Y335000D01*
X343000Y341000D02*
Y357000D01*
X465000Y300000D02*
Y340000D01*
X482000Y357000D01*
X505000Y150000D02*
Y164000D01*
X490000Y176000D02*
X570000D01*
X576000Y135000D02*
Y170000D01*
X570000Y176000D02*
X576000Y170000D01*
X485000Y150000D02*
Y171000D01*
X490000Y176000D01*
X525000Y150000D02*
Y164000D01*
X465000Y150000D02*
Y167323D01*
X468000Y170324D01*
Y171000D01*
X585250Y125750D02*
X592500D01*
X576000Y135000D02*
X585250Y125750D01*
X545000Y134000D02*
Y150000D01*
X539000Y128000D02*
X545000Y134000D01*
X488000Y128000D02*
X539000D01*
X477300Y117300D02*
X488000Y128000D01*
X477300Y100000D02*
Y117300D01*
X565000Y129000D02*
Y150000D01*
X556000Y120000D02*
X565000Y129000D01*
X509000Y120000D02*
X556000D01*
X502700Y113700D02*
X509000Y120000D01*
X502700Y100000D02*
Y113700D01*
X573750Y345750D02*
X592500D01*
X565000Y337000D02*
X573750Y345750D01*
X565000Y300000D02*
Y337000D01*
X360500Y357500D02*
X361000Y357000D01*
X343000D02*
Y370500D01*
X343500Y371000D01*
Y386500D01*
X350000Y393000D01*
Y410000D01*
X499500Y357500D02*
X500000Y357000D01*
X482000D02*
Y370500D01*
X482500Y371000D01*
Y382500D01*
X490000Y390000D01*
Y410000D01*
X350000Y93000D02*
X350500Y92500D01*
X368000Y79500D02*
Y93000D01*
X367500Y79000D02*
X368000Y79500D01*
X367500Y66500D02*
Y79000D01*
X360000Y59000D02*
X367500Y66500D01*
X360000Y40000D02*
Y59000D01*
X490000Y40000D02*
Y70000D01*
X500000Y80000D01*
D17*
X688000Y489000D02*
X696331D01*
X692165D01*
Y513992D01*
X688000Y509827D01*
X708827Y501496D02*
X725488D01*
X733819Y513992D02*
X750480D01*
X742149D01*
Y489000D01*
X771306Y513992D02*
X762976D01*
X758810Y509827D01*
Y493165D01*
X762976Y489000D01*
X771306D01*
X775472Y493165D01*
Y509827D01*
X771306Y513992D01*
X783802Y489000D02*
Y513992D01*
X796298D01*
X800464Y509827D01*
Y501496D01*
X796298Y497331D01*
X783802D01*
D28*
X592500Y345750D02*
D03*
X637500D02*
D03*
X592500Y324250D02*
D03*
X637500D02*
D03*
X592500Y125750D02*
D03*
X637500D02*
D03*
X592500Y104250D02*
D03*
X637500D02*
D03*
D29*
X230000Y290500D02*
D03*
Y269500D02*
D03*
D30*
X260000Y257000D02*
D03*
Y303000D02*
D03*
Y280000D02*
D03*
D31*
X322000D02*
D03*
D32*
X264500Y325000D02*
D03*
X285500D02*
D03*
X320500Y325000D02*
D03*
X299500D02*
D03*
D33*
X355000Y162500D02*
D03*
Y177500D02*
D03*
X330000Y162500D02*
D03*
Y177500D02*
D03*
D34*
X499500Y371000D02*
D03*
X482500D02*
D03*
X360500D02*
D03*
X343500D02*
D03*
X350500Y79000D02*
D03*
X367500D02*
D03*
D35*
X565000Y300000D02*
D03*
X545000D02*
D03*
X525000D02*
D03*
X505000D02*
D03*
X485000D02*
D03*
X465000D02*
D03*
X445000D02*
D03*
X425000D02*
D03*
Y150000D02*
D03*
X445000D02*
D03*
X465000D02*
D03*
X485000D02*
D03*
X505000D02*
D03*
X525000D02*
D03*
X545000D02*
D03*
X565000D02*
D03*
D36*
X410000Y275000D02*
D03*
Y255000D02*
D03*
Y235000D02*
D03*
Y215000D02*
D03*
Y195000D02*
D03*
Y175000D02*
D03*
D37*
X139104Y115000D02*
D03*
Y146000D02*
D03*
D38*
Y275000D02*
D03*
Y321000D02*
D03*
D63*
X330001Y208499D02*
D03*
Y191499D02*
D03*
X355001Y208499D02*
D03*
Y191499D02*
D03*
D64*
X390000Y215000D02*
D03*
X320000Y235000D02*
D03*
X230000Y250000D02*
D03*
X545000Y320000D02*
D03*
X500000Y80000D02*
D03*
X482000Y357000D02*
D03*
X343000D02*
D03*
X368000Y93000D02*
D03*
D65*
X517000Y357000D02*
D03*
X378000D02*
D03*
X333000Y93000D02*
D03*
D66*
X534000Y357000D02*
D03*
X500000D02*
D03*
X395000D02*
D03*
X361000D02*
D03*
X316000Y93000D02*
D03*
X350000D02*
D03*
D67*
X499500Y357500D02*
X500000Y358000D01*
Y366000D01*
X499500Y371000D02*
X499572Y370928D01*
Y366427D02*
Y370928D01*
Y366427D02*
X500000Y366000D01*
X308284Y93000D02*
X316000D01*
X308228Y92943D02*
X308284Y93000D01*
X534000Y357000D02*
X541716D01*
X541772Y357057D01*
X402716Y357000D02*
X402772Y357057D01*
X395000Y357000D02*
X402716D01*
X360500Y357500D02*
Y371000D01*
X378000Y357000D02*
Y407000D01*
X375000Y410000D02*
X378000Y407000D01*
X517000Y357000D02*
Y408000D01*
X515000Y410000D02*
X517000Y408000D01*
X592500Y345750D02*
X598750D01*
X355000Y156000D02*
Y162500D01*
X330000Y156000D02*
Y162500D01*
Y177500D02*
X330000Y177500D01*
Y191499D01*
X330001Y191499D01*
X355000Y177500D02*
X355000Y177500D01*
Y191499D01*
X355001Y191499D01*
X333000Y42000D02*
Y93000D01*
Y42000D02*
X335000Y40000D01*
X350500Y79000D02*
Y92500D01*
X592750Y126000D02*
X599000D01*
X592500Y125750D02*
X592750Y126000D01*
D68*
X16104Y302500D02*
X41604Y277000D01*
X16104Y302500D02*
Y332000D01*
X41604Y177000D02*
X126604Y262000D01*
Y267500D01*
X134104Y275000D01*
X139104D01*
X138104Y320000D02*
X139104Y321000D01*
X110000Y320000D02*
X138104D01*
X98957Y331043D02*
X110000Y320000D01*
X67104Y332000D02*
X68061Y331043D01*
X98957D01*
D69*
X149104Y146000D02*
X173081Y122023D01*
X219094D02*
X232353Y135282D01*
X173081Y122023D02*
X219094D01*
X144104Y110000D02*
X155491D01*
X139104Y115000D02*
X144104Y110000D01*
X155491D02*
X167342Y98149D01*
X248149D01*
X260000Y110000D01*
X232353Y167353D02*
X260000Y195000D01*
X232353Y135282D02*
Y167353D01*
X139104Y146000D02*
X149104D01*
X260000Y110000D02*
Y145000D01*
D70*
X545000Y300000D02*
Y320000D01*
X390000Y215000D02*
X410000D01*
D71*
X260000Y145000D02*
D03*
X41604Y277000D02*
D03*
D72*
X260000Y195000D02*
D03*
X41604Y177000D02*
D03*
Y227000D02*
D03*
D73*
X502700Y100000D02*
D03*
X477300Y100000D02*
D03*
X451900D02*
D03*
D74*
X528100Y100000D02*
D03*
D75*
X490000Y410000D02*
D03*
X465000D02*
D03*
X350000D02*
D03*
X325000D02*
D03*
X490000Y40000D02*
D03*
X515000D02*
D03*
X360000D02*
D03*
X385000D02*
D03*
D76*
X515000Y410000D02*
D03*
X375000D02*
D03*
X465000Y40000D02*
D03*
X335000D02*
D03*
D77*
X16104Y332000D02*
D03*
X67104D02*
D03*
D78*
X600000Y400000D02*
D03*
X250000Y400000D02*
D03*
X600000Y50000D02*
D03*
X250000D02*
D03*
D79*
X511000Y254000D02*
D03*
X500000Y366000D02*
D03*
X308228Y92943D02*
D03*
X541772Y357057D02*
D03*
X402772D02*
D03*
X360500Y364000D02*
D03*
X292000Y319000D02*
D03*
Y331000D02*
D03*
X275000Y288000D02*
D03*
X290000D02*
D03*
X305000D02*
D03*
Y275000D02*
D03*
X290000D02*
D03*
X275000D02*
D03*
X445662Y178336D02*
D03*
X350500Y86000D02*
D03*
X388000Y116000D02*
D03*
X366000Y131000D02*
D03*
X529000Y272000D02*
D03*
X483500Y76500D02*
D03*
X505000Y164000D02*
D03*
X525000D02*
D03*
X468000Y171000D02*
D03*
Y191000D02*
D03*
X430000Y315000D02*
D03*
X419667D02*
D03*
X409333D02*
D03*
X399000D02*
D03*
X620000Y321000D02*
D03*
X605000Y321000D02*
D03*
X598750Y345750D02*
D03*
X355000Y156000D02*
D03*
X330000D02*
D03*
X620000Y101000D02*
D03*
X605000D02*
D03*
X599000Y126000D02*
D03*
M02*
