G04*
G04 #@! TF.GenerationSoftware,Altium Limited,Altium Designer,23.4.1 (23)*
G04*
G04 Layer_Color=16711935*
%FSLAX44Y44*%
%MOMM*%
G71*
G04*
G04 #@! TF.SameCoordinates,AC87B314-1984-4FFE-BA22-F28876D7C55D*
G04*
G04*
G04 #@! TF.FilePolarity,Negative*
G04*
G01*
G75*
%ADD17C,0.4000*%
G04:AMPARAMS|DCode=40|XSize=1.1032mm|YSize=1.6032mm|CornerRadius=0.1691mm|HoleSize=0mm|Usage=FLASHONLY|Rotation=270.000|XOffset=0mm|YOffset=0mm|HoleType=Round|Shape=RoundedRectangle|*
%AMROUNDEDRECTD40*
21,1,1.1032,1.2650,0,0,270.0*
21,1,0.7650,1.6032,0,0,270.0*
1,1,0.3382,-0.6325,-0.3825*
1,1,0.3382,-0.6325,0.3825*
1,1,0.3382,0.6325,0.3825*
1,1,0.3382,0.6325,-0.3825*
%
%ADD40ROUNDEDRECTD40*%
%ADD46C,1.4032*%
G04:AMPARAMS|DCode=47|XSize=1.1032mm|YSize=1.0032mm|CornerRadius=0.1616mm|HoleSize=0mm|Usage=FLASHONLY|Rotation=0.000|XOffset=0mm|YOffset=0mm|HoleType=Round|Shape=RoundedRectangle|*
%AMROUNDEDRECTD47*
21,1,1.1032,0.6800,0,0,0.0*
21,1,0.7800,1.0032,0,0,0.0*
1,1,0.3232,0.3900,-0.3400*
1,1,0.3232,-0.3900,-0.3400*
1,1,0.3232,-0.3900,0.3400*
1,1,0.3232,0.3900,0.3400*
%
%ADD47ROUNDEDRECTD47*%
%ADD54C,0.9652*%
%ADD55R,3.2032X3.2032*%
%ADD56C,3.2032*%
%ADD57C,1.7032*%
%ADD58R,1.7032X1.7032*%
%ADD59C,1.8032*%
%ADD60R,1.8032X1.8032*%
%ADD61C,2.2032*%
%ADD62C,7.4000*%
G04:AMPARAMS|DCode=82|XSize=1.1032mm|YSize=1.0032mm|CornerRadius=0.1616mm|HoleSize=0mm|Usage=FLASHONLY|Rotation=90.000|XOffset=0mm|YOffset=0mm|HoleType=Round|Shape=RoundedRectangle|*
%AMROUNDEDRECTD82*
21,1,1.1032,0.6800,0,0,90.0*
21,1,0.7800,1.0032,0,0,90.0*
1,1,0.3232,0.3400,0.3900*
1,1,0.3232,0.3400,-0.3900*
1,1,0.3232,-0.3400,-0.3900*
1,1,0.3232,-0.3400,0.3900*
%
%ADD82ROUNDEDRECTD82*%
G36*
X256410Y84476D02*
X258507Y83950D01*
X252220Y71960D01*
X247680D01*
X241404Y83928D01*
Y83928D01*
X241404D01*
X243501Y84459D01*
X247792Y84997D01*
X252117Y85003D01*
X256410Y84476D01*
D02*
G37*
G36*
X267913Y80069D02*
X269771Y78962D01*
X273185Y76308D01*
X276248Y73254D01*
X278911Y69846D01*
X280022Y67991D01*
X267098Y63958D01*
X263888Y67169D01*
X267913Y80069D01*
X267913Y80069D01*
Y80069D01*
D02*
G37*
G36*
X236042Y67098D02*
X232831Y63888D01*
X219931Y67913D01*
X219931Y67913D01*
X221038Y69771D01*
X223692Y73185D01*
X226746Y76248D01*
X230154Y78910D01*
X232009Y80022D01*
X236042Y67098D01*
D02*
G37*
G36*
X284459Y56499D02*
X284997Y52208D01*
X285003Y47883D01*
X284476Y43590D01*
X283950Y41493D01*
X271960Y47780D01*
Y52320D01*
X283928Y58596D01*
X283928D01*
X284459Y56499D01*
D02*
G37*
G36*
X228040Y52220D02*
Y47680D01*
X216072Y41404D01*
X216072D01*
X216072Y41404D01*
X215541Y43501D01*
X215003Y47792D01*
X214997Y52117D01*
X215524Y56410D01*
X216050Y58507D01*
X228040Y52220D01*
D02*
G37*
G36*
X280069Y32087D02*
X280069Y32087D01*
X280069Y32087D01*
X278962Y30229D01*
X276308Y26815D01*
X273254Y23752D01*
X269846Y21089D01*
X267991Y19978D01*
X263958Y32902D01*
X267169Y36112D01*
X280069Y32087D01*
D02*
G37*
G36*
X236112Y32831D02*
X232087Y19931D01*
X232087Y19931D01*
X232087D01*
X230229Y21038D01*
X226815Y23692D01*
X223752Y26746D01*
X221089Y30154D01*
X219978Y32009D01*
X232902Y36042D01*
X236112Y32831D01*
D02*
G37*
G36*
X258596Y16072D02*
Y16072D01*
Y16072D01*
X256499Y15541D01*
X252208Y15003D01*
X247883Y14997D01*
X243590Y15524D01*
X241493Y16050D01*
X247780Y28040D01*
X252320D01*
X258596Y16072D01*
D02*
G37*
G36*
X606410Y84476D02*
X608507Y83950D01*
X602220Y71960D01*
X597680D01*
X591404Y83928D01*
Y83928D01*
X591404D01*
X593501Y84459D01*
X597792Y84997D01*
X602117Y85003D01*
X606410Y84476D01*
D02*
G37*
G36*
X617913Y80069D02*
X619771Y78962D01*
X623185Y76308D01*
X626248Y73254D01*
X628910Y69846D01*
X630022Y67991D01*
X617098Y63958D01*
X613888Y67169D01*
X617913Y80069D01*
X617913Y80069D01*
Y80069D01*
D02*
G37*
G36*
X586042Y67098D02*
X582831Y63888D01*
X569931Y67913D01*
X569931Y67913D01*
X571038Y69771D01*
X573692Y73185D01*
X576746Y76248D01*
X580154Y78910D01*
X582009Y80022D01*
X586042Y67098D01*
D02*
G37*
G36*
X634459Y56499D02*
X634997Y52208D01*
X635003Y47883D01*
X634476Y43590D01*
X633950Y41493D01*
X621960Y47780D01*
Y52320D01*
X633928Y58596D01*
X633928D01*
X634459Y56499D01*
D02*
G37*
G36*
X578040Y52220D02*
Y47680D01*
X566072Y41404D01*
X566072D01*
X566072Y41404D01*
X565541Y43501D01*
X565003Y47792D01*
X564997Y52117D01*
X565524Y56410D01*
X566050Y58507D01*
X578040Y52220D01*
D02*
G37*
G36*
X630069Y32087D02*
X630069Y32087D01*
X630069Y32087D01*
X628962Y30229D01*
X626308Y26815D01*
X623254Y23752D01*
X619846Y21089D01*
X617991Y19978D01*
X613958Y32902D01*
X617169Y36112D01*
X630069Y32087D01*
D02*
G37*
G36*
X586112Y32831D02*
X582087Y19931D01*
X582087Y19931D01*
X582087D01*
X580229Y21038D01*
X576814Y23692D01*
X573752Y26746D01*
X571090Y30154D01*
X569978Y32009D01*
X582902Y36042D01*
X586112Y32831D01*
D02*
G37*
G36*
X608596Y16072D02*
Y16072D01*
Y16072D01*
X606499Y15541D01*
X602208Y15003D01*
X597883Y14997D01*
X593590Y15524D01*
X591493Y16050D01*
X597780Y28040D01*
X602320D01*
X608596Y16072D01*
D02*
G37*
G36*
X256410Y434476D02*
X258507Y433950D01*
X252220Y421960D01*
X247680D01*
X241404Y433928D01*
Y433928D01*
X241404D01*
X243501Y434459D01*
X247792Y434997D01*
X252117Y435003D01*
X256410Y434476D01*
D02*
G37*
G36*
X267913Y430069D02*
X269771Y428962D01*
X273185Y426308D01*
X276248Y423254D01*
X278911Y419846D01*
X280022Y417991D01*
X267098Y413958D01*
X263888Y417169D01*
X267913Y430069D01*
X267913Y430069D01*
Y430069D01*
D02*
G37*
G36*
X236042Y417098D02*
X232831Y413888D01*
X219931Y417913D01*
X219931Y417913D01*
X221038Y419771D01*
X223692Y423185D01*
X226746Y426248D01*
X230154Y428910D01*
X232009Y430022D01*
X236042Y417098D01*
D02*
G37*
G36*
X284459Y406499D02*
X284997Y402208D01*
X285003Y397883D01*
X284476Y393590D01*
X283950Y391493D01*
X271960Y397780D01*
Y402320D01*
X283928Y408596D01*
X283928D01*
X284459Y406499D01*
D02*
G37*
G36*
X228040Y402220D02*
Y397680D01*
X216072Y391404D01*
X216072D01*
X216072Y391404D01*
X215541Y393501D01*
X215003Y397792D01*
X214997Y402117D01*
X215524Y406410D01*
X216050Y408507D01*
X228040Y402220D01*
D02*
G37*
G36*
X280069Y382087D02*
X280069Y382087D01*
X280069Y382087D01*
X278962Y380229D01*
X276308Y376814D01*
X273254Y373752D01*
X269846Y371090D01*
X267991Y369978D01*
X263958Y382902D01*
X267169Y386112D01*
X280069Y382087D01*
D02*
G37*
G36*
X236112Y382831D02*
X232087Y369931D01*
X232087Y369931D01*
X232087D01*
X230229Y371038D01*
X226815Y373692D01*
X223752Y376746D01*
X221089Y380154D01*
X219978Y382009D01*
X232902Y386042D01*
X236112Y382831D01*
D02*
G37*
G36*
X258596Y366072D02*
Y366072D01*
Y366072D01*
X256499Y365541D01*
X252208Y365003D01*
X247883Y364997D01*
X243590Y365524D01*
X241493Y366050D01*
X247780Y378040D01*
X252320D01*
X258596Y366072D01*
D02*
G37*
G36*
X606410Y434476D02*
X608507Y433950D01*
X602220Y421960D01*
X597680D01*
X591404Y433928D01*
Y433928D01*
X591404D01*
X593501Y434459D01*
X597792Y434997D01*
X602117Y435003D01*
X606410Y434476D01*
D02*
G37*
G36*
X617913Y430069D02*
X619771Y428962D01*
X623185Y426308D01*
X626248Y423254D01*
X628910Y419846D01*
X630022Y417991D01*
X617098Y413958D01*
X613888Y417169D01*
X617913Y430069D01*
X617913Y430069D01*
Y430069D01*
D02*
G37*
G36*
X586042Y417098D02*
X582831Y413888D01*
X569931Y417913D01*
X569931Y417913D01*
X571038Y419771D01*
X573692Y423185D01*
X576746Y426248D01*
X580154Y428910D01*
X582009Y430022D01*
X586042Y417098D01*
D02*
G37*
G36*
X634459Y406499D02*
X634997Y402208D01*
X635003Y397883D01*
X634476Y393590D01*
X633950Y391493D01*
X621960Y397780D01*
Y402320D01*
X633928Y408596D01*
X633928D01*
X634459Y406499D01*
D02*
G37*
G36*
X578040Y402220D02*
Y397680D01*
X566072Y391404D01*
X566072D01*
X566072Y391404D01*
X565541Y393501D01*
X565003Y397792D01*
X564997Y402117D01*
X565524Y406410D01*
X566050Y408507D01*
X578040Y402220D01*
D02*
G37*
G36*
X630069Y382087D02*
X630069Y382087D01*
X630069Y382087D01*
X628962Y380229D01*
X626308Y376815D01*
X623254Y373752D01*
X619846Y371090D01*
X617991Y369978D01*
X613958Y382902D01*
X617169Y386112D01*
X630069Y382087D01*
D02*
G37*
G36*
X586112Y382831D02*
X582087Y369931D01*
X582087Y369931D01*
X582087D01*
X580229Y371038D01*
X576814Y373692D01*
X573752Y376746D01*
X571090Y380154D01*
X569978Y382009D01*
X582902Y386042D01*
X586112Y382831D01*
D02*
G37*
G36*
X608596Y366072D02*
Y366072D01*
Y366072D01*
X606499Y365541D01*
X602208Y365003D01*
X597883Y364997D01*
X593590Y365524D01*
X591493Y366050D01*
X597780Y378040D01*
X602320D01*
X608596Y366072D01*
D02*
G37*
D17*
X688000Y165628D02*
Y140636D01*
X700496D01*
X704661Y144802D01*
Y148967D01*
X700496Y153132D01*
X688000D01*
X700496D01*
X704661Y157298D01*
Y161463D01*
X700496Y165628D01*
X688000D01*
X725488D02*
X717157D01*
X712992Y161463D01*
Y144802D01*
X717157Y140636D01*
X725488D01*
X729653Y144802D01*
Y161463D01*
X725488Y165628D01*
X737984D02*
X754645D01*
X746314D01*
Y140636D01*
X804629Y161463D02*
X800464Y165628D01*
X792133D01*
X787968Y161463D01*
Y157298D01*
X792133Y153132D01*
X800464D01*
X804629Y148967D01*
Y144802D01*
X800464Y140636D01*
X792133D01*
X787968Y144802D01*
X825456Y165628D02*
X817125D01*
X812960Y161463D01*
Y144802D01*
X817125Y140636D01*
X825456D01*
X829621Y144802D01*
Y161463D01*
X825456Y165628D01*
X837952D02*
Y140636D01*
X854613D01*
X862943Y165628D02*
Y140636D01*
X875439D01*
X879605Y144802D01*
Y161463D01*
X875439Y165628D01*
X862943D01*
X904597D02*
X887935D01*
Y140636D01*
X904597D01*
X887935Y153132D02*
X896266D01*
X912927Y140636D02*
Y165628D01*
X925423D01*
X929589Y161463D01*
Y153132D01*
X925423Y148967D01*
X912927D01*
X921258D02*
X929589Y140636D01*
X962911D02*
Y165628D01*
X971242Y157298D01*
X979572Y165628D01*
Y140636D01*
X987903D02*
Y157298D01*
X996234Y165628D01*
X1004564Y157298D01*
Y140636D01*
Y153132D01*
X987903D01*
X1029556Y161463D02*
X1025391Y165628D01*
X1017060D01*
X1012895Y161463D01*
Y157298D01*
X1017060Y153132D01*
X1025391D01*
X1029556Y148967D01*
Y144802D01*
X1025391Y140636D01*
X1017060D01*
X1012895Y144802D01*
X1037887Y165628D02*
Y140636D01*
Y148967D01*
X1054548Y165628D01*
X1042052Y153132D01*
X1054548Y140636D01*
D40*
X405000Y284500D02*
D03*
Y305500D02*
D03*
X425000Y284500D02*
D03*
Y305500D02*
D03*
X445000Y284500D02*
D03*
Y305500D02*
D03*
D46*
X590000Y345000D02*
D03*
Y125000D02*
D03*
X545000Y260000D02*
D03*
X485000Y180000D02*
D03*
Y200000D02*
D03*
D47*
X468500D02*
D03*
X451500D02*
D03*
X451500Y180000D02*
D03*
X468500D02*
D03*
X511500Y260000D02*
D03*
X528500D02*
D03*
X518500Y65000D02*
D03*
X501500D02*
D03*
X483500D02*
D03*
X466500D02*
D03*
D54*
X200000Y375400D02*
D03*
Y324600D02*
D03*
Y350000D02*
D03*
Y135400D02*
D03*
Y84600D02*
D03*
Y110000D02*
D03*
D55*
X260000Y145000D02*
D03*
X41604Y277000D02*
D03*
D56*
X260000Y195000D02*
D03*
X41604Y177000D02*
D03*
Y227000D02*
D03*
D57*
X502700Y100000D02*
D03*
X477300Y100000D02*
D03*
X451900D02*
D03*
D58*
X528100Y100000D02*
D03*
D59*
X490000Y410000D02*
D03*
X465000D02*
D03*
X350000D02*
D03*
X325000D02*
D03*
X490000Y40000D02*
D03*
X515000D02*
D03*
X360000D02*
D03*
X385000D02*
D03*
D60*
X515000Y410000D02*
D03*
X375000D02*
D03*
X465000Y40000D02*
D03*
X335000D02*
D03*
D61*
X16104Y332000D02*
D03*
X67104D02*
D03*
D62*
X600000Y400000D02*
D03*
X250000Y400000D02*
D03*
X600000Y50000D02*
D03*
X250000D02*
D03*
D82*
X605000Y106500D02*
D03*
Y123500D02*
D03*
X620000Y326500D02*
D03*
Y343500D02*
D03*
X355000Y148500D02*
D03*
Y131500D02*
D03*
X330000Y148500D02*
D03*
Y131500D02*
D03*
X620000Y106500D02*
D03*
Y123500D02*
D03*
X605000Y326500D02*
D03*
Y343500D02*
D03*
M02*
