M48
;Layer_Color=9474304
;FILE_FORMAT=4:4
METRIC,TZ
;TYPE=PLATED
T1F00S00C0.3000
T2F00S00C0.6000
T3F00S00C0.7000
T4F00S00C0.9000
T5F00S00C1.0000
T6F00S00C1.5000
T7F00S00C3.4000
;TYPE=NON_PLATED
T8F00S00C0.7620
%
T01
X308228Y92943
X350500Y86000
X366000Y131000
X388000Y116000
X483500Y76500
X605000Y101000
X620000
X599000Y126000
X605000Y321000
X620000Y321000
X598750Y345750
X541772Y357057
X500000Y366000
X402772Y357057
X399000Y315000
X409333
X419667
X430000
X360500Y364000
X292000Y331000
Y319000
X290000Y288000
Y275000
X305000
Y288000
X275000
Y275000
X330000Y156000
X355000
X445662Y178336
X468000Y171000
Y191000
X505000Y164000
X525000
X511000Y254000
X529000Y272000
T02
X16104Y332000
T03
X67104Y332000
T04
X335000Y40000
X385000
X465000
X515000
Y410000
X465000
X375000
X325000
T05
X360000Y40000
X490000
X477300Y100000
X502700Y100000
X528100
X451900Y100000
X490000Y410000
X350000
T06
X260000Y145000
Y195000
X41604Y177000
Y227000
Y277000
T07
X250000Y50000
X600000
Y400000
X250000Y400000
T08
X200000Y84600
Y110000
Y135400
Y324600
Y350000
Y375400
M30
