G04*
G04 #@! TF.GenerationSoftware,Altium Limited,Altium Designer,23.4.1 (23)*
G04*
G04 Layer_Color=8421504*
%FSLAX44Y44*%
%MOMM*%
G71*
G04*
G04 #@! TF.SameCoordinates,AC87B314-1984-4FFE-BA22-F28876D7C55D*
G04*
G04*
G04 #@! TF.FilePolarity,Positive*
G04*
G01*
G75*
%ADD17C,0.4000*%
%ADD28R,0.9906X0.7112*%
G04:AMPARAMS|DCode=29|XSize=0.9mm|YSize=1.4mm|CornerRadius=0.0675mm|HoleSize=0mm|Usage=FLASHONLY|Rotation=270.000|XOffset=0mm|YOffset=0mm|HoleType=Round|Shape=RoundedRectangle|*
%AMROUNDEDRECTD29*
21,1,0.9000,1.2650,0,0,270.0*
21,1,0.7650,1.4000,0,0,270.0*
1,1,0.1350,-0.6325,-0.3825*
1,1,0.1350,-0.6325,0.3825*
1,1,0.1350,0.6325,0.3825*
1,1,0.1350,0.6325,-0.3825*
%
%ADD29ROUNDEDRECTD29*%
G04:AMPARAMS|DCode=30|XSize=1.5mm|YSize=2mm|CornerRadius=0.1875mm|HoleSize=0mm|Usage=FLASHONLY|Rotation=270.000|XOffset=0mm|YOffset=0mm|HoleType=Round|Shape=RoundedRectangle|*
%AMROUNDEDRECTD30*
21,1,1.5000,1.6250,0,0,270.0*
21,1,1.1250,2.0000,0,0,270.0*
1,1,0.3750,-0.8125,-0.5625*
1,1,0.3750,-0.8125,0.5625*
1,1,0.3750,0.8125,0.5625*
1,1,0.3750,0.8125,-0.5625*
%
%ADD30ROUNDEDRECTD30*%
G04:AMPARAMS|DCode=31|XSize=3.8mm|YSize=2mm|CornerRadius=0.05mm|HoleSize=0mm|Usage=FLASHONLY|Rotation=270.000|XOffset=0mm|YOffset=0mm|HoleType=Round|Shape=RoundedRectangle|*
%AMROUNDEDRECTD31*
21,1,3.8000,1.9000,0,0,270.0*
21,1,3.7000,2.0000,0,0,270.0*
1,1,0.1000,-0.9500,-1.8500*
1,1,0.1000,-0.9500,1.8500*
1,1,0.1000,0.9500,1.8500*
1,1,0.1000,0.9500,-1.8500*
%
%ADD31ROUNDEDRECTD31*%
G04:AMPARAMS|DCode=32|XSize=0.9mm|YSize=1.4mm|CornerRadius=0.0675mm|HoleSize=0mm|Usage=FLASHONLY|Rotation=0.000|XOffset=0mm|YOffset=0mm|HoleType=Round|Shape=RoundedRectangle|*
%AMROUNDEDRECTD32*
21,1,0.9000,1.2650,0,0,0.0*
21,1,0.7650,1.4000,0,0,0.0*
1,1,0.1350,0.3825,-0.6325*
1,1,0.1350,-0.3825,-0.6325*
1,1,0.1350,-0.3825,0.6325*
1,1,0.1350,0.3825,0.6325*
%
%ADD32ROUNDEDRECTD32*%
G04:AMPARAMS|DCode=33|XSize=0.8mm|YSize=0.9mm|CornerRadius=0.06mm|HoleSize=0mm|Usage=FLASHONLY|Rotation=90.000|XOffset=0mm|YOffset=0mm|HoleType=Round|Shape=RoundedRectangle|*
%AMROUNDEDRECTD33*
21,1,0.8000,0.7800,0,0,90.0*
21,1,0.6800,0.9000,0,0,90.0*
1,1,0.1200,0.3900,0.3400*
1,1,0.1200,0.3900,-0.3400*
1,1,0.1200,-0.3900,-0.3400*
1,1,0.1200,-0.3900,0.3400*
%
%ADD33ROUNDEDRECTD33*%
G04:AMPARAMS|DCode=34|XSize=0.9mm|YSize=0.8mm|CornerRadius=0.06mm|HoleSize=0mm|Usage=FLASHONLY|Rotation=0.000|XOffset=0mm|YOffset=0mm|HoleType=Round|Shape=RoundedRectangle|*
%AMROUNDEDRECTD34*
21,1,0.9000,0.6800,0,0,0.0*
21,1,0.7800,0.8000,0,0,0.0*
1,1,0.1200,0.3900,-0.3400*
1,1,0.1200,-0.3900,-0.3400*
1,1,0.1200,-0.3900,0.3400*
1,1,0.1200,0.3900,0.3400*
%
%ADD34ROUNDEDRECTD34*%
%ADD35R,1.2000X2.0000*%
%ADD36R,1.7000X1.1000*%
G04:AMPARAMS|DCode=37|XSize=2mm|YSize=4mm|CornerRadius=0.2mm|HoleSize=0mm|Usage=FLASHONLY|Rotation=90.000|XOffset=0mm|YOffset=0mm|HoleType=Round|Shape=RoundedRectangle|*
%AMROUNDEDRECTD37*
21,1,2.0000,3.6000,0,0,90.0*
21,1,1.6000,4.0000,0,0,90.0*
1,1,0.4000,1.8000,0.8000*
1,1,0.4000,1.8000,-0.8000*
1,1,0.4000,-1.8000,-0.8000*
1,1,0.4000,-1.8000,0.8000*
%
%ADD37ROUNDEDRECTD37*%
G04:AMPARAMS|DCode=38|XSize=3mm|YSize=4mm|CornerRadius=0.3mm|HoleSize=0mm|Usage=FLASHONLY|Rotation=90.000|XOffset=0mm|YOffset=0mm|HoleType=Round|Shape=RoundedRectangle|*
%AMROUNDEDRECTD38*
21,1,3.0000,3.4000,0,0,90.0*
21,1,2.4000,4.0000,0,0,90.0*
1,1,0.6000,1.7000,1.2000*
1,1,0.6000,1.7000,-1.2000*
1,1,0.6000,-1.7000,-1.2000*
1,1,0.6000,-1.7000,1.2000*
%
%ADD38ROUNDEDRECTD38*%
G36*
X256410Y84476D02*
X258507Y83950D01*
X252220Y71960D01*
X247680D01*
X241404Y83928D01*
Y83928D01*
X241404D01*
X243501Y84459D01*
X247792Y84997D01*
X252117Y85003D01*
X256410Y84476D01*
D02*
G37*
G36*
X267913Y80069D02*
X269771Y78962D01*
X273185Y76308D01*
X276248Y73254D01*
X278911Y69846D01*
X280022Y67991D01*
X267098Y63958D01*
X263888Y67169D01*
X267913Y80069D01*
X267913Y80069D01*
Y80069D01*
D02*
G37*
G36*
X236042Y67098D02*
X232831Y63888D01*
X219931Y67913D01*
X219931Y67913D01*
X221038Y69771D01*
X223692Y73185D01*
X226746Y76248D01*
X230154Y78910D01*
X232009Y80022D01*
X236042Y67098D01*
D02*
G37*
G36*
X284459Y56499D02*
X284997Y52208D01*
X285003Y47883D01*
X284476Y43590D01*
X283950Y41493D01*
X271960Y47780D01*
Y52320D01*
X283928Y58596D01*
X283928D01*
X284459Y56499D01*
D02*
G37*
G36*
X228040Y52220D02*
Y47680D01*
X216072Y41404D01*
X216072D01*
X216072Y41404D01*
X215541Y43501D01*
X215003Y47792D01*
X214997Y52117D01*
X215524Y56410D01*
X216050Y58507D01*
X228040Y52220D01*
D02*
G37*
G36*
X280069Y32087D02*
X280069Y32087D01*
X280069Y32087D01*
X278962Y30229D01*
X276308Y26815D01*
X273254Y23752D01*
X269846Y21089D01*
X267991Y19978D01*
X263958Y32902D01*
X267169Y36112D01*
X280069Y32087D01*
D02*
G37*
G36*
X236112Y32831D02*
X232087Y19931D01*
X232087Y19931D01*
X232087D01*
X230229Y21038D01*
X226815Y23692D01*
X223752Y26746D01*
X221089Y30154D01*
X219978Y32009D01*
X232902Y36042D01*
X236112Y32831D01*
D02*
G37*
G36*
X258596Y16072D02*
Y16072D01*
Y16072D01*
X256499Y15541D01*
X252208Y15003D01*
X247883Y14997D01*
X243590Y15524D01*
X241493Y16050D01*
X247780Y28040D01*
X252320D01*
X258596Y16072D01*
D02*
G37*
G36*
X606410Y84476D02*
X608507Y83950D01*
X602220Y71960D01*
X597680D01*
X591404Y83928D01*
Y83928D01*
X591404D01*
X593501Y84459D01*
X597792Y84997D01*
X602117Y85003D01*
X606410Y84476D01*
D02*
G37*
G36*
X617913Y80069D02*
X619771Y78962D01*
X623185Y76308D01*
X626248Y73254D01*
X628910Y69846D01*
X630022Y67991D01*
X617098Y63958D01*
X613888Y67169D01*
X617913Y80069D01*
X617913Y80069D01*
Y80069D01*
D02*
G37*
G36*
X586042Y67098D02*
X582831Y63888D01*
X569931Y67913D01*
X569931Y67913D01*
X571038Y69771D01*
X573692Y73185D01*
X576746Y76248D01*
X580154Y78910D01*
X582009Y80022D01*
X586042Y67098D01*
D02*
G37*
G36*
X634459Y56499D02*
X634997Y52208D01*
X635003Y47883D01*
X634476Y43590D01*
X633950Y41493D01*
X621960Y47780D01*
Y52320D01*
X633928Y58596D01*
X633928D01*
X634459Y56499D01*
D02*
G37*
G36*
X578040Y52220D02*
Y47680D01*
X566072Y41404D01*
X566072D01*
X566072Y41404D01*
X565541Y43501D01*
X565003Y47792D01*
X564997Y52117D01*
X565524Y56410D01*
X566050Y58507D01*
X578040Y52220D01*
D02*
G37*
G36*
X630069Y32087D02*
X630069Y32087D01*
X630069Y32087D01*
X628962Y30229D01*
X626308Y26815D01*
X623254Y23752D01*
X619846Y21089D01*
X617991Y19978D01*
X613958Y32902D01*
X617169Y36112D01*
X630069Y32087D01*
D02*
G37*
G36*
X586112Y32831D02*
X582087Y19931D01*
X582087Y19931D01*
X582087D01*
X580229Y21038D01*
X576814Y23692D01*
X573752Y26746D01*
X571090Y30154D01*
X569978Y32009D01*
X582902Y36042D01*
X586112Y32831D01*
D02*
G37*
G36*
X608596Y16072D02*
Y16072D01*
Y16072D01*
X606499Y15541D01*
X602208Y15003D01*
X597883Y14997D01*
X593590Y15524D01*
X591493Y16050D01*
X597780Y28040D01*
X602320D01*
X608596Y16072D01*
D02*
G37*
G36*
X256410Y434476D02*
X258507Y433950D01*
X252220Y421960D01*
X247680D01*
X241404Y433928D01*
Y433928D01*
X241404D01*
X243501Y434459D01*
X247792Y434997D01*
X252117Y435003D01*
X256410Y434476D01*
D02*
G37*
G36*
X267913Y430069D02*
X269771Y428962D01*
X273185Y426308D01*
X276248Y423254D01*
X278911Y419846D01*
X280022Y417991D01*
X267098Y413958D01*
X263888Y417169D01*
X267913Y430069D01*
X267913Y430069D01*
Y430069D01*
D02*
G37*
G36*
X236042Y417098D02*
X232831Y413888D01*
X219931Y417913D01*
X219931Y417913D01*
X221038Y419771D01*
X223692Y423185D01*
X226746Y426248D01*
X230154Y428910D01*
X232009Y430022D01*
X236042Y417098D01*
D02*
G37*
G36*
X284459Y406499D02*
X284997Y402208D01*
X285003Y397883D01*
X284476Y393590D01*
X283950Y391493D01*
X271960Y397780D01*
Y402320D01*
X283928Y408596D01*
X283928D01*
X284459Y406499D01*
D02*
G37*
G36*
X228040Y402220D02*
Y397680D01*
X216072Y391404D01*
X216072D01*
X216072Y391404D01*
X215541Y393501D01*
X215003Y397792D01*
X214997Y402117D01*
X215524Y406410D01*
X216050Y408507D01*
X228040Y402220D01*
D02*
G37*
G36*
X280069Y382087D02*
X280069Y382087D01*
X280069Y382087D01*
X278962Y380229D01*
X276308Y376814D01*
X273254Y373752D01*
X269846Y371090D01*
X267991Y369978D01*
X263958Y382902D01*
X267169Y386112D01*
X280069Y382087D01*
D02*
G37*
G36*
X236112Y382831D02*
X232087Y369931D01*
X232087Y369931D01*
X232087D01*
X230229Y371038D01*
X226815Y373692D01*
X223752Y376746D01*
X221089Y380154D01*
X219978Y382009D01*
X232902Y386042D01*
X236112Y382831D01*
D02*
G37*
G36*
X258596Y366072D02*
Y366072D01*
Y366072D01*
X256499Y365541D01*
X252208Y365003D01*
X247883Y364997D01*
X243590Y365524D01*
X241493Y366050D01*
X247780Y378040D01*
X252320D01*
X258596Y366072D01*
D02*
G37*
G36*
X606410Y434476D02*
X608507Y433950D01*
X602220Y421960D01*
X597680D01*
X591404Y433928D01*
Y433928D01*
X591404D01*
X593501Y434459D01*
X597792Y434997D01*
X602117Y435003D01*
X606410Y434476D01*
D02*
G37*
G36*
X617913Y430069D02*
X619771Y428962D01*
X623185Y426308D01*
X626248Y423254D01*
X628910Y419846D01*
X630022Y417991D01*
X617098Y413958D01*
X613888Y417169D01*
X617913Y430069D01*
X617913Y430069D01*
Y430069D01*
D02*
G37*
G36*
X586042Y417098D02*
X582831Y413888D01*
X569931Y417913D01*
X569931Y417913D01*
X571038Y419771D01*
X573692Y423185D01*
X576746Y426248D01*
X580154Y428910D01*
X582009Y430022D01*
X586042Y417098D01*
D02*
G37*
G36*
X634459Y406499D02*
X634997Y402208D01*
X635003Y397883D01*
X634476Y393590D01*
X633950Y391493D01*
X621960Y397780D01*
Y402320D01*
X633928Y408596D01*
X633928D01*
X634459Y406499D01*
D02*
G37*
G36*
X578040Y402220D02*
Y397680D01*
X566072Y391404D01*
X566072D01*
X566072Y391404D01*
X565541Y393501D01*
X565003Y397792D01*
X564997Y402117D01*
X565524Y406410D01*
X566050Y408507D01*
X578040Y402220D01*
D02*
G37*
G36*
X630069Y382087D02*
X630069Y382087D01*
X630069Y382087D01*
X628962Y380229D01*
X626308Y376815D01*
X623254Y373752D01*
X619846Y371090D01*
X617991Y369978D01*
X613958Y382902D01*
X617169Y386112D01*
X630069Y382087D01*
D02*
G37*
G36*
X586112Y382831D02*
X582087Y369931D01*
X582087Y369931D01*
X582087D01*
X580229Y371038D01*
X576814Y373692D01*
X573752Y376746D01*
X571090Y380154D01*
X569978Y382009D01*
X582902Y386042D01*
X586112Y382831D01*
D02*
G37*
G36*
X608596Y366072D02*
Y366072D01*
Y366072D01*
X606499Y365541D01*
X602208Y365003D01*
X597883Y364997D01*
X593590Y365524D01*
X591493Y366050D01*
X597780Y378040D01*
X602320D01*
X608596Y366072D01*
D02*
G37*
D17*
X688000Y209174D02*
X704661D01*
X696331D01*
Y184182D01*
X725488Y209174D02*
X717157D01*
X712992Y205008D01*
Y188347D01*
X717157Y184182D01*
X725488D01*
X729653Y188347D01*
Y205008D01*
X725488Y209174D01*
X737984Y184182D02*
Y209174D01*
X750480D01*
X754645Y205008D01*
Y196678D01*
X750480Y192512D01*
X737984D01*
X787968Y184182D02*
Y209174D01*
X800464D01*
X804629Y205008D01*
Y196678D01*
X800464Y192512D01*
X787968D01*
X812960Y184182D02*
Y200843D01*
X821290Y209174D01*
X829621Y200843D01*
Y184182D01*
Y196678D01*
X812960D01*
X854613Y205008D02*
X850447Y209174D01*
X842117D01*
X837952Y205008D01*
Y200843D01*
X842117Y196678D01*
X850447D01*
X854613Y192512D01*
Y188347D01*
X850447Y184182D01*
X842117D01*
X837952Y188347D01*
X862943Y209174D02*
X879605D01*
X871274D01*
Y184182D01*
X904597Y209174D02*
X887935D01*
Y184182D01*
X904597D01*
X887935Y196678D02*
X896266D01*
X937919Y184182D02*
Y209174D01*
X946250Y200843D01*
X954581Y209174D01*
Y184182D01*
X962911D02*
Y200843D01*
X971242Y209174D01*
X979572Y200843D01*
Y184182D01*
Y196678D01*
X962911D01*
X1004564Y205008D02*
X1000399Y209174D01*
X992068D01*
X987903Y205008D01*
Y200843D01*
X992068Y196678D01*
X1000399D01*
X1004564Y192512D01*
Y188347D01*
X1000399Y184182D01*
X992068D01*
X987903Y188347D01*
X1012895Y209174D02*
Y184182D01*
Y192512D01*
X1029556Y209174D01*
X1017060Y196678D01*
X1029556Y184182D01*
D28*
X592500Y345750D02*
D03*
X637500D02*
D03*
X592500Y324250D02*
D03*
X637500D02*
D03*
X592500Y125750D02*
D03*
X637500D02*
D03*
X592500Y104250D02*
D03*
X637500D02*
D03*
D29*
X230000Y290500D02*
D03*
Y269500D02*
D03*
D30*
X260000Y257000D02*
D03*
Y303000D02*
D03*
Y280000D02*
D03*
D31*
X322000D02*
D03*
D32*
X264500Y325000D02*
D03*
X285500D02*
D03*
X320500Y325000D02*
D03*
X299500D02*
D03*
D33*
X355000Y162500D02*
D03*
Y177500D02*
D03*
X330000Y162500D02*
D03*
Y177500D02*
D03*
D34*
X499500Y371000D02*
D03*
X482500D02*
D03*
X360500D02*
D03*
X343500D02*
D03*
X350500Y79000D02*
D03*
X367500D02*
D03*
D35*
X565000Y300000D02*
D03*
X545000D02*
D03*
X525000D02*
D03*
X505000D02*
D03*
X485000D02*
D03*
X465000D02*
D03*
X445000D02*
D03*
X425000D02*
D03*
Y150000D02*
D03*
X445000D02*
D03*
X465000D02*
D03*
X485000D02*
D03*
X505000D02*
D03*
X525000D02*
D03*
X545000D02*
D03*
X565000D02*
D03*
D36*
X410000Y275000D02*
D03*
Y255000D02*
D03*
Y235000D02*
D03*
Y215000D02*
D03*
Y195000D02*
D03*
Y175000D02*
D03*
D37*
X139104Y115000D02*
D03*
Y146000D02*
D03*
D38*
Y275000D02*
D03*
Y321000D02*
D03*
M02*
