G04*
G04 #@! TF.GenerationSoftware,Altium Limited,Altium Designer,23.4.1 (23)*
G04*
G04 Layer_Physical_Order=2*
G04 Layer_Color=36540*
%FSLAX44Y44*%
%MOMM*%
G71*
G04*
G04 #@! TF.SameCoordinates,AC87B314-1984-4FFE-BA22-F28876D7C55D*
G04*
G04*
G04 #@! TF.FilePolarity,Positive*
G04*
G01*
G75*
%ADD17C,0.4000*%
%ADD71R,3.0000X3.0000*%
%ADD73C,1.5000*%
%ADD75C,1.6000*%
%ADD79C,0.5000*%
%ADD80C,4.0000*%
G36*
X600000Y450000D02*
X600000Y450000D01*
X603277D01*
X609775Y449144D01*
X616106Y447448D01*
X622162Y444940D01*
X627838Y441663D01*
X633038Y437673D01*
X637673Y433038D01*
X641663Y427838D01*
X644940Y422162D01*
X647448Y416106D01*
X649144Y409775D01*
X650000Y403277D01*
X650000Y400000D01*
X650000Y306443D01*
X580096D01*
X579139Y306047D01*
X578743Y305090D01*
Y145000D01*
X579139Y144043D01*
X580096Y143647D01*
X650000D01*
X650000Y50000D01*
X650000D01*
Y46723D01*
X649144Y40225D01*
X647448Y33893D01*
X644940Y27838D01*
X641663Y22162D01*
X637673Y16962D01*
X633038Y12327D01*
X627838Y8337D01*
X622162Y5060D01*
X616106Y2552D01*
X609775Y856D01*
X603277Y0D01*
X600000D01*
X250000Y0D01*
Y0D01*
X246723D01*
X240225Y856D01*
X233894Y2552D01*
X227838Y5060D01*
X222162Y8337D01*
X216962Y12327D01*
X212327Y16962D01*
X208337Y22162D01*
X205060Y27838D01*
X202552Y33893D01*
X200856Y40225D01*
X200000Y46723D01*
Y50000D01*
Y71900D01*
X208890Y80790D01*
Y139210D01*
X200000Y148100D01*
X200000Y311900D01*
X208890Y320790D01*
Y379210D01*
X200000Y388100D01*
Y398804D01*
X200000Y400000D01*
X200000Y400000D01*
X200000Y400000D01*
X200000Y403277D01*
X200856Y409775D01*
X202552Y416106D01*
X205060Y422162D01*
X208337Y427838D01*
X212327Y433038D01*
X216962Y437673D01*
X222162Y441663D01*
X227838Y444940D01*
X233894Y447448D01*
X240224Y449145D01*
X246723Y450000D01*
X250000D01*
X600000Y450000D01*
X600000Y450000D01*
D02*
G37*
%LPC*%
G36*
X524250Y419250D02*
X505750D01*
Y400750D01*
X524250D01*
Y419250D01*
D02*
G37*
G36*
X491218D02*
X488782D01*
X486430Y418620D01*
X484320Y417402D01*
X482598Y415680D01*
X481380Y413570D01*
X480750Y411218D01*
Y408782D01*
X481380Y406430D01*
X482598Y404320D01*
X484320Y402598D01*
X486430Y401380D01*
X488782Y400750D01*
X491218D01*
X493570Y401380D01*
X495680Y402598D01*
X497402Y404320D01*
X498620Y406430D01*
X499250Y408782D01*
Y411218D01*
X498620Y413570D01*
X497402Y415680D01*
X495680Y417402D01*
X493570Y418620D01*
X491218Y419250D01*
D02*
G37*
G36*
X384250D02*
X365750D01*
Y400750D01*
X384250D01*
Y419250D01*
D02*
G37*
G36*
X351218D02*
X348782D01*
X346430Y418620D01*
X344320Y417402D01*
X342598Y415680D01*
X341380Y413570D01*
X340750Y411218D01*
Y408782D01*
X341380Y406430D01*
X342598Y404320D01*
X344320Y402598D01*
X346430Y401380D01*
X348782Y400750D01*
X351218D01*
X353570Y401380D01*
X355680Y402598D01*
X357402Y404320D01*
X358620Y406430D01*
X359250Y408782D01*
Y411218D01*
X358620Y413570D01*
X357402Y415680D01*
X355680Y417402D01*
X353570Y418620D01*
X351218Y419250D01*
D02*
G37*
G36*
X500746Y369750D02*
X499254D01*
X497876Y369179D01*
X496821Y368124D01*
X496250Y366746D01*
Y365254D01*
X496821Y363876D01*
X497876Y362821D01*
X499254Y362250D01*
X500746D01*
X502124Y362821D01*
X503179Y363876D01*
X503750Y365254D01*
Y366746D01*
X503179Y368124D01*
X502124Y369179D01*
X500746Y369750D01*
D02*
G37*
G36*
X361246Y367750D02*
X359754D01*
X358376Y367179D01*
X357321Y366124D01*
X356750Y364746D01*
Y363254D01*
X357321Y361876D01*
X358376Y360821D01*
X359754Y360250D01*
X361246D01*
X362624Y360821D01*
X363679Y361876D01*
X364250Y363254D01*
Y364746D01*
X363679Y366124D01*
X362624Y367179D01*
X361246Y367750D01*
D02*
G37*
G36*
X542518Y360807D02*
X541027D01*
X539648Y360236D01*
X538593Y359181D01*
X538022Y357803D01*
Y356311D01*
X538593Y354933D01*
X539648Y353878D01*
X541027Y353307D01*
X542518D01*
X543897Y353878D01*
X544952Y354933D01*
X545522Y356311D01*
Y357803D01*
X544952Y359181D01*
X543897Y360236D01*
X542518Y360807D01*
D02*
G37*
G36*
X403518D02*
X402027D01*
X400648Y360236D01*
X399593Y359181D01*
X399022Y357803D01*
Y356311D01*
X399593Y354933D01*
X400648Y353878D01*
X402027Y353307D01*
X403518D01*
X404897Y353878D01*
X405952Y354933D01*
X406522Y356311D01*
Y357803D01*
X405952Y359181D01*
X404897Y360236D01*
X403518Y360807D01*
D02*
G37*
G36*
X599496Y349500D02*
X598004D01*
X596626Y348929D01*
X595571Y347874D01*
X595000Y346496D01*
Y345004D01*
X595571Y343626D01*
X596626Y342571D01*
X598004Y342000D01*
X599496D01*
X600874Y342571D01*
X601929Y343626D01*
X602500Y345004D01*
Y346496D01*
X601929Y347874D01*
X600874Y348929D01*
X599496Y349500D01*
D02*
G37*
G36*
X292746Y334750D02*
X291254D01*
X289876Y334179D01*
X288821Y333124D01*
X288250Y331746D01*
Y330254D01*
X288821Y328876D01*
X289876Y327821D01*
X291254Y327250D01*
X292746D01*
X294124Y327821D01*
X295179Y328876D01*
X295750Y330254D01*
Y331746D01*
X295179Y333124D01*
X294124Y334179D01*
X292746Y334750D01*
D02*
G37*
G36*
X620746Y324750D02*
X619254D01*
X617876Y324179D01*
X616821Y323124D01*
X616250Y321746D01*
Y320254D01*
X616821Y318876D01*
X617876Y317821D01*
X619254Y317250D01*
X620746D01*
X622124Y317821D01*
X623179Y318876D01*
X623750Y320254D01*
Y321746D01*
X623179Y323124D01*
X622124Y324179D01*
X620746Y324750D01*
D02*
G37*
G36*
X292746Y322750D02*
X291254D01*
X289876Y322179D01*
X288821Y321124D01*
X288250Y319746D01*
Y318254D01*
X288821Y316876D01*
X289876Y315821D01*
X291254Y315250D01*
X292746D01*
X294124Y315821D01*
X295179Y316876D01*
X295750Y318254D01*
Y319746D01*
X295179Y321124D01*
X294124Y322179D01*
X292746Y322750D01*
D02*
G37*
G36*
X430746Y318750D02*
X429254D01*
X427876Y318179D01*
X426821Y317124D01*
X426250Y315746D01*
Y314254D01*
X426821Y312876D01*
X427876Y311821D01*
X429254Y311250D01*
X430746D01*
X432124Y311821D01*
X433179Y312876D01*
X433750Y314254D01*
Y315746D01*
X433179Y317124D01*
X432124Y318179D01*
X430746Y318750D01*
D02*
G37*
G36*
X420413D02*
X418921D01*
X417542Y318179D01*
X416488Y317124D01*
X415917Y315746D01*
Y314254D01*
X416488Y312876D01*
X417542Y311821D01*
X418921Y311250D01*
X420413D01*
X421791Y311821D01*
X422846Y312876D01*
X423417Y314254D01*
Y315746D01*
X422846Y317124D01*
X421791Y318179D01*
X420413Y318750D01*
D02*
G37*
G36*
X410079D02*
X408587D01*
X407209Y318179D01*
X406154Y317124D01*
X405583Y315746D01*
Y314254D01*
X406154Y312876D01*
X407209Y311821D01*
X408587Y311250D01*
X410079D01*
X411457Y311821D01*
X412512Y312876D01*
X413083Y314254D01*
Y315746D01*
X412512Y317124D01*
X411457Y318179D01*
X410079Y318750D01*
D02*
G37*
G36*
X399746D02*
X398254D01*
X396876Y318179D01*
X395821Y317124D01*
X395250Y315746D01*
Y314254D01*
X395821Y312876D01*
X396876Y311821D01*
X398254Y311250D01*
X399746D01*
X401124Y311821D01*
X402179Y312876D01*
X402750Y314254D01*
Y315746D01*
X402179Y317124D01*
X401124Y318179D01*
X399746Y318750D01*
D02*
G37*
G36*
X305746Y291750D02*
X304254D01*
X302876Y291179D01*
X301821Y290124D01*
X301250Y288746D01*
Y287254D01*
X301821Y285876D01*
X302876Y284821D01*
X304254Y284250D01*
X305746D01*
X307124Y284821D01*
X308179Y285876D01*
X308750Y287254D01*
Y288746D01*
X308179Y290124D01*
X307124Y291179D01*
X305746Y291750D01*
D02*
G37*
G36*
X290746D02*
X289254D01*
X287876Y291179D01*
X286821Y290124D01*
X286250Y288746D01*
Y287254D01*
X286821Y285876D01*
X287876Y284821D01*
X289254Y284250D01*
X290746D01*
X292124Y284821D01*
X293179Y285876D01*
X293750Y287254D01*
Y288746D01*
X293179Y290124D01*
X292124Y291179D01*
X290746Y291750D01*
D02*
G37*
G36*
X275746D02*
X274254D01*
X272876Y291179D01*
X271821Y290124D01*
X271250Y288746D01*
Y287254D01*
X271821Y285876D01*
X272876Y284821D01*
X274254Y284250D01*
X275746D01*
X277124Y284821D01*
X278179Y285876D01*
X278750Y287254D01*
Y288746D01*
X278179Y290124D01*
X277124Y291179D01*
X275746Y291750D01*
D02*
G37*
G36*
X305746Y278750D02*
X304254D01*
X302876Y278179D01*
X301821Y277124D01*
X301250Y275746D01*
Y274254D01*
X301821Y272876D01*
X302876Y271821D01*
X304254Y271250D01*
X305746D01*
X307124Y271821D01*
X308179Y272876D01*
X308750Y274254D01*
Y275746D01*
X308179Y277124D01*
X307124Y278179D01*
X305746Y278750D01*
D02*
G37*
G36*
X290746D02*
X289254D01*
X287876Y278179D01*
X286821Y277124D01*
X286250Y275746D01*
Y274254D01*
X286821Y272876D01*
X287876Y271821D01*
X289254Y271250D01*
X290746D01*
X292124Y271821D01*
X293179Y272876D01*
X293750Y274254D01*
Y275746D01*
X293179Y277124D01*
X292124Y278179D01*
X290746Y278750D01*
D02*
G37*
G36*
X275746D02*
X274254D01*
X272876Y278179D01*
X271821Y277124D01*
X271250Y275746D01*
Y274254D01*
X271821Y272876D01*
X272876Y271821D01*
X274254Y271250D01*
X275746D01*
X277124Y271821D01*
X278179Y272876D01*
X278750Y274254D01*
Y275746D01*
X278179Y277124D01*
X277124Y278179D01*
X275746Y278750D01*
D02*
G37*
G36*
X529746Y275750D02*
X528254D01*
X526876Y275179D01*
X525821Y274124D01*
X525250Y272746D01*
Y271254D01*
X525821Y269876D01*
X526876Y268821D01*
X528254Y268250D01*
X529746D01*
X531124Y268821D01*
X532179Y269876D01*
X532750Y271254D01*
Y272746D01*
X532179Y274124D01*
X531124Y275179D01*
X529746Y275750D01*
D02*
G37*
G36*
X511746Y257750D02*
X510254D01*
X508876Y257179D01*
X507821Y256124D01*
X507250Y254746D01*
Y253254D01*
X507821Y251876D01*
X508876Y250821D01*
X510254Y250250D01*
X511746D01*
X513124Y250821D01*
X514179Y251876D01*
X514750Y253254D01*
Y254746D01*
X514179Y256124D01*
X513124Y257179D01*
X511746Y257750D01*
D02*
G37*
G36*
X468746Y194750D02*
X467254D01*
X465876Y194179D01*
X464821Y193124D01*
X464250Y191746D01*
Y190254D01*
X464821Y188876D01*
X465876Y187821D01*
X467254Y187250D01*
X468746D01*
X470124Y187821D01*
X471179Y188876D01*
X471750Y190254D01*
Y191746D01*
X471179Y193124D01*
X470124Y194179D01*
X468746Y194750D01*
D02*
G37*
G36*
X261600Y211250D02*
X258400D01*
X255260Y210625D01*
X252303Y209401D01*
X249641Y207622D01*
X247378Y205359D01*
X245599Y202697D01*
X244374Y199740D01*
X243750Y196600D01*
Y193400D01*
X244374Y190260D01*
X245599Y187303D01*
X247378Y184641D01*
X249641Y182378D01*
X252303Y180599D01*
X255260Y179374D01*
X258400Y178750D01*
X261600D01*
X264740Y179374D01*
X267697Y180599D01*
X270359Y182378D01*
X272622Y184641D01*
X274401Y187303D01*
X275625Y190260D01*
X276250Y193400D01*
Y196600D01*
X275625Y199740D01*
X274401Y202697D01*
X272622Y205359D01*
X270359Y207622D01*
X267697Y209401D01*
X264740Y210625D01*
X261600Y211250D01*
D02*
G37*
G36*
X446408Y182086D02*
X444916D01*
X443537Y181515D01*
X442482Y180460D01*
X441912Y179082D01*
Y177590D01*
X442482Y176211D01*
X443537Y175156D01*
X444916Y174586D01*
X446408D01*
X447786Y175156D01*
X448841Y176211D01*
X449412Y177590D01*
Y179082D01*
X448841Y180460D01*
X447786Y181515D01*
X446408Y182086D01*
D02*
G37*
G36*
X468746Y174750D02*
X467254D01*
X465876Y174179D01*
X464821Y173124D01*
X464250Y171746D01*
Y170254D01*
X464821Y168876D01*
X465876Y167821D01*
X467254Y167250D01*
X468746D01*
X470124Y167821D01*
X471179Y168876D01*
X471750Y170254D01*
Y171746D01*
X471179Y173124D01*
X470124Y174179D01*
X468746Y174750D01*
D02*
G37*
G36*
X525746Y167750D02*
X524254D01*
X522876Y167179D01*
X521821Y166124D01*
X521250Y164746D01*
Y163254D01*
X521821Y161876D01*
X522876Y160821D01*
X524254Y160250D01*
X525746D01*
X527124Y160821D01*
X528179Y161876D01*
X528750Y163254D01*
Y164746D01*
X528179Y166124D01*
X527124Y167179D01*
X525746Y167750D01*
D02*
G37*
G36*
X505746D02*
X504254D01*
X502876Y167179D01*
X501821Y166124D01*
X501250Y164746D01*
Y163254D01*
X501821Y161876D01*
X502876Y160821D01*
X504254Y160250D01*
X505746D01*
X507124Y160821D01*
X508179Y161876D01*
X508750Y163254D01*
Y164746D01*
X508179Y166124D01*
X507124Y167179D01*
X505746Y167750D01*
D02*
G37*
G36*
X355746Y159750D02*
X354254D01*
X352876Y159179D01*
X351821Y158124D01*
X351250Y156746D01*
Y155254D01*
X351821Y153876D01*
X352876Y152821D01*
X354254Y152250D01*
X355746D01*
X357124Y152821D01*
X358179Y153876D01*
X358750Y155254D01*
Y156746D01*
X358179Y158124D01*
X357124Y159179D01*
X355746Y159750D01*
D02*
G37*
G36*
X330746D02*
X329254D01*
X327876Y159179D01*
X326821Y158124D01*
X326250Y156746D01*
Y155254D01*
X326821Y153876D01*
X327876Y152821D01*
X329254Y152250D01*
X330746D01*
X332124Y152821D01*
X333179Y153876D01*
X333750Y155254D01*
Y156746D01*
X333179Y158124D01*
X332124Y159179D01*
X330746Y159750D01*
D02*
G37*
G36*
X366746Y134750D02*
X365254D01*
X363876Y134179D01*
X362821Y133124D01*
X362250Y131746D01*
Y130254D01*
X362821Y128876D01*
X363876Y127821D01*
X365254Y127250D01*
X366746D01*
X368124Y127821D01*
X369179Y128876D01*
X369750Y130254D01*
Y131746D01*
X369179Y133124D01*
X368124Y134179D01*
X366746Y134750D01*
D02*
G37*
G36*
X599746Y129750D02*
X598254D01*
X596876Y129179D01*
X595821Y128124D01*
X595250Y126746D01*
Y125254D01*
X595821Y123876D01*
X596876Y122821D01*
X598254Y122250D01*
X599746D01*
X601124Y122821D01*
X602179Y123876D01*
X602750Y125254D01*
Y126746D01*
X602179Y128124D01*
X601124Y129179D01*
X599746Y129750D01*
D02*
G37*
G36*
X388746Y119750D02*
X387254D01*
X385876Y119179D01*
X384821Y118124D01*
X384250Y116746D01*
Y115254D01*
X384821Y113876D01*
X385876Y112821D01*
X387254Y112250D01*
X388746D01*
X390124Y112821D01*
X391179Y113876D01*
X391750Y115254D01*
Y116746D01*
X391179Y118124D01*
X390124Y119179D01*
X388746Y119750D01*
D02*
G37*
G36*
X620746Y104750D02*
X619254D01*
X617876Y104179D01*
X616821Y103124D01*
X616250Y101746D01*
Y100254D01*
X616821Y98876D01*
X617876Y97821D01*
X619254Y97250D01*
X620746D01*
X622124Y97821D01*
X623179Y98876D01*
X623750Y100254D01*
Y101746D01*
X623179Y103124D01*
X622124Y104179D01*
X620746Y104750D01*
D02*
G37*
G36*
X536850Y108750D02*
X519350D01*
Y91250D01*
X536850D01*
Y108750D01*
D02*
G37*
G36*
X503852D02*
X501548D01*
X499322Y108154D01*
X497327Y107002D01*
X495698Y105373D01*
X494546Y103378D01*
X493950Y101152D01*
Y98848D01*
X494546Y96623D01*
X495698Y94628D01*
X497327Y92998D01*
X499322Y91847D01*
X501548Y91250D01*
X503852D01*
X506077Y91847D01*
X508072Y92998D01*
X509701Y94628D01*
X510853Y96623D01*
X511450Y98848D01*
Y101152D01*
X510853Y103378D01*
X509701Y105373D01*
X508072Y107002D01*
X506077Y108154D01*
X503852Y108750D01*
D02*
G37*
G36*
X478452Y108750D02*
X476148D01*
X473923Y108153D01*
X471928Y107002D01*
X470299Y105372D01*
X469147Y103377D01*
X468550Y101152D01*
Y98848D01*
X469147Y96622D01*
X470299Y94627D01*
X471928Y92998D01*
X473923Y91846D01*
X476148Y91250D01*
X478452D01*
X480678Y91846D01*
X482673Y92998D01*
X484302Y94627D01*
X485454Y96622D01*
X486050Y98848D01*
Y101152D01*
X485454Y103377D01*
X484302Y105372D01*
X482673Y107002D01*
X480678Y108153D01*
X478452Y108750D01*
D02*
G37*
G36*
X308973Y96693D02*
X307482D01*
X306103Y96122D01*
X305048Y95067D01*
X304478Y93689D01*
Y92197D01*
X305048Y90819D01*
X306103Y89764D01*
X307482Y89193D01*
X308973D01*
X310352Y89764D01*
X311407Y90819D01*
X311978Y92197D01*
Y93689D01*
X311407Y95067D01*
X310352Y96122D01*
X308973Y96693D01*
D02*
G37*
G36*
X351246Y89750D02*
X349754D01*
X348376Y89179D01*
X347321Y88124D01*
X346750Y86746D01*
Y85254D01*
X347321Y83876D01*
X348376Y82821D01*
X349754Y82250D01*
X351246D01*
X352624Y82821D01*
X353679Y83876D01*
X354250Y85254D01*
Y86746D01*
X353679Y88124D01*
X352624Y89179D01*
X351246Y89750D01*
D02*
G37*
G36*
X484246Y80250D02*
X482754D01*
X481376Y79679D01*
X480321Y78624D01*
X479750Y77246D01*
Y75754D01*
X480321Y74376D01*
X481376Y73321D01*
X482754Y72750D01*
X484246D01*
X485624Y73321D01*
X486679Y74376D01*
X487250Y75754D01*
Y77246D01*
X486679Y78624D01*
X485624Y79679D01*
X484246Y80250D01*
D02*
G37*
G36*
X491218Y49250D02*
X488782D01*
X486430Y48620D01*
X484320Y47402D01*
X482598Y45680D01*
X481380Y43570D01*
X480750Y41218D01*
Y38782D01*
X481380Y36430D01*
X482598Y34320D01*
X484320Y32598D01*
X486430Y31380D01*
X488782Y30750D01*
X491218D01*
X493570Y31380D01*
X495680Y32598D01*
X497402Y34320D01*
X498620Y36430D01*
X499250Y38782D01*
Y41218D01*
X498620Y43570D01*
X497402Y45680D01*
X495680Y47402D01*
X493570Y48620D01*
X491218Y49250D01*
D02*
G37*
G36*
X474250D02*
X455750D01*
Y30750D01*
X474250D01*
Y49250D01*
D02*
G37*
G36*
X361218D02*
X358782D01*
X356430Y48620D01*
X354320Y47402D01*
X352598Y45680D01*
X351380Y43570D01*
X350750Y41218D01*
Y38782D01*
X351380Y36430D01*
X352598Y34320D01*
X354320Y32598D01*
X356430Y31380D01*
X358782Y30750D01*
X361218D01*
X363570Y31380D01*
X365680Y32598D01*
X367402Y34320D01*
X368620Y36430D01*
X369250Y38782D01*
Y41218D01*
X368620Y43570D01*
X367402Y45680D01*
X365680Y47402D01*
X363570Y48620D01*
X361218Y49250D01*
D02*
G37*
G36*
X344250D02*
X325750D01*
Y30750D01*
X344250D01*
Y49250D01*
D02*
G37*
%LPD*%
D17*
X704661Y445454D02*
X688000D01*
X704661Y462116D01*
Y466281D01*
X700496Y470447D01*
X692165D01*
X688000Y466281D01*
X712992Y457951D02*
X729653D01*
X754645Y466281D02*
X750480Y470447D01*
X742149D01*
X737984Y466281D01*
Y449620D01*
X742149Y445454D01*
X750480D01*
X754645Y449620D01*
Y457951D01*
X746314D01*
X762976Y445454D02*
Y470447D01*
X779637Y445454D01*
Y470447D01*
X787968D02*
Y445454D01*
X800464D01*
X804629Y449620D01*
Y466281D01*
X800464Y470447D01*
X787968D01*
X812960Y445454D02*
X821290D01*
X817125D01*
Y470447D01*
X812960Y466281D01*
D71*
X260000Y145000D02*
D03*
D73*
X451900Y100000D02*
D03*
D75*
X465000Y410000D02*
D03*
X325000D02*
D03*
X515000Y40000D02*
D03*
X385000D02*
D03*
D79*
X605000Y321000D02*
D03*
Y101000D02*
D03*
D80*
X600000Y400000D02*
D03*
X250000Y400000D02*
D03*
X600000Y50000D02*
D03*
X250000D02*
D03*
M02*
