G04*
G04 #@! TF.GenerationSoftware,Altium Limited,Altium Designer,23.4.1 (23)*
G04*
G04 Layer_Color=8388736*
%FSLAX44Y44*%
%MOMM*%
G71*
G04*
G04 #@! TF.SameCoordinates,AC87B314-1984-4FFE-BA22-F28876D7C55D*
G04*
G04*
G04 #@! TF.FilePolarity,Negative*
G04*
G01*
G75*
%ADD17C,0.4000*%
%ADD39R,1.1938X0.9144*%
G04:AMPARAMS|DCode=40|XSize=1.1032mm|YSize=1.6032mm|CornerRadius=0.1691mm|HoleSize=0mm|Usage=FLASHONLY|Rotation=270.000|XOffset=0mm|YOffset=0mm|HoleType=Round|Shape=RoundedRectangle|*
%AMROUNDEDRECTD40*
21,1,1.1032,1.2650,0,0,270.0*
21,1,0.7650,1.6032,0,0,270.0*
1,1,0.3382,-0.6325,-0.3825*
1,1,0.3382,-0.6325,0.3825*
1,1,0.3382,0.6325,0.3825*
1,1,0.3382,0.6325,-0.3825*
%
%ADD40ROUNDEDRECTD40*%
G04:AMPARAMS|DCode=41|XSize=1.7032mm|YSize=2.2032mm|CornerRadius=0.2891mm|HoleSize=0mm|Usage=FLASHONLY|Rotation=270.000|XOffset=0mm|YOffset=0mm|HoleType=Round|Shape=RoundedRectangle|*
%AMROUNDEDRECTD41*
21,1,1.7032,1.6250,0,0,270.0*
21,1,1.1250,2.2032,0,0,270.0*
1,1,0.5782,-0.8125,-0.5625*
1,1,0.5782,-0.8125,0.5625*
1,1,0.5782,0.8125,0.5625*
1,1,0.5782,0.8125,-0.5625*
%
%ADD41ROUNDEDRECTD41*%
G04:AMPARAMS|DCode=42|XSize=4.0032mm|YSize=2.2032mm|CornerRadius=0.1516mm|HoleSize=0mm|Usage=FLASHONLY|Rotation=270.000|XOffset=0mm|YOffset=0mm|HoleType=Round|Shape=RoundedRectangle|*
%AMROUNDEDRECTD42*
21,1,4.0032,1.9000,0,0,270.0*
21,1,3.7000,2.2032,0,0,270.0*
1,1,0.3032,-0.9500,-1.8500*
1,1,0.3032,-0.9500,1.8500*
1,1,0.3032,0.9500,1.8500*
1,1,0.3032,0.9500,-1.8500*
%
%ADD42ROUNDEDRECTD42*%
G04:AMPARAMS|DCode=43|XSize=1.1032mm|YSize=1.6032mm|CornerRadius=0.1691mm|HoleSize=0mm|Usage=FLASHONLY|Rotation=0.000|XOffset=0mm|YOffset=0mm|HoleType=Round|Shape=RoundedRectangle|*
%AMROUNDEDRECTD43*
21,1,1.1032,1.2650,0,0,0.0*
21,1,0.7650,1.6032,0,0,0.0*
1,1,0.3382,0.3825,-0.6325*
1,1,0.3382,-0.3825,-0.6325*
1,1,0.3382,-0.3825,0.6325*
1,1,0.3382,0.3825,0.6325*
%
%ADD43ROUNDEDRECTD43*%
G04:AMPARAMS|DCode=44|XSize=1.0032mm|YSize=1.1032mm|CornerRadius=0.1616mm|HoleSize=0mm|Usage=FLASHONLY|Rotation=90.000|XOffset=0mm|YOffset=0mm|HoleType=Round|Shape=RoundedRectangle|*
%AMROUNDEDRECTD44*
21,1,1.0032,0.7800,0,0,90.0*
21,1,0.6800,1.1032,0,0,90.0*
1,1,0.3232,0.3900,0.3400*
1,1,0.3232,0.3900,-0.3400*
1,1,0.3232,-0.3900,-0.3400*
1,1,0.3232,-0.3900,0.3400*
%
%ADD44ROUNDEDRECTD44*%
%ADD45R,1.2032X1.1032*%
%ADD46C,1.4032*%
G04:AMPARAMS|DCode=47|XSize=1.1032mm|YSize=1.0032mm|CornerRadius=0.1616mm|HoleSize=0mm|Usage=FLASHONLY|Rotation=0.000|XOffset=0mm|YOffset=0mm|HoleType=Round|Shape=RoundedRectangle|*
%AMROUNDEDRECTD47*
21,1,1.1032,0.6800,0,0,0.0*
21,1,0.7800,1.0032,0,0,0.0*
1,1,0.3232,0.3900,-0.3400*
1,1,0.3232,-0.3900,-0.3400*
1,1,0.3232,-0.3900,0.3400*
1,1,0.3232,0.3900,0.3400*
%
%ADD47ROUNDEDRECTD47*%
%ADD48R,1.4032X2.2032*%
%ADD49R,1.9032X1.3032*%
G04:AMPARAMS|DCode=50|XSize=2.2032mm|YSize=4.2032mm|CornerRadius=0.3016mm|HoleSize=0mm|Usage=FLASHONLY|Rotation=90.000|XOffset=0mm|YOffset=0mm|HoleType=Round|Shape=RoundedRectangle|*
%AMROUNDEDRECTD50*
21,1,2.2032,3.6000,0,0,90.0*
21,1,1.6000,4.2032,0,0,90.0*
1,1,0.6032,1.8000,0.8000*
1,1,0.6032,1.8000,-0.8000*
1,1,0.6032,-1.8000,-0.8000*
1,1,0.6032,-1.8000,0.8000*
%
%ADD50ROUNDEDRECTD50*%
G04:AMPARAMS|DCode=51|XSize=3.2032mm|YSize=4.2032mm|CornerRadius=0.4016mm|HoleSize=0mm|Usage=FLASHONLY|Rotation=90.000|XOffset=0mm|YOffset=0mm|HoleType=Round|Shape=RoundedRectangle|*
%AMROUNDEDRECTD51*
21,1,3.2032,3.4000,0,0,90.0*
21,1,2.4000,4.2032,0,0,90.0*
1,1,0.8032,1.7000,1.2000*
1,1,0.8032,1.7000,-1.2000*
1,1,0.8032,-1.7000,-1.2000*
1,1,0.8032,-1.7000,1.2000*
%
%ADD51ROUNDEDRECTD51*%
%ADD52R,0.7032X1.2032*%
%ADD53R,1.1032X1.2032*%
%ADD54C,0.9652*%
%ADD55R,3.2032X3.2032*%
%ADD56C,3.2032*%
%ADD57C,1.7032*%
%ADD58R,1.7032X1.7032*%
%ADD59C,1.8032*%
%ADD60R,1.8032X1.8032*%
%ADD61C,2.2032*%
%ADD62C,7.4000*%
G36*
X219978Y32009D02*
X221089Y30154D01*
X223752Y26746D01*
X226815Y23692D01*
X230229Y21038D01*
X232087Y19931D01*
X232087D01*
X232087Y19931D01*
X236112Y32831D01*
X232902Y36042D01*
X219978Y32009D01*
D02*
G37*
G36*
X216050Y58507D02*
X215524Y56410D01*
X214997Y52117D01*
X215003Y47792D01*
X215541Y43501D01*
X216072Y41404D01*
X216072Y41404D01*
X216072D01*
X228040Y47680D01*
Y52220D01*
X216050Y58507D01*
D02*
G37*
G36*
X241493Y16050D02*
X243590Y15524D01*
X247883Y14997D01*
X252208Y15003D01*
X256499Y15541D01*
X258596Y16072D01*
Y16072D01*
Y16072D01*
X252320Y28040D01*
X247780D01*
X241493Y16050D01*
D02*
G37*
G36*
X267991Y19978D02*
X269846Y21089D01*
X273254Y23752D01*
X276308Y26815D01*
X278962Y30229D01*
X280069Y32087D01*
X280069Y32087D01*
X280069Y32087D01*
X267169Y36112D01*
X263958Y32902D01*
X267991Y19978D01*
D02*
G37*
G36*
X283950Y41493D02*
X284476Y43590D01*
X285003Y47883D01*
X284997Y52208D01*
X284459Y56499D01*
X283928Y58596D01*
D01*
X283928D01*
X271960Y52320D01*
Y47780D01*
X283950Y41493D01*
D02*
G37*
G36*
X232009Y80022D02*
X230154Y78910D01*
X226746Y76248D01*
X223692Y73185D01*
X221038Y69771D01*
X219931Y67913D01*
D01*
X219931Y67913D01*
X232831Y63888D01*
X236042Y67098D01*
X232009Y80022D01*
D02*
G37*
G36*
X258507Y83950D02*
X256410Y84476D01*
X252117Y85003D01*
X247792Y84997D01*
X243501Y84459D01*
X241404Y83928D01*
X241404D01*
Y83928D01*
X247680Y71960D01*
X252220D01*
X258507Y83950D01*
D02*
G37*
G36*
X280022Y67991D02*
X278911Y69846D01*
X276248Y73254D01*
X273185Y76308D01*
X269771Y78962D01*
X267913Y80069D01*
Y80069D01*
X267913Y80069D01*
X263888Y67169D01*
X267098Y63958D01*
X280022Y67991D01*
D02*
G37*
G36*
X329501Y88001D02*
X319501D01*
Y98001D01*
X329501D01*
Y88001D01*
D02*
G37*
G36*
X335000Y205000D02*
Y195000D01*
X325000D01*
Y205000D01*
X335000D01*
D02*
G37*
G36*
X360000Y195000D02*
X350000D01*
Y205000D01*
X360000D01*
Y195000D01*
D02*
G37*
G36*
X345499Y88001D02*
X335499D01*
Y98001D01*
X345499D01*
Y88001D01*
D02*
G37*
G36*
X586042Y67098D02*
X582831Y63888D01*
X569931Y67913D01*
X569931Y67913D01*
X571038Y69771D01*
X573692Y73185D01*
X576746Y76248D01*
X580154Y78910D01*
X582009Y80022D01*
X586042Y67098D01*
D02*
G37*
G36*
X578040Y52220D02*
Y47680D01*
X566072Y41404D01*
X566072D01*
X566072Y41404D01*
X565541Y43501D01*
X565003Y47792D01*
X564997Y52117D01*
X565524Y56410D01*
X566050Y58507D01*
X578040Y52220D01*
D02*
G37*
G36*
X586112Y32831D02*
X582087Y19931D01*
X582087Y19931D01*
X582087D01*
X580229Y21038D01*
X576814Y23692D01*
X573752Y26746D01*
X571090Y30154D01*
X569978Y32009D01*
X582902Y36042D01*
X586112Y32831D01*
D02*
G37*
G36*
X591493Y16050D02*
X593590Y15524D01*
X597883Y14997D01*
X602208Y15003D01*
X606499Y15541D01*
X608596Y16072D01*
Y16072D01*
Y16072D01*
X602320Y28040D01*
X597780D01*
X591493Y16050D01*
D02*
G37*
G36*
X617991Y19978D02*
X619846Y21089D01*
X623254Y23752D01*
X626308Y26815D01*
X628962Y30229D01*
X630069Y32087D01*
X630069Y32087D01*
X630069Y32087D01*
X617169Y36112D01*
X613958Y32902D01*
X617991Y19978D01*
D02*
G37*
G36*
X633950Y41493D02*
X634476Y43590D01*
X635003Y47883D01*
X634997Y52208D01*
X634459Y56499D01*
X633928Y58596D01*
D01*
X633928D01*
X621960Y52320D01*
Y47780D01*
X633950Y41493D01*
D02*
G37*
G36*
X608507Y83950D02*
X606410Y84476D01*
X602117Y85003D01*
X597792Y84997D01*
X593501Y84459D01*
X591404Y83928D01*
X591404D01*
Y83928D01*
X597680Y71960D01*
X602220D01*
X608507Y83950D01*
D02*
G37*
G36*
X630022Y67991D02*
X628910Y69846D01*
X626248Y73254D01*
X623185Y76308D01*
X619771Y78962D01*
X617913Y80069D01*
Y80069D01*
X617913Y80069D01*
X613888Y67169D01*
X617098Y63958D01*
X630022Y67991D01*
D02*
G37*
G36*
X219978Y382009D02*
X221089Y380154D01*
X223752Y376746D01*
X226815Y373692D01*
X230229Y371038D01*
X232087Y369931D01*
X232087D01*
X232087Y369931D01*
X236112Y382831D01*
X232902Y386042D01*
X219978Y382009D01*
D02*
G37*
G36*
X216050Y408507D02*
X215524Y406410D01*
X214997Y402117D01*
X215003Y397792D01*
X215541Y393501D01*
X216072Y391404D01*
X216072Y391404D01*
X216072D01*
X228040Y397680D01*
Y402220D01*
X216050Y408507D01*
D02*
G37*
G36*
X241493Y366050D02*
X243590Y365524D01*
X247883Y364997D01*
X252208Y365003D01*
X256499Y365541D01*
X258596Y366072D01*
Y366072D01*
Y366072D01*
X252320Y378040D01*
X247780D01*
X241493Y366050D01*
D02*
G37*
G36*
X232009Y430022D02*
X230154Y428910D01*
X226746Y426248D01*
X223692Y423185D01*
X221038Y419771D01*
X219931Y417913D01*
D01*
X219931Y417913D01*
X232831Y413888D01*
X236042Y417098D01*
X232009Y430022D01*
D02*
G37*
G36*
X258507Y433950D02*
X256410Y434476D01*
X252117Y435003D01*
X247792Y434997D01*
X243501Y434459D01*
X241404Y433928D01*
X241404D01*
Y433928D01*
X247680Y421960D01*
X252220D01*
X258507Y433950D01*
D02*
G37*
G36*
X267991Y369978D02*
X269846Y371090D01*
X273254Y373752D01*
X276308Y376814D01*
X278962Y380229D01*
X280069Y382087D01*
X280069Y382087D01*
X280069Y382087D01*
X267169Y386112D01*
X263958Y382902D01*
X267991Y369978D01*
D02*
G37*
G36*
X283950Y391493D02*
X284476Y393590D01*
X285003Y397883D01*
X284997Y402208D01*
X284459Y406499D01*
X283928Y408596D01*
D01*
X283928D01*
X271960Y402320D01*
Y397780D01*
X283950Y391493D01*
D02*
G37*
G36*
X280022Y417991D02*
X278911Y419846D01*
X276248Y423254D01*
X273185Y426308D01*
X269771Y428962D01*
X267913Y430069D01*
Y430069D01*
X267913Y430069D01*
X263888Y417169D01*
X267098Y413958D01*
X280022Y417991D01*
D02*
G37*
G36*
X365501Y361999D02*
X375501D01*
Y351999D01*
X365501D01*
Y361999D01*
D02*
G37*
G36*
X381499D02*
X391499D01*
Y351999D01*
X381499D01*
Y361999D01*
D02*
G37*
G36*
X586042Y417098D02*
X582831Y413888D01*
X569931Y417913D01*
X569931Y417913D01*
X571038Y419771D01*
X573692Y423185D01*
X576746Y426248D01*
X580154Y428910D01*
X582009Y430022D01*
X586042Y417098D01*
D02*
G37*
G36*
X578040Y402220D02*
Y397680D01*
X566072Y391404D01*
X566072D01*
X566072Y391404D01*
X565541Y393501D01*
X565003Y397792D01*
X564997Y402117D01*
X565524Y406410D01*
X566050Y408507D01*
X578040Y402220D01*
D02*
G37*
G36*
X586112Y382831D02*
X582087Y369931D01*
X582087Y369931D01*
X582087D01*
X580229Y371038D01*
X576814Y373692D01*
X573752Y376746D01*
X571090Y380154D01*
X569978Y382009D01*
X582902Y386042D01*
X586112Y382831D01*
D02*
G37*
G36*
X530499Y351999D02*
X520499D01*
Y361999D01*
X530499D01*
Y351999D01*
D02*
G37*
G36*
X514501D02*
X504501D01*
Y361999D01*
X514501D01*
Y351999D01*
D02*
G37*
G36*
X591493Y366050D02*
X593590Y365524D01*
X597883Y364997D01*
X602208Y365003D01*
X606499Y365541D01*
X608596Y366072D01*
Y366072D01*
Y366072D01*
X602320Y378040D01*
X597780D01*
X591493Y366050D01*
D02*
G37*
G36*
X617991Y369978D02*
X619846Y371090D01*
X623254Y373752D01*
X626308Y376815D01*
X628962Y380229D01*
X630069Y382087D01*
X630069Y382087D01*
X630069Y382087D01*
X617169Y386112D01*
X613958Y382902D01*
X617991Y369978D01*
D02*
G37*
G36*
X633950Y391493D02*
X634476Y393590D01*
X635003Y397883D01*
X634997Y402208D01*
X634459Y406499D01*
X633928Y408596D01*
D01*
X633928D01*
X621960Y402320D01*
Y397780D01*
X633950Y391493D01*
D02*
G37*
G36*
X608507Y433950D02*
X606410Y434476D01*
X602117Y435003D01*
X597792Y434997D01*
X593501Y434459D01*
X591404Y433928D01*
X591404D01*
Y433928D01*
X597680Y421960D01*
X602220D01*
X608507Y433950D01*
D02*
G37*
G36*
X630022Y417991D02*
X628910Y419846D01*
X626248Y423254D01*
X623185Y426308D01*
X619771Y428962D01*
X617913Y430069D01*
Y430069D01*
X617913Y430069D01*
X613888Y417169D01*
X617098Y413958D01*
X630022Y417991D01*
D02*
G37*
D17*
X688000Y252719D02*
X704661D01*
X696331D01*
Y227727D01*
X725488Y252719D02*
X717157D01*
X712992Y248554D01*
Y231893D01*
X717157Y227727D01*
X725488D01*
X729653Y231893D01*
Y248554D01*
X725488Y252719D01*
X737984Y227727D02*
Y252719D01*
X750480D01*
X754645Y248554D01*
Y240223D01*
X750480Y236058D01*
X737984D01*
X804629Y248554D02*
X800464Y252719D01*
X792133D01*
X787968Y248554D01*
Y244389D01*
X792133Y240223D01*
X800464D01*
X804629Y236058D01*
Y231893D01*
X800464Y227727D01*
X792133D01*
X787968Y231893D01*
X825456Y252719D02*
X817125D01*
X812960Y248554D01*
Y231893D01*
X817125Y227727D01*
X825456D01*
X829621Y231893D01*
Y248554D01*
X825456Y252719D01*
X837952D02*
Y227727D01*
X854613D01*
X862943Y252719D02*
Y227727D01*
X875439D01*
X879605Y231893D01*
Y248554D01*
X875439Y252719D01*
X862943D01*
X904597D02*
X887935D01*
Y227727D01*
X904597D01*
X887935Y240223D02*
X896266D01*
X912927Y227727D02*
Y252719D01*
X925423D01*
X929589Y248554D01*
Y240223D01*
X925423Y236058D01*
X912927D01*
X921258D02*
X929589Y227727D01*
X962911D02*
Y252719D01*
X971242Y244389D01*
X979572Y252719D01*
Y227727D01*
X987903D02*
Y244389D01*
X996234Y252719D01*
X1004564Y244389D01*
Y227727D01*
Y240223D01*
X987903D01*
X1029556Y248554D02*
X1025391Y252719D01*
X1017060D01*
X1012895Y248554D01*
Y244389D01*
X1017060Y240223D01*
X1025391D01*
X1029556Y236058D01*
Y231893D01*
X1025391Y227727D01*
X1017060D01*
X1012895Y231893D01*
X1037887Y252719D02*
Y227727D01*
Y236058D01*
X1054548Y252719D01*
X1042052Y240223D01*
X1054548Y227727D01*
D39*
X592500Y345750D02*
D03*
X637500D02*
D03*
X592500Y324250D02*
D03*
X637500D02*
D03*
X592500Y125750D02*
D03*
X637500D02*
D03*
X592500Y104250D02*
D03*
X637500D02*
D03*
D40*
X230000Y290500D02*
D03*
Y269500D02*
D03*
D41*
X260000Y257000D02*
D03*
Y303000D02*
D03*
Y280000D02*
D03*
D42*
X322000D02*
D03*
D43*
X264500Y325000D02*
D03*
X285500D02*
D03*
X320500Y325000D02*
D03*
X299500D02*
D03*
D44*
X355000Y162500D02*
D03*
Y177500D02*
D03*
X330000Y162500D02*
D03*
Y177500D02*
D03*
D45*
X330001Y208499D02*
D03*
Y191499D02*
D03*
X355001Y208499D02*
D03*
Y191499D02*
D03*
D46*
X390000Y215000D02*
D03*
X320000Y235000D02*
D03*
X230000Y250000D02*
D03*
X545000Y320000D02*
D03*
X500000Y80000D02*
D03*
X482000Y357000D02*
D03*
X343000D02*
D03*
X368000Y93000D02*
D03*
D47*
X499500Y371000D02*
D03*
X482500D02*
D03*
X360500D02*
D03*
X343500D02*
D03*
X350500Y79000D02*
D03*
X367500D02*
D03*
D48*
X565000Y300000D02*
D03*
X545000D02*
D03*
X525000D02*
D03*
X505000D02*
D03*
X485000D02*
D03*
X465000D02*
D03*
X445000D02*
D03*
X425000D02*
D03*
Y150000D02*
D03*
X445000D02*
D03*
X465000D02*
D03*
X485000D02*
D03*
X505000D02*
D03*
X525000D02*
D03*
X545000D02*
D03*
X565000D02*
D03*
D49*
X410000Y275000D02*
D03*
Y255000D02*
D03*
Y235000D02*
D03*
Y215000D02*
D03*
Y195000D02*
D03*
Y175000D02*
D03*
D50*
X139104Y115000D02*
D03*
Y146000D02*
D03*
D51*
Y275000D02*
D03*
Y321000D02*
D03*
D52*
X517000Y357000D02*
D03*
X378000D02*
D03*
X333000Y93000D02*
D03*
D53*
X534000Y357000D02*
D03*
X500000D02*
D03*
X395000D02*
D03*
X361000D02*
D03*
X316000Y93000D02*
D03*
X350000D02*
D03*
D54*
X200000Y375400D02*
D03*
Y324600D02*
D03*
Y350000D02*
D03*
Y135400D02*
D03*
Y84600D02*
D03*
Y110000D02*
D03*
D55*
X260000Y145000D02*
D03*
X41604Y277000D02*
D03*
D56*
X260000Y195000D02*
D03*
X41604Y177000D02*
D03*
Y227000D02*
D03*
D57*
X502700Y100000D02*
D03*
X477300Y100000D02*
D03*
X451900D02*
D03*
D58*
X528100Y100000D02*
D03*
D59*
X490000Y410000D02*
D03*
X465000D02*
D03*
X350000D02*
D03*
X325000D02*
D03*
X490000Y40000D02*
D03*
X515000D02*
D03*
X360000D02*
D03*
X385000D02*
D03*
D60*
X515000Y410000D02*
D03*
X375000D02*
D03*
X465000Y40000D02*
D03*
X335000D02*
D03*
D61*
X16104Y332000D02*
D03*
X67104D02*
D03*
D62*
X600000Y400000D02*
D03*
X250000Y400000D02*
D03*
X600000Y50000D02*
D03*
X250000D02*
D03*
M02*
